<?xml version="1.0" encoding="utf-8"?>
<!-- Generator: Adobe Illustrator 19.2.0, SVG Export Plug-In . SVG Version: 6.00 Build 0)  -->
<svg version="1.1" id="Layer_1" xmlns="http://www.w3.org/2000/svg" xmlns:xlink="http://www.w3.org/1999/xlink" x="0px" y="0px"
	 viewBox="0 0 446 409" style="enable-background:new 0 0 446 409;" xml:space="preserve">
<g id="Calque_6">
	<path style="fill:#333C43;" d="M425,213h-90c-11.6,0-21-9.4-21-21l0,0c0-11.6,9.4-21,21-21h90c11.6,0,21,9.4,21,21l0,0
		C446,203.6,436.6,213,425,213z"/>
	<path style="fill:#333C43;" d="M345,346h-58c-5.5,0-10-4.5-10-10l0,0c0-5.5,4.5-10,10-10h58c5.5,0,10,4.5,10,10l0,0
		C355,341.5,350.5,346,345,346z"/>
	<path style="fill:#333C43;" d="M355,90h-38c-5.5,0-10-4.5-10-10l0,0c0-5.5,4.5-10,10-10h38c5.5,0,10,4.5,10,10l0,0
		C365,85.5,360.5,90,355,90z"/>
	<path style="fill:#333C43;" d="M22,256h10c8.8,0,16-7.2,16-16s-7.2-16-16-16c-17.7,0-32-14.3-32-32s14.3-32,32-32h41
		c8.8,0,16-7.2,16-16s-7.2-16-16-16h-1c-17.7,0-32-14.3-32-32s14.3-32,32-32h21c8.8,0,16-7.2,16-16l0,0c0-8.8,7.2-16,16-16h28
		c8.8,0,16-7.2,16-16l0,0c0-8.8,7.2-16,16-16h82c8.8,0,16,7.2,16,16l0,0c0,8.8,7.2,16,16,16h18c8.8,0,16,7.2,16,16l0,0
		c0,8.8-7.2,16-16,16s-16,7.2-16,16s7.2,16,16,16h66c17.7,0,32,14.3,32,32s-14.3,32-32,32h-48c-17.7,0-32,14.3-32,32s14.3,32,32,32
		h30c26.5,0,48,21.5,48,48s-21.5,48-48,48h-78c-8.8,0-16,7.2-16,16s7.2,16,16,16s16,7.2,16,16l0,0c0,8.8-7.2,16-16,16H165
		c-8.8,0-16-7.2-16-16s-7.2-16-16-16h-8c-8.8,0-16-7.2-16-16s-7.2-16-16-16h-5.1c-8.8,0-15.9-7.2-15.9-16c0-8.8-7.2-16-16-16H22
		c-8.8,0-16-7.2-16-16l0,0C6,263.2,13.2,256,22,256z"/>
	<path style="fill:#333C43;" d="M72,154H34c-5.5,0-10-4.5-10-10l0,0c0-5.5,4.5-10,10-10h38c5.5,0,10,4.5,10,10l0,0
		C82,149.5,77.5,154,72,154z"/>
	<path style="fill:#333C43;" d="M32,250h-9c-5.5,0-10-4.5-10-10l0,0c0-5.5,4.5-10,10-10h9c5.5,0,10,4.5,10,10l0,0
		C42,245.5,37.5,250,32,250z"/>
	<path style="fill:#333C43;" d="M242,409h-39c-5.5,0-10-4.5-10-10l0,0c0-5.5,4.5-10,10-10h39c5.5,0,10,4.5,10,10l0,0
		C252,404.5,247.5,409,242,409z"/>
</g>
<g id="Stars">
	<path style="opacity:0.9;fill:#FFFFFF;enable-background:new    ;" d="M374,116h-4v-4c0-1.1-0.9-2-2-2s-2,0.9-2,2v4h-4
		c-1.1,0-2,0.9-2,2s0.9,2,2,2h4v4c0,1.1,0.9,2,2,2s2-0.9,2-2v-4h4c1.1,0,2-0.9,2-2S375.1,116,374,116z"/>
	<path style="opacity:0.8;fill:#FFFFFF;enable-background:new    ;" d="M312,138h-2v-2c0-0.6-0.4-1-1-1s-1,0.4-1,1v2h-2
		c-0.6,0-1,0.4-1,1s0.4,1,1,1h2v2c0,0.6,0.4,1,1,1s1-0.4,1-1v-2h2c0.6,0,1-0.4,1-1S312.6,138,312,138z"/>
	<path style="opacity:0.8;fill:#FFFFFF;enable-background:new    ;" d="M262,68h-2v-2c0-0.6-0.4-1-1-1s-1,0.4-1,1v2h-2
		c-0.6,0-1,0.4-1,1s0.4,1,1,1h2v2c0,0.6,0.4,1,1,1s1-0.4,1-1v-2h2c0.6,0,1-0.4,1-1S262.6,68,262,68z"/>
	<path style="opacity:0.8;fill:#FFFFFF;enable-background:new    ;" d="M418,181h-2v-2c0-0.6-0.4-1-1-1s-1,0.4-1,1v2h-2
		c-0.6,0-1,0.4-1,1s0.4,1,1,1h2v2c0,0.6,0.4,1,1,1s1-0.4,1-1v-2h2c0.6,0,1-0.4,1-1S418.6,181,418,181z"/>
	<path style="opacity:0.8;fill:#FFFFFF;enable-background:new    ;" d="M339,203h-2v-2c0-0.6-0.4-1-1-1s-1,0.4-1,1v2h-2
		c-0.6,0-1,0.4-1,1s0.4,1,1,1h2v2c0,0.6,0.4,1,1,1s1-0.4,1-1v-2h2c0.6,0,1-0.4,1-1S339.6,203,339,203z"/>
	<path style="opacity:0.8;fill:#FFFFFF;enable-background:new    ;" d="M362,263h-2v-2c0-0.6-0.4-1-1-1s-1,0.4-1,1v2h-2
		c-0.6,0-1,0.4-1,1s0.4,1,1,1h2v2c0,0.6,0.4,1,1,1s1-0.4,1-1v-2h2c0.6,0,1-0.4,1-1S362.6,263,362,263z"/>
	<path style="opacity:0.8;fill:#FFFFFF;enable-background:new    ;" d="M92,253h-2v-2c0-0.6-0.4-1-1-1s-1,0.4-1,1v2h-2
		c-0.6,0-1,0.4-1,1s0.4,1,1,1h2v2c0,0.6,0.4,1,1,1s1-0.4,1-1v-2h2c0.6,0,1-0.4,1-1S92.6,253,92,253z"/>
	<path style="opacity:0.9;fill:#FFFFFF;enable-background:new    ;" d="M81,82h-4v-4c0-1.1-0.9-2-2-2s-2,0.9-2,2v4h-4
		c-1.1,0-2,0.9-2,2s0.9,2,2,2h4v4c0,1.1,0.9,2,2,2s2-0.9,2-2v-4h4c1.1,0,2-0.9,2-2S82.1,82,81,82z"/>
	<path style="opacity:0.8;fill:#FFFFFF;enable-background:new    ;" d="M172,187h-2v-2c0-0.6-0.4-1-1-1s-1,0.4-1,1v2h-2
		c-0.6,0-1,0.4-1,1s0.4,1,1,1h2v2c0,0.6,0.4,1,1,1s1-0.4,1-1v-2h2c0.6,0,1-0.4,1-1S172.6,187,172,187z"/>
	<path style="opacity:0.9;fill:#FFFFFF;enable-background:new    ;" d="M215,126h-4v-4c0-1.1-0.9-2-2-2s-2,0.9-2,2v4h-4
		c-1.1,0-2,0.9-2,2s0.9,2,2,2h4v4c0,1.1,0.9,2,2,2s2-0.9,2-2v-4h4c1.1,0,2-0.9,2-2S216.1,126,215,126z"/>
	<path style="opacity:0.8;fill:#FFFFFF;enable-background:new    ;" d="M140,61h-2v-2c0-0.6-0.4-1-1-1s-1,0.4-1,1v2h-2
		c-0.6,0-1,0.4-1,1s0.4,1,1,1h2v2c0,0.6,0.4,1,1,1s1-0.4,1-1v-2h2c0.6,0,1-0.4,1-1S140.6,61,140,61z"/>
	<path style="fill:#FFFFFF;" d="M264,273h-6v-6c0-1.7-1.3-3-3-3s-3,1.3-3,3v6h-6c-1.7,0-3,1.3-3,3s1.3,3,3,3h6v6c0,1.7,1.3,3,3,3
		s3-1.3,3-3v-6h6c1.7,0,3-1.3,3-3S265.7,273,264,273z"/>
	<path style="opacity:0.8;fill:#FFFFFF;enable-background:new    ;" d="M132,147h-2v-2c0-0.6-0.4-1-1-1s-1,0.4-1,1v2h-2
		c-0.6,0-1,0.4-1,1s0.4,1,1,1h2v2c0,0.6,0.4,1,1,1s1-0.4,1-1v-2h2c0.6,0,1-0.4,1-1S132.6,147,132,147z"/>
	<path style="opacity:0.8;fill:#FFFFFF;enable-background:new    ;" d="M182,357h-2v-2c0-0.6-0.4-1-1-1s-1,0.4-1,1v2h-2
		c-0.6,0-1,0.4-1,1s0.4,1,1,1h2v2c0,0.6,0.4,1,1,1s1-0.4,1-1v-2h2c0.6,0,1-0.4,1-1S182.6,357,182,357z"/>
	<path style="opacity:0.9;fill:#FFFFFF;enable-background:new    ;" d="M123,208h-4v-4c0-1.1-0.9-2-2-2s-2,0.9-2,2v4h-4
		c-1.1,0-2,0.9-2,2s0.9,2,2,2h4v4c0,1.1,0.9,2,2,2s2-0.9,2-2v-4h4c1.1,0,2-0.9,2-2S124.1,208,123,208z"/>
	<path style="opacity:0.8;fill:#FFFFFF;enable-background:new    ;" d="M212,257h-2v-2c0-0.6-0.4-1-1-1s-1,0.4-1,1v2h-2
		c-0.6,0-1,0.4-1,1s0.4,1,1,1h2v2c0,0.6,0.4,1,1,1s1-0.4,1-1v-2h2c0.6,0,1-0.4,1-1S212.6,257,212,257z"/>
	<path style="opacity:0.8;fill:#FFFFFF;enable-background:new    ;" d="M302,287h-2v-2c0-0.6-0.4-1-1-1s-1,0.4-1,1v2h-2
		c-0.6,0-1,0.4-1,1s0.4,1,1,1h2v2c0,0.6,0.4,1,1,1s1-0.4,1-1v-2h2c0.6,0,1-0.4,1-1S302.6,287,302,287z"/>
	<path style="opacity:0.8;fill:#FFFFFF;enable-background:new    ;" d="M262,227h-2v-2c0-0.6-0.4-1-1-1s-1,0.4-1,1v2h-2
		c-0.6,0-1,0.4-1,1s0.4,1,1,1h2v2c0,0.6,0.4,1,1,1s1-0.4,1-1v-2h2c0.6,0,1-0.4,1-1S262.6,227,262,227z"/>
	<path style="opacity:0.8;fill:#FFFFFF;enable-background:new    ;" d="M272,167h-2v-2c0-0.6-0.4-1-1-1s-1,0.4-1,1v2h-2
		c-0.6,0-1,0.4-1,1s0.4,1,1,1h2v2c0,0.6,0.4,1,1,1s1-0.4,1-1v-2h2c0.6,0,1-0.4,1-1S272.6,167,272,167z"/>
	<path style="opacity:0.8;fill:#FFFFFF;enable-background:new    ;" d="M312,47h-2v-2c0-0.6-0.4-1-1-1s-1,0.4-1,1v2h-2
		c-0.6,0-1,0.4-1,1s0.4,1,1,1h2v2c0,0.6,0.4,1,1,1s1-0.4,1-1v-2h2c0.6,0,1-0.4,1-1S312.6,47,312,47z"/>
	<path style="opacity:0.8;fill:#FFFFFF;enable-background:new    ;" d="M192,27h-2v-2c0-0.6-0.4-1-1-1s-1,0.4-1,1v2h-2
		c-0.6,0-1,0.4-1,1s0.4,1,1,1h2v2c0,0.6,0.4,1,1,1s1-0.4,1-1v-2h2c0.6,0,1-0.4,1-1S192.6,27,192,27z"/>
	<path style="opacity:0.8;fill:#FFFFFF;enable-background:new    ;" d="M162,298h-2v-2c0-0.6-0.4-1-1-1s-1,0.4-1,1v2h-2
		c-0.6,0-1,0.4-1,1s0.4,1,1,1h2v2c0,0.6,0.4,1,1,1s1-0.4,1-1v-2h2c0.6,0,1-0.4,1-1S162.6,298,162,298z"/>
	<path style="opacity:0.8;fill:#FFFFFF;enable-background:new    ;" d="M32,187h-2v-2c0-0.6-0.4-1-1-1s-1,0.4-1,1v2h-2
		c-0.6,0-1,0.4-1,1s0.4,1,1,1h2v2c0,0.6,0.4,1,1,1s1-0.4,1-1v-2h2c0.6,0,1-0.4,1-1S32.6,187,32,187z"/>
	<path style="fill:#FFFFFF;" d="M390,141h-2v-2c0-0.6-0.4-1-1-1s-1,0.4-1,1v2h-2c-0.6,0-1,0.4-1,1s0.4,1,1,1h2v2c0,0.6,0.4,1,1,1
		s1-0.4,1-1v-2h2c0.6,0,1-0.4,1-1S390.6,141,390,141z"/>
	<path style="opacity:0.8;fill:#FFFFFF;enable-background:new    ;" d="M212,57h-2v-2c0-0.6-0.4-1-1-1s-1,0.4-1,1v2h-2
		c-0.6,0-1,0.4-1,1s0.4,1,1,1h2v2c0,0.6,0.4,1,1,1s1-0.4,1-1v-2h2c0.6,0,1-0.4,1-1S212.6,57,212,57z"/>
	<path style="opacity:0.8;fill:#FFFFFF;enable-background:new    ;" d="M262,367h-2v-2c0-0.6-0.4-1-1-1s-1,0.4-1,1v2h-2
		c-0.6,0-1,0.4-1,1s0.4,1,1,1h2v2c0,0.6,0.4,1,1,1s1-0.4,1-1v-2h2c0.6,0,1-0.4,1-1S262.6,367,262,367z"/>
	<path style="opacity:0.8;fill:#FFFFFF;enable-background:new    ;" d="M152,237h-2v-2c0-0.6-0.4-1-1-1s-1,0.4-1,1v2h-2
		c-0.6,0-1,0.4-1,1s0.4,1,1,1h2v2c0,0.6,0.4,1,1,1s1-0.4,1-1v-2h2c0.6,0,1-0.4,1-1S152.6,237,152,237z"/>
	<path style="opacity:0.8;fill:#FFFFFF;enable-background:new    ;" d="M212,327h-2v-2c0-0.6-0.4-1-1-1s-1,0.4-1,1v2h-2
		c-0.6,0-1,0.4-1,1s0.4,1,1,1h2v2c0,0.6,0.4,1,1,1s1-0.4,1-1v-2h2c0.6,0,1-0.4,1-1S212.6,327,212,327z"/>
	<path style="opacity:0.8;fill:#FFFFFF;enable-background:new    ;" d="M34,269h-2v-2c0-0.6-0.4-1-1-1s-1,0.4-1,1v2h-2
		c-0.6,0-1,0.4-1,1s0.4,1,1,1h2v2c0,0.6,0.4,1,1,1s1-0.4,1-1v-2h2c0.6,0,1-0.4,1-1S34.6,269,34,269z"/>
	<path style="opacity:0.8;fill:#FFFFFF;enable-background:new    ;" d="M162,117h-2v-2c0-0.6-0.4-1-1-1s-1,0.4-1,1v2h-2
		c-0.6,0-1,0.4-1,1s0.4,1,1,1h2v2c0,0.6,0.4,1,1,1s1-0.4,1-1v-2h2c0.6,0,1-0.4,1-1S162.6,117,162,117z"/>
	<path style="opacity:0.8;fill:#FFFFFF;enable-background:new    ;" d="M212,167h-2v-2c0-0.6-0.4-1-1-1s-1,0.4-1,1v2h-2
		c-0.6,0-1,0.4-1,1s0.4,1,1,1h2v2c0,0.6,0.4,1,1,1s1-0.4,1-1v-2h2c0.6,0,1-0.4,1-1S212.6,167,212,167z"/>
	<path style="opacity:0.8;fill:#FFFFFF;enable-background:new    ;" d="M284,113h-2v-2c0-0.6-0.4-1-1-1s-1,0.4-1,1v2h-2
		c-0.6,0-1,0.4-1,1s0.4,1,1,1h2v2c0,0.6,0.4,1,1,1s1-0.4,1-1v-2h2c0.6,0,1-0.4,1-1S284.6,113,284,113z"/>
	<path style="opacity:0.8;fill:#FFFFFF;enable-background:new    ;" d="M119,283h-2v-2c0-0.6-0.4-1-1-1s-1,0.4-1,1v2h-2
		c-0.6,0-1,0.4-1,1s0.4,1,1,1h2v2c0,0.6,0.4,1,1,1s1-0.4,1-1v-2h2c0.6,0,1-0.4,1-1S119.6,283,119,283z"/>
	<path style="opacity:0.8;fill:#FFFFFF;enable-background:new    ;" d="M127,104h-2v-2c0-0.6-0.4-1-1-1s-1,0.4-1,1v2h-2
		c-0.6,0-1,0.4-1,1s0.4,1,1,1h2v2c0,0.6,0.4,1,1,1s1-0.4,1-1v-2h2c0.6,0,1-0.4,1-1S127.6,104,127,104z"/>
	<path style="opacity:0.8;fill:#FFFFFF;enable-background:new    ;" d="M267,24h-2v-2c0-0.6-0.4-1-1-1s-1,0.4-1,1v2h-2
		c-0.6,0-1,0.4-1,1s0.4,1,1,1h2v2c0,0.6,0.4,1,1,1s1-0.4,1-1v-2h2c0.6,0,1-0.4,1-1S267.6,24,267,24z"/>
	<path style="opacity:0.8;fill:#FFFFFF;enable-background:new    ;" d="M232,217h-2v-2c0-0.6-0.4-1-1-1s-1,0.4-1,1v2h-2
		c-0.6,0-1,0.4-1,1s0.4,1,1,1h2v2c0,0.6,0.4,1,1,1s1-0.4,1-1v-2h2c0.6,0,1-0.4,1-1S232.6,217,232,217z"/>
	<path style="opacity:0.8;fill:#FFFFFF;enable-background:new    ;" d="M312,243h-2v-2c0-0.6-0.4-1-1-1s-1,0.4-1,1v2h-2
		c-0.6,0-1,0.4-1,1s0.4,1,1,1h2v2c0,0.6,0.4,1,1,1s1-0.4,1-1v-2h2c0.6,0,1-0.4,1-1S312.6,243,312,243z"/>
	<path style="opacity:0.8;fill:#FFFFFF;enable-background:new    ;" d="M359,305h-2v-2c0-0.6-0.4-1-1-1s-1,0.4-1,1v2h-2
		c-0.6,0-1,0.4-1,1s0.4,1,1,1h2v2c0,0.6,0.4,1,1,1s1-0.4,1-1v-2h2c0.6,0,1-0.4,1-1S359.6,305,359,305z"/>
	<path style="opacity:0.8;fill:#FFFFFF;enable-background:new    ;" d="M252,307h-2v-2c0-0.6-0.4-1-1-1s-1,0.4-1,1v2h-2
		c-0.6,0-1,0.4-1,1s0.4,1,1,1h2v2c0,0.6,0.4,1,1,1s1-0.4,1-1v-2h2c0.6,0,1-0.4,1-1S252.6,307,252,307z"/>
	<path style="opacity:0.8;fill:#FFFFFF;enable-background:new    ;" d="M72,193h-2v-2c0-0.6-0.4-1-1-1s-1,0.4-1,1v2h-2
		c-0.6,0-1,0.4-1,1s0.4,1,1,1h2v2c0,0.6,0.4,1,1,1s1-0.4,1-1v-2h2c0.6,0,1-0.4,1-1S72.6,193,72,193z"/>
</g>
</svg>
