<?xml version="1.0" encoding="utf-8"?>
<!-- Generator: Adobe Illustrator 19.2.0, SVG Export Plug-In . SVG Version: 6.00 Build 0)  -->
<svg version="1.1" id="Layer_1" xmlns="http://www.w3.org/2000/svg" xmlns:xlink="http://www.w3.org/1999/xlink" x="0px" y="0px"
	 viewBox="0 0 145 139" style="enable-background:new 0 0 145 139;" xml:space="preserve">
<title>Astronaute</title>
<desc>Created with Sketch.</desc>
<g id="Page-1">
	<g id="_x30_1---File-tree" transform="translate(-784.000000, -354.000000)">
		<g id="Welcome" transform="translate(467.000000, -57.000000)">
			<g id="BG">
				<g id="Astronaute" transform="translate(317.000000, 411.000000)">
					<path id="Fill-82" style="fill:#FFFFFF;" d="M20,60.6l6.3-4.5l30.8,43.3l-5.8,4.1c-2.6,1.8-6.1,1.4-8.2-1L18.4,73.1
						C15.2,69.3,15.9,63.5,20,60.6"/>
					<g id="Group-86" transform="translate(16.509690, 56.036058)">
						<g id="Clip-85">
						</g>
						<defs>
							<filter id="Adobe_OpacityMaskFilter" filterUnits="userSpaceOnUse" x="0.5" y="-7.8" width="45.4" height="66">
								<feColorMatrix  type="matrix" values="1 0 0 0 0  0 1 0 0 0  0 0 1 0 0  0 0 0 1 0"/>
							</filter>
						</defs>
						<mask maskUnits="userSpaceOnUse" x="0.5" y="-7.8" width="45.4" height="66" id="mask-2">
							<g style="filter:url(#Adobe_OpacityMaskFilter);">
								<path id="path-1" style="fill:#FFFFFF;" d="M0.5,8.4c0.6-1.5,1.6-2.8,3-3.8l6.3-4.5l30.8,43.3l-5.8,4.1
									c-2.6,1.8-6.1,1.4-8.2-1L1.9,17.1c-0.6-0.7-1.1-1.5-1.4-2.3V8.4L0.5,8.4z"/>
							</g>
						</mask>
						<path id="Fill-84" style="mask:url(#mask-2);fill:#E1E4E5;" d="M0.5,5.4c0,0,2.5,3.5,5.1,1.6C8.2,5.2,9.9,4,9.9,4l25.2,35.5
							c0,0,1.6,4.1-2.7,7.2c-4.3,3.1-11.6-3.5-11.6-3.5L38,58.2l7.8-14.7L8.1-7.8L0.5,5.4z"/>
					</g>
					<path id="Fill-87" style="fill:#E1E4E5;" d="M101.2,89.3L101.2,89.3c2.3-3.4,7-4.2,10.3-1.9l15.1,10.4c1.8,1.3,2.3,3.7,1,5.6
						l-3.9,5.7c-1.3,1.8-3.7,2.3-5.6,1l-15.1-10.4C99.8,97.3,98.9,92.7,101.2,89.3"/>
					<g id="Group-91" transform="translate(98.026866, 93.089319)">
						<g id="Clip-90">
						</g>
						<defs>
							<filter id="Adobe_OpacityMaskFilter_1_" filterUnits="userSpaceOnUse" x="-14.2" y="0.1" width="34.4" height="16.8">
								<feColorMatrix  type="matrix" values="1 0 0 0 0  0 1 0 0 0  0 0 1 0 0  0 0 0 1 0"/>
							</filter>
						</defs>
						<mask maskUnits="userSpaceOnUse" x="-14.2" y="0.1" width="34.4" height="16.8" id="mask-4">
							<g style="filter:url(#Adobe_OpacityMaskFilter_1_);">
								<path id="path-3" style="fill:#FFFFFF;" d="M0.7,0.1C0.2,1.8,0.8,3.6,2.3,4.6l17.9,12.3h0.1V0.1H0.7L0.7,0.1z"/>
							</g>
						</mask>
						<path id="Fill-89" style="mask:url(#mask-4);fill:#97A9AF;" d="M-10.2,0.1l13.3,2c0,0,6.2,0.3,11.4,5.5
							c5.2,5.2,6.6,7.1,5.4,9.1c-1.2,2-34-11.2-34-11.2L-10.2,0.1z"/>
					</g>
					<g id="Group-98" transform="translate(109.997920, 89.669018)">
						<path id="Fill-92" style="fill:#FFFFFF;" d="M20.7,3.7l0.3-0.4c-2,2.9-6,3.6-8.9,1.6L9.4,3.2C9,2.8,8.3,2.9,8,3.4L0.7,13.9
							c-0.3,0.5-0.2,1.1,0.3,1.5l7.9,5.4l7.9,5.4L25.2,14L33,2.7l-1.3-0.9C28.1-0.8,23.1,0.1,20.7,3.7"/>
						<path id="Fill-94" style="fill:#CCD3D6;" d="M18.8,27.1L34.5,4.3c0.2-0.2,0.1-0.5-0.1-0.7L33,2.7L16.7,26.3l1.3,0.9
							C18.3,27.3,18.6,27.3,18.8,27.1"/>
						<polygon id="Fill-96" style="fill:#CCD3D6;" points="12.1,5 3.6,17.2 1.9,16 10.3,3.8 						"/>
					</g>
					<g id="Group-101" transform="translate(109.997920, 93.089319)">
						<g id="Clip-100">
						</g>
						<defs>
							<filter id="Adobe_OpacityMaskFilter_2_" filterUnits="userSpaceOnUse" x="-26.1" y="0.1" width="34.4" height="16.8">
								<feColorMatrix  type="matrix" values="1 0 0 0 0  0 1 0 0 0  0 0 1 0 0  0 0 0 1 0"/>
							</filter>
						</defs>
						<mask maskUnits="userSpaceOnUse" x="-26.1" y="0.1" width="34.4" height="16.8" id="mask-6">
							<g style="filter:url(#Adobe_OpacityMaskFilter_2_);">
								<path id="path-5" style="fill:#FFFFFF;" d="M7.9,0.1L0.7,10.5C0.4,11,0.5,11.6,1,12l7.2,5h0.1V0.1H7.9L7.9,0.1z"/>
							</g>
						</mask>
						<path id="Fill-99" style="mask:url(#mask-6);fill:#97A9AF;" d="M-22.2,0.1l13.3,2c0,0,6.2,0.3,11.4,5.5
							c5.2,5.2,6.6,7.1,5.4,9.1c-1.2,2-34-11.2-34-11.2L-22.2,0.1z"/>
					</g>
					<g id="Group-106" transform="translate(71.804558, 85.678667)">
						<path id="Fill-102" style="fill:#E1E4E5;" d="M42.3,6.8L42.3,6.8c0.6,4.1-2.2,7.9-6.2,8.5l-9.5,1.5c-2.2,0.3-4.2-1.2-4.6-3.3
							l-1.1-6.8c-0.3-2.2,1.2-4.2,3.3-4.6l9.5-1.5C37.9,0,41.7,2.7,42.3,6.8"/>
						<path id="Fill-104" style="fill:#FFFFFF;" d="M28.1,1.6L30.4,16c0.1,0.7-0.3,1.3-1,1.4L6.7,20.9c-2.5,0.4-4.8-1.3-5.2-3.8
							L0.3,9.3c-0.4-2.5,1.3-4.8,3.8-5.2l22.7-3.5C27.4,0.5,28,0.9,28.1,1.6"/>
					</g>
					<g id="Group-109" transform="translate(92.326364, 93.089319)">
						<g id="Clip-108">
						</g>
						<defs>
							<filter id="Adobe_OpacityMaskFilter_3_" filterUnits="userSpaceOnUse" x="-8.5" y="0.1" width="34.4" height="16.8">
								<feColorMatrix  type="matrix" values="1 0 0 0 0  0 1 0 0 0  0 0 1 0 0  0 0 0 1 0"/>
							</filter>
						</defs>
						<mask maskUnits="userSpaceOnUse" x="-8.5" y="0.1" width="34.4" height="16.8" id="mask-8">
							<g style="filter:url(#Adobe_OpacityMaskFilter_3_);">
								<path id="path-7" style="fill:#FFFFFF;" d="M0.6,0.1L1.5,6C1.8,8.2,3.8,9.7,6,9.4l12.9-2C21.1,7,22.6,5,22.3,2.8l-0.4-2.7
									H0.6L0.6,0.1z"/>
							</g>
						</mask>
						<path id="Fill-107" style="mask:url(#mask-8);fill:#97A9AF;" d="M-4.5,0.1l13.3,2c0,0,6.2,0.3,11.4,5.5
							c5.2,5.2,6.6,7.1,5.4,9.1c-1.2,2-34-11.2-34-11.2L-4.5,0.1z"/>
					</g>
					<g id="Group-116" transform="translate(71.804558, 89.669018)">
						<g id="Group-112">
							<g id="Clip-111">
							</g>
							<defs>
								<filter id="Adobe_OpacityMaskFilter_4_" filterUnits="userSpaceOnUse" x="-1.3" y="0.2" width="32.4" height="19.1">
									<feColorMatrix  type="matrix" values="1 0 0 0 0  0 1 0 0 0  0 0 1 0 0  0 0 0 1 0"/>
								</filter>
							</defs>
							<mask maskUnits="userSpaceOnUse" x="-1.3" y="0.2" width="32.4" height="19.1" id="mask-10">
								<g style="filter:url(#Adobe_OpacityMaskFilter_4_);">
									<path id="path-9" style="fill:#FFFFFF;" d="M3.6,0.2C1.4,0.8-0.1,3,0.3,5.3l1.2,7.8c0.4,2.5,2.7,4.2,5.2,3.8l22.7-3.5
										c0.7-0.1,1.1-0.7,1-1.4L28.5,0.2H3.6L3.6,0.2z"/>
								</g>
							</mask>
							<path id="Fill-110" style="mask:url(#mask-10);fill:#E1E4E5;" d="M4,1.3c0,0-3.3,7.7,2.2,10.9C11.7,15.4,30,9.7,30,9.7l1,8.3
								L5.7,19.3l-7-9L2,0.2L4,1.3z"/>
						</g>
						<g id="Group-115" transform="translate(11.971054, 3.420301)">
							<g id="Clip-114">
							</g>
							<defs>
								<filter id="Adobe_OpacityMaskFilter_5_" filterUnits="userSpaceOnUse" x="0.1" y="0.1" width="34.4" height="16.8">
									<feColorMatrix  type="matrix" values="1 0 0 0 0  0 1 0 0 0  0 0 1 0 0  0 0 0 1 0"/>
								</filter>
							</defs>
							<mask maskUnits="userSpaceOnUse" x="0.1" y="0.1" width="34.4" height="16.8" id="mask-12">
								<g style="filter:url(#Adobe_OpacityMaskFilter_5_);">
									<path id="path-11" style="fill:#FFFFFF;" d="M0.1,12.7L17.4,10c0.7-0.1,1.1-0.7,1-1.4l-1.3-8.5h-17V12.7L0.1,12.7z"/>
								</g>
							</mask>
							<path id="Fill-113" style="mask:url(#mask-12);fill:#97A9AF;" d="M4,0.1l13.3,2c0,0,6.2,0.3,11.4,5.5
								c5.2,5.2,6.6,7.1,5.4,9.1c-1.2,2-34-11.2-34-11.2L4,0.1z"/>
						</g>
					</g>
					<path id="Fill-117" style="fill:#CCD3D6;" d="M60.8,104.7c4.9,6.9,14.5,8.6,21.5,3.6s8.6-14.5,3.6-21.5
						c-4.9-6.9-14.5-8.6-21.5-3.6S55.8,97.7,60.8,104.7"/>
					<g id="Group-121" transform="translate(59.263454, 83.968517)">
						<g id="Clip-120">
						</g>
						<defs>
							<filter id="Adobe_OpacityMaskFilter_6_" filterUnits="userSpaceOnUse" x="0" y="0.1" width="31.7" height="24.6">
								<feColorMatrix  type="matrix" values="1 0 0 0 0  0 1 0 0 0  0 0 1 0 0  0 0 0 1 0"/>
							</filter>
						</defs>
						<mask maskUnits="userSpaceOnUse" x="0" y="0.1" width="31.7" height="24.6" id="mask-14">
							<g style="filter:url(#Adobe_OpacityMaskFilter_6_);">
								<path id="path-13" style="fill:#FFFFFF;" d="M3.9,0.1C2.2,1.6,0.9,3.4,0,5.4v12.7c0.4,0.9,0.9,1.7,1.5,2.6
									c1.2,1.7,2.7,3,4.3,4.1h16.5c0.2-0.1,0.4-0.3,0.7-0.4c6.9-4.9,8.6-14.5,3.6-21.5c-0.7-1-1.6-1.9-2.5-2.7H3.9L3.9,0.1z"/>
							</g>
						</mask>
						<polygon id="Fill-119" style="mask:url(#mask-14);fill:#BAC7CC;" points="0,20.4 28.6,0.1 31.7,4.5 3.1,24.8 						"/>
					</g>
					<path id="Fill-122" style="fill:#FFFFFF;" d="M5.6,40.6C-2.7,29.1,0,13,11.6,4.8c11.6-8.2,27.6-5.5,35.9,6.1
						c8.2,11.6,5.5,27.6-6.1,35.9C29.9,54.9,13.8,52.2,5.6,40.6"/>
					<g id="Group-126" transform="translate(0.548285, 16.702595)">
						<g id="Clip-125">
						</g>
						<defs>
							<filter id="Adobe_OpacityMaskFilter_7_" filterUnits="userSpaceOnUse" x="-9.4" y="0" width="66.9" height="46.9">
								<feColorMatrix  type="matrix" values="1 0 0 0 0  0 1 0 0 0  0 0 1 0 0  0 0 0 1 0"/>
							</filter>
						</defs>
						<mask maskUnits="userSpaceOnUse" x="-9.4" y="0" width="66.9" height="46.9" id="mask-16">
							<g style="filter:url(#Adobe_OpacityMaskFilter_7_);">
								<path id="path-15" style="fill:#FFFFFF;" d="M1.9,0C-1,7.7-0.1,16.7,5,23.9c8.2,11.6,24.3,14.3,35.9,6.1
									c9.7-6.9,13.2-19.3,9.2-30L1.9,0L1.9,0z"/>
							</g>
						</mask>
						<path id="Fill-124" style="mask:url(#mask-16);fill:#E1E4E5;" d="M50.3,24c0,0-32.4,19.5-50-12.9s-6.1,16.1-6.1,16.1L17,47
							l40.5-21.1L50.3,24z"/>
					</g>
					<g id="Group-135" transform="translate(9.669088, 3.021391)">
						<path id="Fill-127" style="fill:#33454E;" d="M4.1,32.9c-6.6-9.3-4.5-22.3,4.9-29s22.3-4.5,29,4.9c6.6,9.3,4.5,22.3-4.9,29
							C23.7,44.4,10.7,42.2,4.1,32.9"/>
						<path id="Stroke-129" style="fill:none;stroke:#FFFFFF;stroke-width:2;stroke-linecap:round;" d="M31.5,6.8
							c1.4,1.1,2.7,2.4,3.8,3.9"/>
						<path id="Stroke-131" style="fill:none;stroke:#FFFFFF;stroke-width:2;stroke-linecap:round;" d="M10.8,6.5
							c4.4-3.1,9.7-3.9,14.5-2.7"/>
						<path id="Fill-133" style="fill:#FFFFFF;" d="M11.3,58.3l39.6-28.2c0.8-0.5,1-1.6,0.4-2.4l-1.7-2.4c-0.5-0.8-1.6-1-2.4-0.4
							L7.6,53.1c-0.8,0.5-1,1.6-0.4,2.4l1.7,2.4C9.4,58.6,10.5,58.8,11.3,58.3"/>
					</g>
					<g id="Group-138" transform="translate(16.509690, 32.664000)">
						<g id="Clip-137">
						</g>
						<defs>
							<filter id="Adobe_OpacityMaskFilter_8_" filterUnits="userSpaceOnUse" x="-4.3" y="0.1" width="47.6" height="33.4">
								<feColorMatrix  type="matrix" values="1 0 0 0 0  0 1 0 0 0  0 0 1 0 0  0 0 0 1 0"/>
							</filter>
						</defs>
						<mask maskUnits="userSpaceOnUse" x="-4.3" y="0.1" width="47.6" height="33.4" id="mask-18">
							<g style="filter:url(#Adobe_OpacityMaskFilter_8_);">
								<path id="path-17" style="fill:#FFFFFF;" d="M33.6,0.1L0.7,23.4C0,24-0.2,25,0.3,25.8L2,28.2c0.5,0.8,1.6,1,2.4,0.4L43.3,1
									V0.1H33.6L33.6,0.1z"/>
							</g>
						</mask>
						<path id="Fill-136" style="mask:url(#mask-18);fill:#E1E4E5;" d="M1.5,22.9c0,0,1.6,4.1,4.2,2.2C8.3,23.3,40.3,0.5,40.3,0.5
							s1.7-1.2,3,0.5S1.2,33.5,1.2,33.5l-5.5-7.8L1.5,22.9z"/>
					</g>
					<path id="Fill-139" style="fill:#FFFFFF;" d="M26.6,57.2l33.9,47.6l25.4-18.1c0,0-6.3-12.5-7.8-16.9
						c-4.9-14.2-10.7-32.1-22.6-33.2L26.6,57.2z"/>
					<g id="Group-149" transform="translate(25.978224, 36.166009)">
						<g id="Group-146" transform="translate(0.222320, 0.488343)">
							<g id="Clip-145">
							</g>
							<defs>
								<filter id="Adobe_OpacityMaskFilter_9_" filterUnits="userSpaceOnUse" x="-7.2" y="-5.9" width="40.1" height="34.3">
									<feColorMatrix  type="matrix" values="1 0 0 0 0  0 1 0 0 0  0 0 1 0 0  0 0 0 1 0"/>
								</filter>
							</defs>
							<mask maskUnits="userSpaceOnUse" x="-7.2" y="-5.9" width="40.1" height="34.3" id="mask-20">
								<g style="filter:url(#Adobe_OpacityMaskFilter_9_);">
									<path id="path-19" style="fill:#FFFFFF;" d="M6,28.5l-5.6-7.9L29.3,0.1c1.3,0.1,2.5,0.4,3.6,0.9v27.5H6L6,28.5z"/>
								</g>
							</mask>
							<path id="Fill-144" style="mask:url(#mask-20);fill:#CCD3D6;" d="M32.9,1c0,0-31.2,13.5-27.1,27.5l-13-15.5L30.3-5.9L32.9,1z
								"/>
						</g>
						<path id="Fill-147" style="fill:#E1E4E5;" d="M31.6,17.3l9.6-6.8c0.2-0.2,0.5-0.1,0.7,0.1l5.6,7.9c0.2,0.2,0.1,0.5-0.1,0.7
							L37.7,26c-0.2,0.2-0.5,0.1-0.7-0.1L31.5,18C31.3,17.8,31.4,17.5,31.6,17.3"/>
					</g>
					<g id="Group-170" transform="translate(33.041145, 15.562495)">
						<path id="Fill-150" style="fill:#FFFFFF;" d="M25.4,37.3l9.6-6.8c0.2-0.2,0.5-0.1,0.7,0.1l5,7c0.2,0.2,0.1,0.5-0.1,0.7
							l-9.6,6.8c-0.2,0.2-0.5,0.1-0.7-0.1l-5-7C25.1,37.8,25.2,37.5,25.4,37.3"/>
						<path id="Fill-152" style="fill:#5DE6F9;" d="M43.9,0.4l20.3,9c0.6,0.3,0.9,0.9,0.8,1.6l-6.2,28.9c-0.1,0.6-0.8,0.9-1.3,0.7
							l-20.6-9.2c-0.4-0.2-0.6-0.6-0.5-1L42.7,1C42.8,0.4,43.4,0.1,43.9,0.4"/>
						<polygon id="Fill-154" style="fill:#EFEFEF;" points="42.6,1.3 63.8,9.6 57.1,40.7 35.9,32.4 						"/>
						<polygon id="Fill-156" style="fill:#F9F9F9;" points="41.6,2.6 63.8,9.6 57.1,40.7 34.9,33.7 						"/>
						<polygon id="Fill-158" style="fill:#FFFFFF;" points="40.6,3.9 63.8,9.6 57.1,40.7 33.9,35 						"/>
						<path id="Fill-160" style="fill:#5DE6F9;" d="M56.4,40.5l-23.1-4.9c-0.5-0.1-0.9-0.6-0.8-1.2l6.2-29.2
							c0.1-0.5,0.6-0.9,1.2-0.8l23.1,4.9L56.4,40.5z"/>
						<path id="Fill-162" style="fill:#5DE6F9;" d="M57.7,40.8l-1.3-0.3l6.7-31.1l1.3,0.3c0.5,0.1,0.8,0.6,0.7,1l-6.3,29.4
							C58.6,40.6,58.1,40.9,57.7,40.8"/>
						<polygon id="Fill-164" style="fill:#437DD2;" points="56.4,40.5 57.1,40.7 63.8,9.6 63.1,9.4 						"/>
						<path id="Fill-166" style="fill:#BAC7CC;" d="M47.3,24.6l1-0.1c0.3,0,0.6,0.2,0.6,0.5l0.3,5.8L47.1,31l-0.3-5.8
							C46.8,24.9,47,24.6,47.3,24.6"/>
						<path id="Fill-168" style="fill:#FFFFFF;" d="M34.3,52.5c-1.1,0.8-2.5,1.1-3.8,0.8L4,47.3c-2.6-0.6-4.2-3.1-3.6-5.7
							C1,39,3.6,37.4,6.1,37.9l24,5.4l20.6-18.2c2-1.7,5-1.6,6.7,0.4c1.8,2,1.6,5-0.4,6.7L34.7,52.2C34.5,52.3,34.4,52.4,34.3,52.5"
							/>
					</g>
					<g id="Group-195" transform="translate(33.041145, 39.504602)">
						<g id="Group-173" transform="translate(0.000000, 14.251255)">
							<g id="Clip-172">
							</g>
							<defs>
								<filter id="Adobe_OpacityMaskFilter_10_" filterUnits="userSpaceOnUse" x="-3.3" y="0.4" width="32.2" height="17.9">
									<feColorMatrix  type="matrix" values="1 0 0 0 0  0 1 0 0 0  0 0 1 0 0  0 0 0 1 0"/>
								</filter>
							</defs>
							<mask maskUnits="userSpaceOnUse" x="-3.3" y="0.4" width="32.2" height="17.9" id="mask-22">
								<g style="filter:url(#Adobe_OpacityMaskFilter_10_);">
									<path id="path-21" style="fill:#FFFFFF;" d="M28.8,14.7L4,9.1C1.5,8.5-0.2,5.9,0.4,3.4c0.3-1.3,1.1-2.3,2.1-3h6.3l20,4.5
										V14.7L28.8,14.7z"/>
								</g>
							</mask>
							<path id="Fill-171" style="mask:url(#mask-22);fill:#E1E4E5;" d="M2.5,0.4c0,0-0.1,0.1-0.1,0.4C2.1,1.9,1.3,5.5,4.2,6.2
								c3.5,0.9,24.6,5.5,24.6,5.5l-0.2,6.6L1.4,12.9l-4.7-8.4"/>
						</g>
						<g id="Group-176" transform="translate(34.773061, 0.570050)">
							<g id="Clip-175">
							</g>
							<defs>
								<filter id="Adobe_OpacityMaskFilter_11_" filterUnits="userSpaceOnUse" x="0.1" y="0.4" width="29" height="30.9">
									<feColorMatrix  type="matrix" values="1 0 0 0 0  0 1 0 0 0  0 0 1 0 0  0 0 0 1 0"/>
								</filter>
							</defs>
							<mask maskUnits="userSpaceOnUse" x="0.1" y="0.4" width="29" height="30.9" id="mask-24">
								<g style="filter:url(#Adobe_OpacityMaskFilter_11_);">
									<path id="path-23" style="fill:#FFFFFF;" d="M0.1,14.7L16,0.7c0.1-0.1,0.2-0.2,0.3-0.3H22c0.3,0.2,0.5,0.4,0.7,0.7
										c1.8,2,1.6,5-0.4,6.7L0.1,27.5V14.7L0.1,14.7z"/>
								</g>
							</mask>
							<path id="Fill-174" style="mask:url(#mask-24);fill:#E1E4E5;" d="M22.3,0.4c0,0,2.4,2.5-2.1,7.1c-4.6,4.6-20,16.8-20,16.8
								l3,7l26-27.6L22.3,0.4z"/>
						</g>
						<g id="Group-179" transform="translate(28.502509, 18.241606)">
							<g id="Clip-178">
							</g>
							<defs>
								<filter id="Adobe_OpacityMaskFilter_12_" filterUnits="userSpaceOnUse" x="0.2" y="0.2" width="9.4" height="14.1">
									<feColorMatrix  type="matrix" values="1 0 0 0 0  0 1 0 0 0  0 0 1 0 0  0 0 0 1 0"/>
								</filter>
							</defs>
							<mask maskUnits="userSpaceOnUse" x="0.2" y="0.2" width="9.4" height="14.1" id="mask-26">
								<g style="filter:url(#Adobe_OpacityMaskFilter_12_);">
									<path id="path-25" style="fill:#FFFFFF;" d="M2.8,0.2l-1.1,1L0.2,0.9v9.8l1.7,0.4c1.3,0.3,2.7,0,3.8-0.8
										C5.9,10.2,6,10.1,6.2,10l3.5-3.1V0.2H2.8L2.8,0.2z"/>
								</g>
							</mask>
							<polygon id="Fill-177" style="mask:url(#mask-26);fill:#E1E4E5;" points="0.6,1 0.2,10.7 4.7,14.3 9.7,12.1 2.5,0.2 							
								"/>
						</g>
						<g id="Group-182" transform="translate(29.642609, 18.811656)">
							<g id="Clip-181">
							</g>
							<defs>
								<filter id="Adobe_OpacityMaskFilter_13_" filterUnits="userSpaceOnUse" x="-0.4" y="-0.5" width="1.5" height="12.1">
									<feColorMatrix  type="matrix" values="1 0 0 0 0  0 1 0 0 0  0 0 1 0 0  0 0 0 1 0"/>
								</filter>
							</defs>
							<mask maskUnits="userSpaceOnUse" x="-0.4" y="-0.5" width="1.5" height="12.1" id="mask-28">
								<g style="filter:url(#Adobe_OpacityMaskFilter_13_);">
									<polygon id="path-27" style="fill:#FFFFFF;" points="0.7,10.5 0.1,10.3 0.1,0.5 0.5,0.6 0.7,0.5 									"/>
								</g>
							</mask>
							<path id="Stroke-180" style="mask:url(#mask-28);fill:none;stroke:#CCD3D6;" d="M0.6-0.5L0.1,11.6"/>
						</g>
						<g id="Group-185" transform="translate(28.502509, 16.531455)">
							<g id="Clip-184">
							</g>
							<defs>
								<filter id="Adobe_OpacityMaskFilter_14_" filterUnits="userSpaceOnUse" x="0.1" y="-0.2" width="8.6" height="13.3">
									<feColorMatrix  type="matrix" values="1 0 0 0 0  0 1 0 0 0  0 0 1 0 0  0 0 0 1 0"/>
								</filter>
							</defs>
							<mask maskUnits="userSpaceOnUse" x="0.1" y="-0.2" width="8.6" height="13.3" id="mask-30">
								<g style="filter:url(#Adobe_OpacityMaskFilter_14_);">
									<path id="path-29" style="fill:#FFFFFF;" d="M8.3,9.8l-2.1,1.9C6,11.8,5.9,11.9,5.8,12c-0.6,0.4-1.2,0.7-1.9,0.8H2.2
										c-0.1,0-0.1,0-0.2,0l-1.4-0.3V2.7l1.1,0.3l3.2-2.8h3.4V9.8L8.3,9.8z"/>
								</g>
							</mask>
							<path id="Stroke-183" style="mask:url(#mask-30);fill:none;stroke:#CCD3D6;" d="M0.6,0.1l7.8,12.7"/>
						</g>
						<g id="Group-188" transform="translate(28.502509, 16.531455)">
							<g id="Clip-187">
							</g>
							<defs>
								<filter id="Adobe_OpacityMaskFilter_15_" filterUnits="userSpaceOnUse" x="-0.2" y="-7.7" width="5.3" height="24.5">
									<feColorMatrix  type="matrix" values="1 0 0 0 0  0 1 0 0 0  0 0 1 0 0  0 0 0 1 0"/>
								</filter>
							</defs>
							<mask maskUnits="userSpaceOnUse" x="-0.2" y="-7.7" width="5.3" height="24.5" id="mask-32">
								<g style="filter:url(#Adobe_OpacityMaskFilter_15_);">
									<path id="path-31" style="fill:#FFFFFF;" d="M4.6,12.6c-0.8,0.3-1.8,0.4-2.6,0.2l-1.6-0.4V2.6l1.3,0.3l2.9-2.6V12.6z"/>
								</g>
							</mask>
							<path id="Stroke-186" style="mask:url(#mask-32);fill:none;stroke:#CCD3D6;" d="M0.3-7.6l4.3,24.3"/>
						</g>
						<g id="Group-191" transform="translate(42.753764, 0.000000)">
							<g id="Clip-190">
							</g>
							<defs>
								<filter id="Adobe_OpacityMaskFilter_16_" filterUnits="userSpaceOnUse" x="0.5" y="-5.3" width="22.6" height="19.3">
									<feColorMatrix  type="matrix" values="1 0 0 0 0  0 1 0 0 0  0 0 1 0 0  0 0 0 1 0"/>
								</filter>
							</defs>
							<mask maskUnits="userSpaceOnUse" x="0.5" y="-5.3" width="22.6" height="19.3" id="mask-34">
								<g style="filter:url(#Adobe_OpacityMaskFilter_16_);">
									<path id="path-33" style="fill:#FFFFFF;" d="M0.5,7.8L8,1.2C8.9,0.4,10,0,11.2,0c1.3,0,2.6,0.5,3.6,1.6
										c1.8,2,1.6,5-0.4,6.7L8,14H0.5V7.8L0.5,7.8z"/>
								</g>
							</mask>
							<polygon id="Fill-189" style="mask:url(#mask-34);fill:#CCD3D6;" points="0.5,4.5 11.1,14 23.1,1.5 14.4,-5.3 							"/>
						</g>
						<g id="Group-194" transform="translate(50.734466, 0.570050)">
							<g id="Clip-193">
							</g>
							<defs>
								<filter id="Adobe_OpacityMaskFilter_17_" filterUnits="userSpaceOnUse" x="0.4" y="0.4" width="12.4" height="13">
									<feColorMatrix  type="matrix" values="1 0 0 0 0  0 1 0 0 0  0 0 1 0 0  0 0 0 1 0"/>
								</filter>
							</defs>
							<mask maskUnits="userSpaceOnUse" x="0.4" y="0.4" width="12.4" height="13" id="mask-36">
								<g style="filter:url(#Adobe_OpacityMaskFilter_17_);">
									<path id="path-35" style="fill:#FFFFFF;" d="M0.4,13.1l6-5.3c2-1.8,2.2-4.8,0.4-6.7C6.5,0.8,6.3,0.6,6,0.4H0.4V13.1
										L0.4,13.1z"/>
								</g>
							</mask>
							<path id="Fill-192" style="mask:url(#mask-36);fill:#BAC7CC;" d="M3.2,13.4l9.6-9.9L6.3,0.4c0,0,2.4,2.5-2.1,7.1
								c-0.9,0.9-2.2,2.1-3.8,3.5L3.2,13.4z"/>
						</g>
					</g>
					<g id="Group-208" transform="translate(71.234508, 91.949219)">
						<path id="Fill-196" style="fill:#E1E4E5;" d="M31.2,10.4L31.2,10.4c3.5-2.1,8.1-1,10.2,2.5l9.4,15.7c1.1,1.9,0.5,4.3-1.4,5.5
							l-5.9,3.6c-1.9,1.1-4.3,0.5-5.5-1.4l-9.4-15.7C26.5,17.1,27.7,12.5,31.2,10.4"/>
						<path id="Fill-198" style="fill:#FFFFFF;" d="M56.3,26.3l0.4-0.3c-3,1.8-6.9,0.8-8.7-2.2l-1.7-2.7c-0.3-0.5-0.9-0.7-1.4-0.4
							l-11,6.6c-0.5,0.3-0.7,0.9-0.4,1.4l4.9,8.2l4.9,8.2l12.7-7.7L68,30.4L67.2,29C64.9,25.2,60,24,56.3,26.3"/>
						<path id="Fill-200" style="fill:#CCD3D6;" d="M45,46.7l23.7-14.3c0.2-0.1,0.3-0.5,0.2-0.7L68,30.4L43.4,45.2l0.8,1.4
							C44.4,46.8,44.7,46.9,45,46.7"/>
						<polygon id="Fill-202" style="fill:#CCD3D6;" points="48,23.9 35.2,31.5 34.1,29.7 46.9,22 						"/>
						<path id="Fill-204" style="fill:#E1E4E5;" d="M41.6,18.6L41.6,18.6c-1.1,4-5.2,6.3-9.2,5.2l-9.3-2.6c-2.1-0.6-3.4-2.8-2.8-4.9
							l1.9-6.6c0.6-2.1,2.8-3.4,4.9-2.8l9.3,2.6C40.4,10.5,42.7,14.6,41.6,18.6"/>
						<path id="Fill-206" style="fill:#FFFFFF;" d="M30.8,8l-3.9,14.1c-0.2,0.6-0.8,1-1.5,0.8L3.3,16.8c-2.4-0.7-3.8-3.2-3.2-5.6
							l2.1-7.6C3,1.1,5.5-0.3,7.9,0.4L30,6.5C30.6,6.7,31,7.4,30.8,8"/>
					</g>
					<g id="Group-211" transform="translate(71.234508, 91.949219)">
						<g id="Clip-210">
						</g>
						<defs>
							<filter id="Adobe_OpacityMaskFilter_18_" filterUnits="userSpaceOnUse" x="-1.2" y="-0.4" width="28.7" height="28.2">
								<feColorMatrix  type="matrix" values="1 0 0 0 0  0 1 0 0 0  0 0 1 0 0  0 0 0 1 0"/>
							</filter>
						</defs>
						<mask maskUnits="userSpaceOnUse" x="-1.2" y="-0.4" width="28.7" height="28.2" id="mask-38">
							<g style="filter:url(#Adobe_OpacityMaskFilter_18_);">
								<path id="path-37" style="fill:#FFFFFF;" d="M27.5,19.8l-0.6,2.3c-0.2,0.6-0.8,1-1.5,0.8L3.3,16.8c-2.4-0.7-3.8-3.2-3.2-5.6
									l2.1-7.6c0.6-2,2.4-3.3,4.4-3.3c0.4,0,0.8,0.1,1.2,0.2l19.6,5.5V19.8L27.5,19.8z"/>
							</g>
						</mask>
						<path id="Fill-209" style="mask:url(#mask-38);fill:#E1E4E5;" d="M7.3,1.4c0,0-6.2,5.7-2.5,10.8c3.7,5.2,22.7,7.6,22.7,7.6
							l-2.5,8L1.5,18.5L-1.2,7.4L6-0.4L7.3,1.4z"/>
					</g>
				</g>
			</g>
		</g>
	</g>
</g>
</svg>
