<?xml version="1.0" encoding="UTF-8"?>
<svg width="264px" height="153px" viewBox="0 0 264 153" version="1.1" xmlns="http://www.w3.org/2000/svg" xmlns:xlink="http://www.w3.org/1999/xlink">
    <!-- Generator: Sketch 46.2 (44496) - http://www.bohemiancoding.com/sketch -->
    <title>Group 75</title>
    <desc>Created with Sketch.</desc>
    <defs></defs>
    <g id="Page-1" stroke="none" stroke-width="1" fill="none" fill-rule="evenodd">
        <g id="Desktop-HD" transform="translate(-468.000000, -121.000000)">
            <g id="Home" transform="translate(-69.000000, 0.000000)">
                <g id="logo" transform="translate(537.000000, 121.000000)">
                    <g id="avatar">
                        <g id="Group-75">
                            <path d="M190.493171,70 L166.506829,70 C162.9132,70 160,72.9101429 160,76.5 C160,80.0898571 162.9132,83 166.506829,83 L190.493171,83 C194.0868,83 197,80.0898571 197,76.5 C197,72.9101429 194.0868,70 190.493171,70" id="Fill-1" fill="#1E2429" opacity="0"></path>
                            <path d="M164.923077,119 L147.076923,119 C145.377846,119 144,120.3434 144,122 C144,123.6566 145.377846,125 147.076923,125 L164.923077,125 C166.622154,125 168,123.6566 168,122 C168,120.3434 166.622154,119 164.923077,119" id="Fill-3" fill="#1E2429" opacity="0"></path>
                            <path d="M79.8965517,59 L68.1034483,59 C66.3897241,59 65,60.3431 65,62 C65,63.6569 66.3897241,65 68.1034483,65 L79.8965517,65 C81.6102759,65 83,63.6569 83,62 C83,60.3431 81.6102759,59 79.8965517,59" id="Fill-7" fill="#1E2429" opacity="0"></path>
                            <path d="M67.8965517,89 L65.1034483,89 C63.3897241,89 62,90.3431 62,92 C62,93.6569 63.3897241,95 65.1034483,95 L67.8965517,95 C69.6102759,95 71,93.6569 71,92 C71,90.3431 69.6102759,89 67.8965517,89" id="Fill-9" fill="#1E2429" opacity="0"></path>
                            <path d="M167.896552,39 L160.137931,39 L156.103448,39 C154.389724,39 153,40.3431 153,42 C153,43.6569 154.389724,45 156.103448,45 L167.896552,45 C169.610276,45 171,43.6569 171,42 C171,40.3431 169.610276,39 167.896552,39" id="Fill-13" fill="#1E2429" opacity="0"></path>
                            <path d="M93.1395349,82.3333333 L91.124031,82.3333333 C89.7541085,82.3333333 88.6434109,81.2388333 88.6434109,79.8888889 C88.6434109,78.5389444 89.7541085,77.4444444 91.124031,77.4444444 L91.8992248,77.4444444 C92.584186,77.4444444 93.1395349,76.8971944 93.1395349,76.2222222 C93.1395349,75.54725 92.584186,75 91.8992248,75 L86.9379845,75 C86.2530233,75 85.6976744,75.54725 85.6976744,76.2222222 C85.6976744,76.8971944 85.1423256,77.4444444 84.4573643,77.4444444 L77.4806202,77.4444444 C76.1106977,77.4444444 75,78.5389444 75,79.8888889 C75,81.2388333 76.1106977,82.3333333 77.4806202,82.3333333 L81.9767442,82.3333333 C83.004031,82.3333333 83.8372093,83.1540556 83.8372093,84.1666667 C83.8372093,85.1789722 84.6703876,86 85.6976744,86 L93.1395349,86 C94.1668217,86 95,85.1789722 95,84.1666667 C95,83.1540556 94.1668217,82.3333333 93.1395349,82.3333333" id="Fill-15" fill="#FFFFFF"></path>
                            <path d="M141.466667,76.0769231 C140.592033,76.0769231 139.883333,75.388 139.883333,74.5384615 C139.883333,73.6889231 139.174633,73 138.3,73 L132.6,73 C131.725367,73 131.016667,73.6889231 131.016667,74.5384615 C131.016667,75.388 130.307967,76.0769231 129.433333,76.0769231 L127.533333,76.0769231 C126.1343,76.0769231 125,77.1790769 125,78.5384615 C125,79.8978462 126.1343,81 127.533333,81 L141.466667,81 C142.8657,81 144,79.8978462 144,78.5384615 C144,77.1790769 142.8657,76.0769231 141.466667,76.0769231" id="Fill-17" fill="#FFFFFF"></path>
                            <path d="M170.153846,60.3333333 L170.307692,60.3333333 C168.948308,60.3333333 167.846154,59.2388333 167.846154,57.8888889 C167.846154,56.5389444 166.744,55.4444444 165.384615,55.4444444 L160.615385,55.4444444 C159.935692,55.4444444 159.384615,54.8971944 159.384615,54.2222222 C159.384615,53.54725 158.833538,53 158.153846,53 L155.384615,53 C154.704923,53 154.153846,53.54725 154.153846,54.2222222 C154.153846,54.8971944 153.602769,55.4444444 152.923077,55.4444444 L152.461538,55.4444444 C151.102154,55.4444444 150,56.5389444 150,57.8888889 C150,59.2388333 151.102154,60.3333333 152.461538,60.3333333 L154.461538,60.3333333 C155.480923,60.3333333 156.307692,61.1540556 156.307692,62.1666667 C156.307692,63.1789722 157.134462,64 158.153846,64 L170.153846,64 C171.173231,64 172,63.1789722 172,62.1666667 C172,61.1540556 171.173231,60.3333333 170.153846,60.3333333" id="Fill-19" fill="#FFFFFF"></path>
                            <path d="M175.75,43.125 L175.25,43.125 L175.25,42.375 C175.25,42.168 175.13825,42 175,42 C174.86175,42 174.75,42.168 174.75,42.375 L174.75,43.125 L174.25,43.125 C174.11175,43.125 174,43.293 174,43.5 C174,43.707 174.11175,43.875 174.25,43.875 L174.75,43.875 L174.75,44.625 C174.75,44.832 174.86175,45 175,45 C175.13825,45 175.25,44.832 175.25,44.625 L175.25,43.875 L175.75,43.875 C175.88825,43.875 176,43.707 176,43.5 C176,43.293 175.88825,43.125 175.75,43.125" id="Fill-21" fill="#FFFFFF"></path>
                            <path d="M21.75,54.125 L21.25,54.125 L21.25,53.375 C21.25,53.168 21.13825,53 21,53 C20.86175,53 20.75,53.168 20.75,53.375 L20.75,54.125 L20.25,54.125 C20.11175,54.125 20,54.293 20,54.5 C20,54.707 20.11175,54.875 20.25,54.875 L20.75,54.875 L20.75,55.625 C20.75,55.832 20.86175,56 21,56 C21.13825,56 21.25,55.832 21.25,55.625 L21.25,54.875 L21.75,54.875 C21.88825,54.875 22,54.707 22,54.5 C22,54.293 21.88825,54.125 21.75,54.125" id="Fill-23" fill="#FFFFFF"></path>
                            <path d="M101.75,31.125 L101.25,31.125 L101.25,30.375 C101.25,30.168 101.13825,30 101,30 C100.86175,30 100.75,30.168 100.75,30.375 L100.75,31.125 L100.25,31.125 C100.11175,31.125 100,31.293 100,31.5 C100,31.707 100.11175,31.875 100.25,31.875 L100.75,31.875 L100.75,32.625 C100.75,32.832 100.86175,33 101,33 C101.13825,33 101.25,32.832 101.25,32.625 L101.25,31.875 L101.75,31.875 C101.88825,31.875 102,31.707 102,31.5 C102,31.293 101.88825,31.125 101.75,31.125" id="Fill-25" fill="#FFFFFF"></path>
                            <path d="M82.75,64.125 L82.25,64.125 L82.25,63.375 C82.25,63.168 82.13825,63 82,63 C81.86175,63 81.75,63.168 81.75,63.375 L81.75,64.125 L81.25,64.125 C81.11175,64.125 81,64.293 81,64.5 C81,64.707 81.11175,64.875 81.25,64.875 L81.75,64.875 L81.75,65.625 C81.75,65.832 81.86175,66 82,66 C82.13825,66 82.25,65.832 82.25,65.625 L82.25,64.875 L82.75,64.875 C82.88825,64.875 83,64.707 83,64.5 C83,64.293 82.88825,64.125 82.75,64.125" id="Fill-27" fill="#FFFFFF"></path>
                            <path d="M62.75,53.125 L62.25,53.125 L62.25,52.375 C62.25,52.168 62.13825,52 62,52 C61.86175,52 61.75,52.168 61.75,52.375 L61.75,53.125 L61.25,53.125 C61.11175,53.125 61,53.293 61,53.5 C61,53.707 61.11175,53.875 61.25,53.875 L61.75,53.875 L61.75,54.625 C61.75,54.832 61.86175,55 62,55 C62.13825,55 62.25,54.832 62.25,54.625 L62.25,53.875 L62.75,53.875 C62.88825,53.875 63,53.707 63,53.5 C63,53.293 62.88825,53.125 62.75,53.125" id="Fill-29" fill="#FFFFFF"></path>
                            <path d="M97.75,83.125 L97.25,83.125 L97.25,82.375 C97.25,82.168 97.13825,82 97,82 C96.86175,82 96.75,82.168 96.75,82.375 L96.75,83.125 L96.25,83.125 C96.11175,83.125 96,83.293 96,83.5 C96,83.707 96.11175,83.875 96.25,83.875 L96.75,83.875 L96.75,84.625 C96.75,84.832 96.86175,85 97,85 C97.13825,85 97.25,84.832 97.25,84.625 L97.25,83.875 L97.75,83.875 C97.88825,83.875 98,83.707 98,83.5 C98,83.293 97.88825,83.125 97.75,83.125" id="Fill-31" fill="#FFFFFF"></path>
                            <path d="M263.75,28.125 L263.25,28.125 L263.25,27.375 C263.25,27.168 263.13825,27 263,27 C262.86175,27 262.75,27.168 262.75,27.375 L262.75,28.125 L262.25,28.125 C262.11175,28.125 262,28.293 262,28.5 C262,28.707 262.11175,28.875 262.25,28.875 L262.75,28.875 L262.75,29.625 C262.75,29.832 262.86175,30 263,30 C263.13825,30 263.25,29.832 263.25,29.625 L263.25,28.875 L263.75,28.875 C263.88825,28.875 264,28.707 264,28.5 C264,28.293 263.88825,28.125 263.75,28.125" id="Fill-33" fill="#FFFFFF"></path>
                            <path d="M135.75,58.125 L135.25,58.125 L135.25,57.375 C135.25,57.168 135.13825,57 135,57 C134.86175,57 134.75,57.168 134.75,57.375 L134.75,58.125 L134.25,58.125 C134.11175,58.125 134,58.293 134,58.5 C134,58.707 134.11175,58.875 134.25,58.875 L134.75,58.875 L134.75,59.625 C134.75,59.832 134.86175,60 135,60 C135.13825,60 135.25,59.832 135.25,59.625 L135.25,58.875 L135.75,58.875 C135.88825,58.875 136,58.707 136,58.5 C136,58.293 135.88825,58.125 135.75,58.125" id="Fill-35" fill="#FFFFFF"></path>
                            <path d="M122.75,53.125 L122.25,53.125 L122.25,52.375 C122.25,52.168 122.13825,52 122,52 C121.86175,52 121.75,52.168 121.75,52.375 L121.75,53.125 L121.25,53.125 C121.11175,53.125 121,53.293 121,53.5 C121,53.707 121.11175,53.875 121.25,53.875 L121.75,53.875 L121.75,54.625 C121.75,54.832 121.86175,55 122,55 C122.13825,55 122.25,54.832 122.25,54.625 L122.25,53.875 L122.75,53.875 C122.88825,53.875 123,53.707 123,53.5 C123,53.293 122.88825,53.125 122.75,53.125" id="Fill-37" fill="#FFFFFF"></path>
                            <path d="M145.75,48.125 L145.25,48.125 L145.25,47.375 C145.25,47.168 145.13825,47 145,47 C144.86175,47 144.75,47.168 144.75,47.375 L144.75,48.125 L144.25,48.125 C144.11175,48.125 144,48.293 144,48.5 C144,48.707 144.11175,48.875 144.25,48.875 L144.75,48.875 L144.75,49.625 C144.75,49.832 144.86175,50 145,50 C145.13825,50 145.25,49.832 145.25,49.625 L145.25,48.875 L145.75,48.875 C145.88825,48.875 146,48.707 146,48.5 C146,48.293 145.88825,48.125 145.75,48.125" id="Fill-39" fill="#FFFFFF"></path>
                            <path d="M129.75,1.125 L129.25,1.125 L129.25,0.375 C129.25,0.168 129.13825,0 129,0 C128.86175,0 128.75,0.168 128.75,0.375 L128.75,1.125 L128.25,1.125 C128.11175,1.125 128,1.293 128,1.5 C128,1.707 128.11175,1.875 128.25,1.875 L128.75,1.875 L128.75,2.625 C128.75,2.832 128.86175,3 129,3 C129.13825,3 129.25,2.832 129.25,2.625 L129.25,1.875 L129.75,1.875 C129.88825,1.875 130,1.707 130,1.5 C130,1.293 129.88825,1.125 129.75,1.125" id="Fill-41" fill="#FFFFFF"></path>
                            <path d="M103.75,34.125 L103.25,34.125 L103.25,33.375 C103.25,33.168 103.13825,33 103,33 C102.86175,33 102.75,33.168 102.75,33.375 L102.75,34.125 L102.25,34.125 C102.11175,34.125 102,34.293 102,34.5 C102,34.707 102.11175,34.875 102.25,34.875 L102.75,34.875 L102.75,35.625 C102.75,35.832 102.86175,36 103,36 C103.13825,36 103.25,35.832 103.25,35.625 L103.25,34.875 L103.75,34.875 C103.88825,34.875 104,34.707 104,34.5 C104,34.293 103.88825,34.125 103.75,34.125" id="Fill-43" fill="#FFFFFF"></path>
                            <path d="M110.75,58.125 L110.25,58.125 L110.25,57.375 C110.25,57.168 110.13825,57 110,57 C109.86175,57 109.75,57.168 109.75,57.375 L109.75,58.125 L109.25,58.125 C109.11175,58.125 109,58.293 109,58.5 C109,58.707 109.11175,58.875 109.25,58.875 L109.75,58.875 L109.75,59.625 C109.75,59.832 109.86175,60 110,60 C110.13825,60 110.25,59.832 110.25,59.625 L110.25,58.875 L110.75,58.875 C110.88825,58.875 111,58.707 111,58.5 C111,58.293 110.88825,58.125 110.75,58.125" id="Fill-45" fill="#FFFFFF"></path>
                            <path d="M169.75,70.125 L169.25,70.125 L169.25,69.375 C169.25,69.168 169.13825,69 169,69 C168.86175,69 168.75,69.168 168.75,69.375 L168.75,70.125 L168.25,70.125 C168.11175,70.125 168,70.293 168,70.5 C168,70.707 168.11175,70.875 168.25,70.875 L168.75,70.875 L168.75,71.625 C168.75,71.832 168.86175,72 169,72 C169.13825,72 169.25,71.832 169.25,71.625 L169.25,70.875 L169.75,70.875 C169.88825,70.875 170,70.707 170,70.5 C170,70.293 169.88825,70.125 169.75,70.125" id="Fill-47" fill="#FFFFFF"></path>
                            <path d="M156.75,59.125 L156.25,59.125 L156.25,58.375 C156.25,58.168 156.13825,58 156,58 C155.86175,58 155.75,58.168 155.75,58.375 L155.75,59.125 L155.25,59.125 C155.11175,59.125 155,59.293 155,59.5 C155,59.707 155.11175,59.875 155.25,59.875 L155.75,59.875 L155.75,60.625 C155.75,60.832 155.86175,61 156,61 C156.13825,61 156.25,60.832 156.25,60.625 L156.25,59.875 L156.75,59.875 C156.88825,59.875 157,59.707 157,59.5 C157,59.293 156.88825,59.125 156.75,59.125" id="Fill-49" fill="#FFFFFF"></path>
                            <path d="M1.75,80.125 L1.25,80.125 L1.25,79.375 C1.25,79.168 1.13825,79 1,79 C0.86175,79 0.75,79.168 0.75,79.375 L0.75,80.125 L0.25,80.125 C0.11175,80.125 0,80.293 0,80.5 C0,80.707 0.11175,80.875 0.25,80.875 L0.75,80.875 L0.75,81.625 C0.75,81.832 0.86175,82 1,82 C1.13825,82 1.25,81.832 1.25,81.625 L1.25,80.875 L1.75,80.875 C1.88825,80.875 2,80.707 2,80.5 C2,80.293 1.88825,80.125 1.75,80.125" id="Fill-51" fill="#FFFFFF"></path>
                            <path d="M141.75,107.125 L141.25,107.125 L141.25,106.375 C141.25,106.168 141.13825,106 141,106 C140.86175,106 140.75,106.168 140.75,106.375 L140.75,107.125 L140.25,107.125 C140.11175,107.125 140,107.293 140,107.5 C140,107.707 140.11175,107.875 140.25,107.875 L140.75,107.875 L140.75,108.625 C140.75,108.832 140.86175,109 141,109 C141.13825,109 141.25,108.832 141.25,108.625 L141.25,107.875 L141.75,107.875 C141.88825,107.875 142,107.707 142,107.5 C142,107.293 141.88825,107.125 141.75,107.125" id="Fill-21-Copy" fill="#FFFFFF"></path>
                            <path d="M108.75,125.125 L108.25,125.125 L108.25,124.375 C108.25,124.168 108.13825,124 108,124 C107.86175,124 107.75,124.168 107.75,124.375 L107.75,125.125 L107.25,125.125 C107.11175,125.125 107,125.293 107,125.5 C107,125.707 107.11175,125.875 107.25,125.875 L107.75,125.875 L107.75,126.625 C107.75,126.832 107.86175,127 108,127 C108.13825,127 108.25,126.832 108.25,126.625 L108.25,125.875 L108.75,125.875 C108.88825,125.875 109,125.707 109,125.5 C109,125.293 108.88825,125.125 108.75,125.125" id="Fill-23-Copy" fill="#FFFFFF"></path>
                            <path d="M160.75,151.125 L160.25,151.125 L160.25,150.375 C160.25,150.168 160.13825,150 160,150 C159.86175,150 159.75,150.168 159.75,150.375 L159.75,151.125 L159.25,151.125 C159.11175,151.125 159,151.293 159,151.5 C159,151.707 159.11175,151.875 159.25,151.875 L159.75,151.875 L159.75,152.625 C159.75,152.832 159.86175,153 160,153 C160.13825,153 160.25,152.832 160.25,152.625 L160.25,151.875 L160.75,151.875 C160.88825,151.875 161,151.707 161,151.5 C161,151.293 160.88825,151.125 160.75,151.125" id="Fill-27-Copy" fill="#FFFFFF"></path>
                            <path d="M173.75,97.125 L173.25,97.125 L173.25,96.375 C173.25,96.168 173.13825,96 173,96 C172.86175,96 172.75,96.168 172.75,96.375 L172.75,97.125 L172.25,97.125 C172.11175,97.125 172,97.293 172,97.5 C172,97.707 172.11175,97.875 172.25,97.875 L172.75,97.875 L172.75,98.625 C172.75,98.832 172.86175,99 173,99 C173.13825,99 173.25,98.832 173.25,98.625 L173.25,97.875 L173.75,97.875 C173.88825,97.875 174,97.707 174,97.5 C174,97.293 173.88825,97.125 173.75,97.125" id="Fill-29-Copy" fill="#FFFFFF"></path>
                            <path d="M145.75,82.125 L145.25,82.125 L145.25,81.375 C145.25,81.168 145.13825,81 145,81 C144.86175,81 144.75,81.168 144.75,81.375 L144.75,82.125 L144.25,82.125 C144.11175,82.125 144,82.293 144,82.5 C144,82.707 144.11175,82.875 144.25,82.875 L144.75,82.875 L144.75,83.625 C144.75,83.832 144.86175,84 145,84 C145.13825,84 145.25,83.832 145.25,83.625 L145.25,82.875 L145.75,82.875 C145.88825,82.875 146,82.707 146,82.5 C146,82.293 145.88825,82.125 145.75,82.125" id="Fill-31-Copy" fill="#FFFFFF"></path>
                            <path d="M154.75,85.125 L154.25,85.125 L154.25,84.375 C154.25,84.168 154.13825,84 154,84 C153.86175,84 153.75,84.168 153.75,84.375 L153.75,85.125 L153.25,85.125 C153.11175,85.125 153,85.293 153,85.5 C153,85.707 153.11175,85.875 153.25,85.875 L153.75,85.875 L153.75,86.625 C153.75,86.832 153.86175,87 154,87 C154.13825,87 154.25,86.832 154.25,86.625 L154.25,85.875 L154.75,85.875 C154.88825,85.875 155,85.707 155,85.5 C155,85.293 154.88825,85.125 154.75,85.125" id="Fill-33-Copy" fill="#FFFFFF"></path>
                            <path d="M92.75,101.125 L92.25,101.125 L92.25,100.375 C92.25,100.168 92.13825,100 92,100 C91.86175,100 91.75,100.168 91.75,100.375 L91.75,101.125 L91.25,101.125 C91.11175,101.125 91,101.293 91,101.5 C91,101.707 91.11175,101.875 91.25,101.875 L91.75,101.875 L91.75,102.625 C91.75,102.832 91.86175,103 92,103 C92.13825,103 92.25,102.832 92.25,102.625 L92.25,101.875 L92.75,101.875 C92.88825,101.875 93,101.707 93,101.5 C93,101.293 92.88825,101.125 92.75,101.125" id="Fill-35-Copy" fill="#FFFFFF"></path>
                            <path d="M179.75,126.125 L179.25,126.125 L179.25,125.375 C179.25,125.168 179.13825,125 179,125 C178.86175,125 178.75,125.168 178.75,125.375 L178.75,126.125 L178.25,126.125 C178.11175,126.125 178,126.293 178,126.5 C178,126.707 178.11175,126.875 178.25,126.875 L178.75,126.875 L178.75,127.625 C178.75,127.832 178.86175,128 179,128 C179.13825,128 179.25,127.832 179.25,127.625 L179.25,126.875 L179.75,126.875 C179.88825,126.875 180,126.707 180,126.5 C180,126.293 179.88825,126.125 179.75,126.125" id="Fill-37-Copy" fill="#FFFFFF"></path>
                            <path d="M88.75,126.125 L88.25,126.125 L88.25,125.375 C88.25,125.168 88.13825,125 88,125 C87.86175,125 87.75,125.168 87.75,125.375 L87.75,126.125 L87.25,126.125 C87.11175,126.125 87,126.293 87,126.5 C87,126.707 87.11175,126.875 87.25,126.875 L87.75,126.875 L87.75,127.625 C87.75,127.832 87.86175,128 88,128 C88.13825,128 88.25,127.832 88.25,127.625 L88.25,126.875 L88.75,126.875 C88.88825,126.875 89,126.707 89,126.5 C89,126.293 88.88825,126.125 88.75,126.125" id="Fill-39-Copy" fill="#FFFFFF"></path>
                            <path d="M113.75,123.125 L113.25,123.125 L113.25,122.375 C113.25,122.168 113.13825,122 113,122 C112.86175,122 112.75,122.168 112.75,122.375 L112.75,123.125 L112.25,123.125 C112.11175,123.125 112,123.293 112,123.5 C112,123.707 112.11175,123.875 112.25,123.875 L112.75,123.875 L112.75,124.625 C112.75,124.832 112.86175,125 113,125 C113.13825,125 113.25,124.832 113.25,124.625 L113.25,123.875 L113.75,123.875 C113.88825,123.875 114,123.707 114,123.5 C114,123.293 113.88825,123.125 113.75,123.125" id="Fill-41-Copy" fill="#FFFFFF"></path>
                            <path d="M152.75,129.125 L152.25,129.125 L152.25,128.375 C152.25,128.168 152.13825,128 152,128 C151.86175,128 151.75,128.168 151.75,128.375 L151.75,129.125 L151.25,129.125 C151.11175,129.125 151,129.293 151,129.5 C151,129.707 151.11175,129.875 151.25,129.875 L151.75,129.875 L151.75,130.625 C151.75,130.832 151.86175,131 152,131 C152.13825,131 152.25,130.832 152.25,130.625 L152.25,129.875 L152.75,129.875 C152.88825,129.875 153,129.707 153,129.5 C153,129.293 152.88825,129.125 152.75,129.125" id="Fill-43-Copy" fill="#FFFFFF"></path>
                            <path d="M204.75,118.125 L204.25,118.125 L204.25,117.375 C204.25,117.168 204.13825,117 204,117 C203.86175,117 203.75,117.168 203.75,117.375 L203.75,118.125 L203.25,118.125 C203.11175,118.125 203,118.293 203,118.5 C203,118.707 203.11175,118.875 203.25,118.875 L203.75,118.875 L203.75,119.625 C203.75,119.832 203.86175,120 204,120 C204.13825,120 204.25,119.832 204.25,119.625 L204.25,118.875 L204.75,118.875 C204.88825,118.875 205,118.707 205,118.5 C205,118.293 204.88825,118.125 204.75,118.125" id="Fill-45-Copy" fill="#FFFFFF"></path>
                            <path d="M46.75,121.125 L46.25,121.125 L46.25,120.375 C46.25,120.168 46.13825,120 46,120 C45.86175,120 45.75,120.168 45.75,120.375 L45.75,121.125 L45.25,121.125 C45.11175,121.125 45,121.293 45,121.5 C45,121.707 45.11175,121.875 45.25,121.875 L45.75,121.875 L45.75,122.625 C45.75,122.832 45.86175,123 46,123 C46.13825,123 46.25,122.832 46.25,122.625 L46.25,121.875 L46.75,121.875 C46.88825,121.875 47,121.707 47,121.5 C47,121.293 46.88825,121.125 46.75,121.125" id="Fill-47-Copy" fill="#FFFFFF"></path>
                            <path d="M76.75,101.125 L76.25,101.125 L76.25,100.375 C76.25,100.168 76.13825,100 76,100 C75.86175,100 75.75,100.168 75.75,100.375 L75.75,101.125 L75.25,101.125 C75.11175,101.125 75,101.293 75,101.5 C75,101.707 75.11175,101.875 75.25,101.875 L75.75,101.875 L75.75,102.625 C75.75,102.832 75.86175,103 76,103 C76.13825,103 76.25,102.832 76.25,102.625 L76.25,101.875 L76.75,101.875 C76.88825,101.875 77,101.707 77,101.5 C77,101.293 76.88825,101.125 76.75,101.125" id="Fill-49-Copy" fill="#FFFFFF"></path>
                            <path d="M216.75,78.125 L216.25,78.125 L216.25,77.375 C216.25,77.168 216.13825,77 216,77 C215.86175,77 215.75,77.168 215.75,77.375 L215.75,78.125 L215.25,78.125 C215.11175,78.125 215,78.293 215,78.5 C215,78.707 215.11175,78.875 215.25,78.875 L215.75,78.875 L215.75,79.625 C215.75,79.832 215.86175,80 216,80 C216.13825,80 216.25,79.832 216.25,79.625 L216.25,78.875 L216.75,78.875 C216.88825,78.875 217,78.707 217,78.5 C217,78.293 216.88825,78.125 216.75,78.125" id="Fill-51-Copy" fill="#FFFFFF"></path>
                        </g>
                    </g>
                </g>
            </g>
        </g>
    </g>
</svg>