<svg version="1.1" id="Calque_1" xmlns="http://www.w3.org/2000/svg" xmlns:xlink="http://www.w3.org/1999/xlink" x="0px" y="0px"
	 viewBox="111.6 243.8 373.5 355.7" enable-background="new 111.6 243.8 373.5 355.7" xml:space="preserve">
<path fill="#CCCCCC" d="M230.7,243.8L111.6,599.5h46.1l35.7-111.6H317l37.2,111.6h47.6L275.3,243.8H230.7z M202.4,450.7L236.6,348
	c6-22.3,11.9-43.2,17.9-64h1.5c4.5,20.8,10.4,41.7,17.9,65.5l34.2,102.7H202.4V450.7z M436,245.3h-20.8l-47.6,142.9h19.3l14.9-44.6
	h49.1l14.9,44.6h19.3L436,245.3z M404.8,327.2l13.4-41.7c3-8.9,4.5-17.9,7.4-25.3l0,0c1.5,8.9,4.5,16.4,7.4,25.3l13.4,41.7H404.8z"
	/>
</svg>
