<?xml version="1.0" encoding="UTF-8"?>
<svg width="38px" height="46px" viewBox="0 0 38 46" version="1.1" xmlns="http://www.w3.org/2000/svg" xmlns:xlink="http://www.w3.org/1999/xlink">
    <!-- Generator: Sketch 46.2 (44496) - http://www.bohemiancoding.com/sketch -->
    <title>Robot</title>
    <desc>Created with Sketch.</desc>
    <defs>
        <path d="M0.180017741,0 C0.0305441767,1.71298777 -0.0475384778,3.12587613 0.0311054331,3.70891542 C0.283838041,5.58435856 2.77297978,8.5479353 8.59084145,6.91026139 C9.33806128,6.6727111 9.77145355,5.96268751 9.53972233,5.26908444 L7.77740067,1.24453187e-14 L0.180017741,6.22265936e-15 L0.180017741,0 Z" id="path-1"></path>
        <path d="M0.842850212,0 C0.533529083,2.74836109 0.132273834,6.49263802 0,8.86363636 L8.125,8.86363636 L5.32145856,9.62725907e-14 L0.842850212,7.70180726e-14 L0.842850212,0 Z" id="path-3"></path>
        <path d="M11.5444854,0.488059275 L0.315214876,13.6943957 C-0.174067404,14.2700205 -0.0774105084,15.1060794 0.491919367,15.6063571 C5.00918745,19.3017601 8.43623957,17.3911562 9.42633837,15.6968642 C10.4164372,14.0023459 13.4630902,3.53068008 13.9064662,2.12578437 C14.3503036,0.720888665 13.4940019,0.314964539 13.4940019,0.314964539 C13.234943,0.103178039 12.9207504,0 12.607942,0 C12.2116256,0 11.8180775,0.166080439 11.5444854,0.488059275 Z" id="path-5"></path>
        <path d="M0,9.60226939 L7.87027952,0.477476205 C8.14178626,0.162479154 8.53233474,0 8.92563033,0 C9.23605456,0 9.54785234,0.100940728 9.80493672,0.308134853 C9.80493672,0.308134853 10.6547116,0.705256926 10.2142572,2.07968889 C9.96951187,2.84420788 8.92543396,6.35321795 7.87789387,9.60227273 L1.30129605e-14,9.60226939 L0,9.60226939 Z" id="path-7"></path>
        <path d="M25.8522727,2.80718165 C22.5048726,1.06783635 17.9732452,0 12.9841307,0 L12.8680246,0 C7.8790584,-6.72349166e-15 3.34743395,1.06782769 1.31733924e-14,2.80716051 L0,8.125 L25.8522727,8.125 L25.8522727,2.80718165 L25.8522727,2.80718165 Z" id="path-9"></path>
        <path d="M34.7159091,1.01020671 C34.6912049,1.02108209 24.6836759,5.42941659 18.5934109,12.6185074 C18.5934109,12.6185074 18.1065735,13.2954545 17.4156008,13.2954545 C16.7243976,13.2954545 16.1223597,12.6185074 16.1223597,12.6185074 C10.0398995,5.43835831 0.0494553594,1.03205249 0,1.0102677 L7.08073669e-09,0 L34.7159088,0 L34.7159088,1.01020683 L34.7159091,1.01020671 Z" id="path-11"></path>
        <path d="M17.7272727,7.88090114 C16.1034302,10.771857 10.5755615,11.0789895 9.08927614,11.0795455 C7.30506629,11.0788781 -0.303380351,10.6364099 0.0093697243,5.81263922 C0.250419353,2.0985727 3.21063769,0.527331773 6.32273436,0 L11.8558179,3.79357523e-14 C14.352702,0.423086571 16.7518204,1.51814844 17.7272727,3.85273096 L17.7272727,7.88090114 L17.7272727,7.88090114 Z M8.86363636,11.0795455 L8.87130844,11.0795455 L8.86544156,11.0795455 L8.87333929,11.0795455 C8.87153409,11.0795455 8.8701802,11.0795455 8.868375,11.0795455 C8.86679546,11.0795455 8.86521591,11.0795455 8.86363636,11.0795455 Z" id="path-13"></path>
        <path d="M3.30202459,3.69318182 C3.74181601,3.59653666 4.1370321,3.48131852 4.41787354,3.37705982 C5.5112252,2.97138539 6.21734815,2.23197234 5.77554676,1.22748669 C5.43980618,0.463659066 4.63972333,0 3.79479597,0 C3.52833896,0 3.25784831,0.0459953281 2.9956622,0.14321768 C1.90231054,0.549110102 -0.385708134,2.34597972 0.0558559804,3.35046537 C0.119889303,3.4960524 0.234024942,3.6085227 0.385723289,3.69318182 L3.30202523,3.69318182 L3.30202459,3.69318182 Z" id="path-15"></path>
        <path d="M5.90909091,3.06215873 C5.89370835,2.03437041 3.90835105,0.512647801 2.91323473,0.14321768 C2.65129035,0.0459953281 2.38056703,0 2.11435182,0 C1.26967609,0 0.469369567,0.463659066 0.133397424,1.22748669 C0.0451913382,1.42803666 0.00274289006,1.61802034 0,1.79689124 L2.69743012e-14,1.83393335 C0.010766957,2.53248303 0.631186745,3.05799502 1.49128484,3.37705982 C1.77206056,3.48131852 2.16724029,3.59653666 2.60701385,3.69318182 L5.52335377,3.69318182 C5.67505733,3.6085227 5.78919602,3.4960524 5.85322825,3.35046537 C5.88980763,3.26734123 5.90768688,3.17879081 5.90909091,3.08605141 L5.90909091,3.06215748 L5.90909091,3.06215873 Z" id="path-17"></path>
        <path d="M11.8181818,22.1590909 C7.92751914,21.8295343 -0.855478172,20.3663812 0.0674849062,13.8756534 C1.68237279,2.51857974 8.22314062,0.394881504 11.8181818,0 L11.8181818,22.1590909 L11.8181818,22.1590909 Z" id="path-19"></path>
    </defs>
    <g id="Page-1" stroke="none" stroke-width="1" fill="none" fill-rule="evenodd">
        <g id="01.2---Styles.css-ouvert" transform="translate(-52.000000, -17.000000)">
            <g id="logo/nom-du-projet" transform="translate(-25.000000, -18.000000)">
                <g id="avatar">
                    <g id="Robot" transform="translate(77.000000, 36.000000)">
                        <g id="Group-79" transform="translate(4.988636, 21.613636)">
                            <path d="M8.59084095,19.4422149 C9.33806115,19.1924888 9.77145364,18.4451535 9.5397223,17.7153266 L4.21920901,0.977226996 C3.98700037,0.247400146 3.18632207,-0.162897082 2.43027174,0.0612574397 C2.43027174,0.0612574397 1.44750177,0.111248736 1.29715085,1.60154226 C1.14703858,3.09206616 -0.221870729,14.1002878 0.0311006574,16.0736769 C0.283833391,18.0470661 2.77297637,21.1654172 8.59084095,19.4422149" id="Fill-76" fill="#FFFFFF"></path>
                            <path d="M8.59084095,19.4422149 C9.33806115,19.1924888 9.77145364,18.4451535 9.5397223,17.7153266 L4.21920901,0.977226996 C3.98700037,0.247400146 3.18632207,-0.162897082 2.43027174,0.0612574397 C2.43027174,0.0612574397 1.44750177,0.111248736 1.29715085,1.60154226 C1.14703858,3.09206616 -0.221870729,14.1002878 0.0311006574,16.0736769 C0.283833391,18.0470661 2.77297637,21.1654172 8.59084095,19.4422149" id="Stroke-78" stroke="#FFFFFF"></path>
                        </g>
                        <g id="Group-86" transform="translate(4.988636, 26.784091)">
                            <g id="Group-82" transform="translate(0.000000, 7.386364)">
                                <mask id="mask-2" fill="white">
                                    <use xlink:href="#path-1"></use>
                                </mask>
                                <g id="Clip-81"></g>
                                <path d="M7.14679188,1.09043831 L8.30458618,4.63483766 C8.4935993,5.21329545 8.11130426,5.81433442 7.45817736,5.97282468 C6.14907769,6.29043831 3.99997241,6.60277597 2.38375606,5.80357143 C-0.10637917,4.57258117 -0.154996096,1.30105519 -0.154996096,1.30105519 L-0.738636364,5.06493506 L4.39957982,10.3409091 L11.0795455,5.80357143 L8.27328162,0 L7.14679188,1.09043831 Z" id="Fill-80" fill="#E1E4E5" mask="url(#mask-2)"></path>
                            </g>
                            <g id="Group-85">
                                <mask id="mask-4" fill="white">
                                    <use xlink:href="#path-3"></use>
                                </mask>
                                <g id="Clip-84"></g>
                                <path d="M0.489418932,4.68733281 C0.489418932,4.68733281 0.776710403,3.72601972 1.50773196,4.29056816 C2.23875351,4.8551166 7.66049672,8.18595241 7.66049672,8.18595241 C7.66049672,8.18595241 8.34034677,7.9748113 8.63470478,8.86363636 L10.3409091,6.09712318 L2.29967198,0 L-1.47727273,3.33083581 L0.489418932,4.68733281 Z" id="Fill-83" fill="#A9B2B5" mask="url(#mask-4)"></path>
                            </g>
                        </g>
                        <g id="Group-90" transform="translate(19.022727, 26.784091)">
                            <path d="M0.491919367,15.6063089 C-0.0774105084,15.1058121 -0.174067404,14.2699914 0.315214876,13.6941486 L11.5444854,0.488227813 C12.0339984,-0.0876150445 12.9066787,-0.165223728 13.4940019,0.314909295 C13.4940019,0.314909295 14.3503036,0.720827599 13.9064662,2.12592942 C13.4630902,3.53080498 10.4164372,14.0023207 9.42633837,15.6965884 C8.43623957,17.3910824 5.00941814,19.3018851 0.491919367,15.6063089" id="Fill-87" fill="#FFFFFF"></path>
                            <path d="M0.491919367,15.6063089 C-0.0774105084,15.1058121 -0.174067404,14.2699914 0.315214876,13.6941486 L11.5444854,0.488227813 C12.0339984,-0.0876150445 12.9066787,-0.165223728 13.4940019,0.314909295 C13.4940019,0.314909295 14.3503036,0.720827599 13.9064662,2.12592942 C13.4630902,3.53080498 10.4164372,14.0023207 9.42633837,15.6965884 C8.43623957,17.3910824 5.00941814,19.3018851 0.491919367,15.6063089" id="Stroke-89" stroke="#FFFFFF"></path>
                        </g>
                        <g id="Group-97" transform="translate(19.022727, 26.784091)">
                            <g id="Group-93">
                                <mask id="mask-6" fill="white">
                                    <use xlink:href="#path-5"></use>
                                </mask>
                                <g id="Clip-92"></g>
                                <path d="M5.25108515,9.19868809 L1.78560657,13.5769434 C1.35782305,14.1172775 1.45925391,14.90386 2.01075579,15.3168557 C3.00823505,16.0642572 4.62521581,17.0531233 6.12302667,16.9818229 C8.51097293,16.8679244 9.42066674,15.3111608 13.0214623,3.95936069 C16.6222578,-7.39243943 15.2577171,9.27454444 15.2577171,9.27454444 L8.58670494,19.9431818 L-2.21590909,17.6271713 L0.247769178,8.62919598 L5.74391177,8.36335707 L5.25108515,9.19868809 Z" id="Fill-91" fill="#E1E4E5" mask="url(#mask-6)"></path>
                            </g>
                            <g id="Group-96" transform="translate(3.693182, 0.000000)">
                                <mask id="mask-8" fill="white">
                                    <use xlink:href="#path-7"></use>
                                </mask>
                                <g id="Clip-95"></g>
                                <path d="M9.58200002,4.39034656 C9.58200002,4.39034656 9.57999062,3.76364059 8.42636667,4.39034656 C7.272966,5.01705254 1.50506955,8.92804314 1.50506955,8.92804314 C1.50506955,8.92804314 1.30301233,8.53953414 0.436510581,9.45313907 C-0.429767898,10.3669654 -2.21590909,6.78249942 -2.21590909,6.78249942 L10.6963289,-0.738636364 L12.5568182,2.13920809 L9.58200002,4.39034656 Z" id="Fill-94" fill="#A9B2B5" mask="url(#mask-8)"></path>
                            </g>
                        </g>
                        <path d="M18.9649272,16.4431818 C9.96033722,16.4431818 2.44872427,19.8394095 0.718406929,24.3526782 C0.315205975,25.4039025 0.688334568,26.5945843 1.59513189,27.267018 C1.59513189,27.267018 11.6601196,31.6014773 17.7823895,38.6753792 C17.7823895,38.6753792 18.3866126,39.3409091 19.0805901,39.3409091 C19.7745677,39.3409091 20.2631279,38.6753792 20.2631279,38.6753792 C26.3853978,31.6014773 36.4503854,27.267018 36.4503854,27.267018 C37.3574141,26.5945843 37.73008,25.4039025 37.3271104,24.3526782 C35.596793,19.8394095 28.0851801,16.4431818 19.0805901,16.4431818 L18.9649272,16.4431818 Z" id="Fill-98" fill="#FFFFFF"></path>
                        <g id="Group-112" transform="translate(1.295455, 16.443182)">
                            <path d="M16.8933284,20.6818182 C16.8933284,20.6818182 15.5113636,14.2075099 15.5113636,7.38636364 L16.9886364,7.55978261 L16.8933284,20.6818182 Z" id="Fill-100" fill="#F9F9F9"></path>
                            <path d="M17.1368048,16.6505903 L17.1368048,20.6818182 C17.1368048,20.6818182 18.9091539,12.1059622 19.2045455,7.5014758 L16.9886364,7.38636364 L17.1368048,16.6505903 Z" id="Fill-102" fill="#A9B2B5"></path>
                            <path d="M16.25,5.90909091 C16.25,5.90909091 16.6193182,16.9886364 16.9886364,16.9886364 C17.3579545,16.9886364 17.7272727,5.90909091 17.7272727,5.90909091 L16.25,5.90909091 Z" id="Fill-104" fill="#FFFFFF"></path>
                            <g id="Group-108" transform="translate(4.431818, 0.000000)">
                                <mask id="mask-10" fill="white">
                                    <use xlink:href="#path-9"></use>
                                </mask>
                                <g id="Clip-107"></g>
                                <path d="M12.926124,-16.25 C10.6086363,-16.25 1.91805743,-16.0110294 0.0640672762,-1.91176471 C-1.05782852,6.62068015 12.926124,8.125 12.926124,8.125 C12.926124,8.125 26.9103082,6.62068015 25.7881807,-1.91176471 C23.9341905,-16.0110294 15.2436117,-16.25 12.926124,-16.25" id="Fill-106" fill="#A9B2B5" mask="url(#mask-10)"></path>
                            </g>
                            <g id="Group-111" transform="translate(0.000000, 9.602273)">
                                <mask id="mask-12" fill="white">
                                    <use xlink:href="#path-11"></use>
                                </mask>
                                <g id="Clip-110"></g>
                                <path d="M0,0.86452129 C0,0.27355007 0.611484395,-0.114463685 1.1384116,0.143592198 C3.93594119,1.51477562 11.2716803,5.44838421 16.1225441,11.1332856 C16.1225441,11.1332856 16.7243516,11.8056257 17.4155548,11.8056257 C18.106758,11.8056257 18.593365,11.1332856 18.593365,11.1332856 C23.5347764,5.3419071 31.0552972,1.36831147 33.7297926,0.069430192 C34.1871387,-0.15259086 34.7159091,0.184974132 34.7159091,0.69713369 C34.7159091,0.891954258 34.6348079,1.07794048 34.4924201,1.20975821 L26.3067315,8.78637192 L6.95304298,20.6818182 L0.0460802106,1.13327138 C0.0156672716,1.04702027 0,0.956119504 0,0.86452129" id="Fill-109" fill="#E1E4E5" mask="url(#mask-12)"></path>
                            </g>
                        </g>
                        <g id="Group-121" transform="translate(0.556818, 0.193182)">
                            <path d="M18.0399468,16.25 C9.21544866,16.25 1.85406797,19.6462277 0.158356972,24.1594963 C-0.236779963,25.2107206 0.128886059,26.4014025 1.01754744,27.0738362 C1.01754744,27.0738362 10.8812353,31.4082955 16.8810599,38.4821974 C16.8810599,38.4821974 17.4731985,39.1477273 18.1532965,39.1477273 C18.8333945,39.1477273 19.3121835,38.4821974 19.3121835,38.4821974 C25.312008,31.4082955 35.1756959,27.0738362 35.1756959,27.0738362 C36.064584,26.4014025 36.4297966,25.2107206 36.0348864,24.1594963 C34.3391754,19.6462277 26.9777947,16.25 18.1532965,16.25 L18.0399468,16.25 Z" id="Stroke-113" stroke="#FFFFFF"></path>
                            <g id="Group-118" transform="translate(5.170455, 0.000000)">
                                <path d="M12.926124,0 C10.6086363,0 1.91805743,0.230823864 0.0640672762,13.8494318 C-1.05782852,22.0909979 12.926124,22.1590909 12.926124,22.1590909 C12.926124,22.1590909 26.9103082,22.0909979 25.7881807,13.8494318 C23.9341905,0.230823864 15.2436117,0 12.926124,0" id="Fill-115" fill="#FFFFFF"></path>
                                <path d="M12.926124,0 C10.6086363,0 1.91805743,0.230823864 0.0640672762,13.8494318 C-1.05782852,22.0909979 12.926124,22.1590909 12.926124,22.1590909 C12.926124,22.1590909 26.9103082,22.0909979 25.7881807,13.8494318 C23.9341905,0.230823864 15.2436117,0 12.926124,0" id="Stroke-117" stroke="#FFFFFF"></path>
                            </g>
                            <path d="M18.0917772,7.38636364 C22.0164211,7.38636364 27.0016493,8.64852666 27.320031,13.6969461 C27.6379542,18.7455982 19.8950229,19.2045455 18.0917772,19.2045455 L18.0995706,19.2045455 L18.093611,19.2045455 L18.1014043,19.2045455 C16.2983878,19.2045455 8.55522738,18.7455982 8.87315058,13.6969461 C9.19153221,8.64852666 14.1767605,7.38636364 18.1014043,7.38636364 L18.0917772,7.38636364 Z" id="Fill-119" fill="#22292D"></path>
                        </g>
                        <g id="Group-124" transform="translate(9.420455, 8.318182)">
                            <mask id="mask-14" fill="white">
                                <use xlink:href="#path-13"></use>
                            </mask>
                            <g id="Clip-123"></g>
                            <path d="M9.22814086,0 C13.1527847,0 18.138013,1.18327783 18.4563946,5.91617109 C18.7743178,10.6492824 11.0313866,11.0795455 9.22814086,11.0795455 L9.23593422,11.0795455 L9.2299746,11.0795455 L9.23776795,11.0795455 C7.43475146,11.0795455 -0.308408984,10.6492824 0.00951421381,5.91617109 C0.327895844,1.18327783 5.31312413,0 9.23776795,0 L9.22814086,0 Z" id="Fill-122" fill="#323B42" mask="url(#mask-14)"></path>
                        </g>
                        <path d="M26.2755479,13.4021497 C25.8339876,12.2639657 24.5892669,11.7138929 23.4956875,12.1738101 C22.4023453,12.6337273 20.1141092,14.6697625 20.5559068,15.8079465 C20.9977043,16.9461304 23.8245443,16.2979979 24.9178865,15.8380807 C26.0112287,15.3781635 26.7173455,14.5403336 26.2755479,13.4021497" id="Fill-125" fill="#E1E4E5"></path>
                        <g id="Group-129" transform="translate(20.500000, 12.011364)">
                            <mask id="mask-16" fill="white">
                                <use xlink:href="#path-15"></use>
                            </mask>
                            <g id="Clip-128"></g>
                            <path d="M5.77554792,1.39078602 C5.33398764,0.252602071 4.08926692,-0.29747077 2.99568748,0.162446441 C1.9023453,0.622363653 -0.3858908,2.65839887 0.0559067543,3.79658282 C0.497704309,4.93476677 3.3245443,4.28663424 4.41788648,3.82671703 C5.51122865,3.36679982 6.21734548,2.52896997 5.77554792,1.39078602" id="Fill-127" fill="#FFFFFF" mask="url(#mask-16)"></path>
                        </g>
                        <path d="M11.7699034,13.4021497 C12.21146,12.2639657 13.4561704,11.7138929 14.5497407,12.1738101 C15.6430738,12.6337273 17.9315281,14.6697625 17.489497,15.8079465 C17.0479404,16.9461304 14.2208866,16.2979979 13.1277908,15.8380807 C12.0342205,15.3781635 11.3281095,14.5403336 11.7699034,13.4021497" id="Fill-130" fill="#E1E4E5"></path>
                        <g id="Group-134" transform="translate(11.636364, 12.011364)">
                            <mask id="mask-18" fill="white">
                                <use xlink:href="#path-17"></use>
                            </mask>
                            <g id="Clip-133"></g>
                            <path d="M0.133539785,1.39078602 C0.575096394,0.252602071 1.81980675,-0.29747077 2.91337709,0.162446441 C4.00671017,0.622363653 6.29516449,2.65839887 5.85313335,3.79658282 C5.41157674,4.93476677 2.584523,4.28663424 1.4914272,3.82671703 C0.397856852,3.36679982 -0.308254093,2.52896997 0.133539785,1.39078602" id="Fill-132" fill="#FFFFFF" mask="url(#mask-18)"></path>
                        </g>
                        <g id="Group-137" transform="translate(5.727273, 0.193182)">
                            <mask id="mask-20" fill="white">
                                <use xlink:href="#path-19"></use>
                            </mask>
                            <g id="Clip-136"></g>
                            <path d="M11.8181818,0 C11.8181818,0 4.36218846,2.86178647 2.63040299,10.8631078 C0.898617512,18.8644292 3.7755312,19.9334524 7.59214752,21.6474873 C11.4087638,23.3615222 0.958334252,25.1136364 0.958334252,25.1136364 L-5.90909091,14.2505285 L2.74983647,2.21934461 L11.8181818,0 Z" id="Fill-135" fill="#E1E4E5" mask="url(#mask-20)"></path>
                        </g>
                    </g>
                </g>
            </g>
        </g>
    </g>
</svg>