<?xml version="1.0" encoding="UTF-8"?>
<svg width="14px" height="20px" viewBox="0 0 14 20" version="1.1" xmlns="http://www.w3.org/2000/svg" xmlns:xlink="http://www.w3.org/1999/xlink">
    <!-- Generator: Sketch 46.2 (44496) - http://www.bohemiancoding.com/sketch -->
    <title>Histo</title>
    <desc>Created with Sketch.</desc>
    <defs></defs>
    <g id="Page-1" stroke="none" stroke-width="1" fill="none" fill-rule="evenodd" opacity="0.599999964">
        <g id="01.1---Hover-styles.cc-+-Rencent-changes-+-btn-dl-project-+-btn-Mark-all-+-btn-liste" transform="translate(-312.000000, -15.000000)" fill="#F6F6F6">
            <g id="Barre-du-haut" transform="translate(290.000000, 0.000000)">
                <g id="Historique">
                    <g id="Fermé-normal">
                        <g id="Histo" transform="translate(22.000000, 15.000000)">
                            <g id="Page-1" transform="translate(0.000000, -0.000000)">
                                <path d="M2.96835,11.6421667 L10.6135167,11.6421667 C10.84685,11.6421667 11.0801833,11.5032778 11.0801833,11.3643889 C11.0801833,11.2255 10.84685,11.0866111 10.6135167,11.0866111 L2.96835,11.0866111 C2.73501667,11.0866111 2.50168333,11.2255 2.50168333,11.3643889 C2.50168333,11.5032778 2.67668333,11.6421667 2.96835,11.6421667" id="Fill-3"></path>
                                <path d="M10.610075,13.4753333 L2.96840833,13.4753333 C2.735075,13.4753333 2.50174167,13.6142222 2.50174167,13.7531111 C2.50174167,13.892 2.735075,14.0308889 2.96840833,14.0308889 L10.610075,14.0308889 C10.842825,14.0308889 11.0767417,13.892 11.0767417,13.7531111 C11.0767417,13.5795 10.842825,13.4753333 10.610075,13.4753333" id="Fill-5"></path>
                                <path d="M10.610075,15.8087778 L2.96840833,15.8087778 C2.735075,15.8087778 2.50174167,15.9476667 2.50174167,16.0865556 C2.50174167,16.2254444 2.735075,16.3643333 2.96840833,16.3643333 L10.610075,16.3643333 C10.842825,16.3643333 11.0767417,16.2254444 11.0767417,16.0865556 C11.0767417,15.9476667 10.842825,15.8087778 10.610075,15.8087778" id="Fill-7"></path>
                                <g id="Group-11" transform="translate(0.000000, 0.465500)">
                                    <polygon id="Fill-9" points="12.768525 18.3022778 12.768525 18.3022778 1.22144167 18.3022778 1.22435833 1.25672222 5.63669167 1.25672222 5.63669167 0.0900555556 0.00635833333 0.0900555556 -5.83333333e-05 19.4445 13.993525 19.4445 13.993525 9.34338889 12.768525 9.34338889"></polygon>
                                </g>
                                <path d="M8.84695,1.99805556 C8.84695,1.78138889 9.04761667,1.6375 9.27453333,1.6375 C9.50203333,1.6375 9.67995,1.78138889 9.67995,1.99805556 L9.67995,4.81027778 L11.7245333,3.94527778 C11.95145,3.87305556 12.17895,3.94527778 12.2547833,4.16138889 C12.3306167,4.37805556 12.2547833,4.59416667 12.0272833,4.66638889 L9.3772,5.74805556 L9.22553333,5.74805556 C9.15028333,5.74805556 9.07445,5.74805556 8.99861667,5.67583333 C8.92278333,5.60416667 8.84695,5.45972222 8.84695,5.3875 L8.84695,1.99805556 Z M9.45303333,9.20972222 C11.95145,9.20972222 13.9960333,7.2625 13.9960333,4.8825 C13.9960333,2.50305556 11.95145,0.555833333 9.45303333,0.555833333 C6.95403333,0.555833333 4.90945,2.50305556 4.90945,4.8825 C4.90945,7.2625 6.95403333,9.20972222 9.45303333,9.20972222 L9.45303333,9.20972222 Z" id="Fill-12"></path>
                            </g>
                        </g>
                    </g>
                </g>
            </g>
        </g>
    </g>
</svg>