<?xml version="1.0" encoding="UTF-8"?>
<svg width="24px" height="20px" viewBox="0 0 24 20" version="1.1" xmlns="http://www.w3.org/2000/svg" xmlns:xlink="http://www.w3.org/1999/xlink">
    <!-- Generator: Sketch 46.2 (44496) - http://www.bohemiancoding.com/sketch -->
    <title>Fill 1</title>
    <desc>Created with Sketch.</desc>
    <defs></defs>
    <g id="Symbols" stroke="none" stroke-width="1" fill="none" fill-rule="evenodd">
        <g id="Ralentir-hover" fill="#FD4141">
            <g id="Page-1">
                <path d="M11.5006715,11.8065036 L11.5006715,7.12650361 C11.5006715,6.48066362 11.4600982,5.98650981 12.0097,5.98650981 C12.5593017,5.98650981 12.5043921,6.48066362 12.5043921,7.12650361 L12.4963269,11.8065036 C12.4963269,12.4523436 12.5593017,12.9765036 12.0097,12.9765036 C11.4600982,12.9765036 11.5006715,12.4523436 11.5006715,11.8065036 Z M11,15.9800324 C11,15.4280324 11.448,14.9800324 12,14.9800324 C12.552,14.9800324 13,15.4280324 13,15.9800324 C13,16.5320324 12.552,16.9800324 12,16.9800324 C11.448,16.9800324 11,16.5320324 11,15.9800324 Z M12.9552295,1.56517175 C12.7606253,1.22505876 12.4045882,1.0002 11.9976886,1.0002 C11.590789,1.0002 11.2347518,1.22505876 11.0434648,1.55952203 L2.14806453,17.3052847 C2.05518527,17.4668667 1.9999,17.6623469 1.9999,17.8702565 C1.9999,18.4939853 2.49525604,19.0002 3.10560544,19.0002 L20.8986174,19.0002 C21.5078611,18.9979401 21.9999,18.4928554 21.9999,17.8702565 C21.9999,17.6623469 21.9446147,17.4668667 21.8484184,17.299635 L12.9552295,1.56517175 Z M3.98885728,20.0002 C2.3370651,20.0002 1.63796847,19.9981238 0.960560102,18.4936794 C0.663604125,17.5840169 1.74003396,15.9165197 1.9999,15.4710273 L9.96963906,1.50825197 C10.4953451,0.600210034 10.8987052,0.0002 11.9999,0.0002 C13.1010948,0.0002 13.5248452,0.614257091 14.0415903,1.50825197 L22.1733556,15.4710273 C22.4252564,15.9024726 23.4787511,17.61625 23.1847208,18.4936794 C22.6715077,20.0251826 21.6627349,20.0002 20.012934,20.0002 L3.98885728,20.0002 Z" id="Fill-1"></path>
            </g>
        </g>
    </g>
</svg>