<?xml version="1.0" encoding="UTF-8"?>
<svg width="16px" height="20px" viewBox="0 0 16 20" version="1.1" xmlns="http://www.w3.org/2000/svg" xmlns:xlink="http://www.w3.org/1999/xlink">
    <!-- Generator: Sketch 46.2 (44496) - http://www.bohemiancoding.com/sketch -->
    <title>Page 1</title>
    <desc>Created with Sketch.</desc>
    <defs>
        <polygon id="path-1" points="11.91296 15.8791579 11.91296 0.225614035 0.141152 0.225614035 0.141152 15.8791579 11.91296 15.8791579"></polygon>
        <polygon id="path-3" points="0 0.135859649 0 15.789193 11.771808 15.789193 11.771808 0.135859649"></polygon>
    </defs>
    <g id="Symbols" stroke="none" stroke-width="1" fill="none" fill-rule="evenodd">
        <g id="copy-hover">
            <g id="Page-1">
                <g id="Group-3" transform="translate(3.840000, 0.125263)">
                    <mask id="mask-2" fill="white">
                        <use xlink:href="#path-1"></use>
                    </mask>
                    <g id="Clip-2"></g>
                    <path d="M1.128032,14.7970526 L1.128032,1.30792982 L9.311392,1.30792982 L9.311392,2.49740351 C9.311392,2.79635088 9.532512,3.03845614 9.804832,3.03845614 L10.925792,3.03845614 L10.925792,14.7970526 L1.128032,14.7970526 Z M11.764512,2.11003509 L10.150112,0.379508772 C10.057952,0.280561404 9.934112,0.225473684 9.805152,0.225473684 L0.634592,0.225473684 C0.361952,0.225473684 0.141152,0.467929825 0.141152,0.766526316 L0.141152,15.3381053 C0.141152,15.6374035 0.362272,15.8791579 0.634592,15.8791579 L11.419552,15.8791579 C11.692192,15.8791579 11.912992,15.6370526 11.912992,15.3381053 L11.912992,2.49705263 C11.912992,2.3514386 11.859552,2.21214035 11.764512,2.11003509 L11.764512,2.11003509 Z" id="Fill-1" fill="#4BD1C5" mask="url(#mask-2)"></path>
                </g>
                <g id="Group-14" transform="translate(0.000000, 3.984912)">
                    <mask id="mask-4" fill="white">
                        <use xlink:href="#path-3"></use>
                    </mask>
                    <g id="Clip-13"></g>
                    <path d="M10.784928,12.9018246 L10.784928,14.7074386 L0.986848,14.7074386 L0.986848,1.21831579 L3.176608,1.21831579 L3.176608,0.135859649 L0.493408,0.135859649 C0.220768,0.135859649 -3.2e-05,0.377964912 -3.2e-05,0.676912281 L-3.2e-05,15.2481404 C-3.2e-05,15.5474386 0.220768,15.789193 0.493408,15.789193 L11.278368,15.789193 C11.551328,15.789193 11.771808,15.5470877 11.771808,15.2481404 L11.771808,12.9014737 L10.784928,12.9014737 L10.784928,12.9018246 Z" id="Fill-12" fill="#4BD1C5" mask="url(#mask-4)"></path>
                </g>
                <path d="M13.546464,4.73866667 L6.187424,4.73866667 C6.020704,4.73866667 5.885984,4.59059649 5.885984,4.40814035 C5.885984,4.22533333 6.021024,4.07761404 6.187424,4.07761404 L13.546464,4.07761404 C13.713184,4.07761404 13.847904,4.22568421 13.847904,4.40814035 C13.847904,4.59059649 13.713184,4.73866667 13.546464,4.73866667" id="Fill-4" fill="#4BD1C5"></path>
                <path d="M13.546464,7.25185965 L6.187424,7.25185965 C6.020704,7.25185965 5.885984,7.10378947 5.885984,6.92133333 C5.885984,6.73852632 6.021024,6.59080702 6.187424,6.59080702 L13.546464,6.59080702 C13.713184,6.59080702 13.847904,6.73887719 13.847904,6.92133333 C13.847904,7.10378947 13.713184,7.25185965 13.546464,7.25185965" id="Fill-6" fill="#4BD1C5"></path>
                <path d="M13.546464,9.76519298 L6.187424,9.76519298 C6.020704,9.76519298 5.885984,9.61712281 5.885984,9.43466667 C5.885984,9.25185965 6.021024,9.10414035 6.187424,9.10414035 L13.546464,9.10414035 C13.713184,9.10414035 13.847904,9.25221053 13.847904,9.43466667 C13.847904,9.61712281 13.713184,9.76519298 13.546464,9.76519298" id="Fill-8" fill="#4BD1C5"></path>
                <path d="M13.546464,12.2785614 L6.187424,12.2785614 C6.020704,12.2785614 5.885984,12.1304912 5.885984,11.9480351 C5.885984,11.7655789 6.021024,11.6175088 6.187424,11.6175088 L13.546464,11.6175088 C13.713184,11.6175088 13.847904,11.7655789 13.847904,11.9480351 C13.847904,12.1304912 13.713184,12.2785614 13.546464,12.2785614" id="Fill-10" fill="#4BD1C5"></path>
                <path d="M3.17664,7.84701754 L2.2064,7.84701754 C2.03968,7.84701754 1.90496,7.99508772 1.90496,8.17754386 C1.90496,8.36 2.04,8.50807018 2.2064,8.50807018 L3.17664,8.50807018 L3.17664,7.84701754 Z" id="Fill-15" fill="#4BD1C5"></path>
                <path d="M3.17664,10.360386 L2.2064,10.360386 C2.03968,10.360386 1.90496,10.5084561 1.90496,10.6909123 C1.90496,10.8733684 2.04,11.0214386 2.2064,11.0214386 L3.17664,11.0214386 L3.17664,10.360386 Z" id="Fill-17" fill="#4BD1C5"></path>
                <path d="M3.17664,12.8737544 L2.2064,12.8737544 C2.03968,12.8737544 1.90496,13.0218246 1.90496,13.2042807 C1.90496,13.3867368 2.04,13.5344561 2.2064,13.5344561 L3.17664,13.5344561 L3.17664,12.8737544 Z" id="Fill-19" fill="#4BD1C5"></path>
                <path d="M3.17664,15.4633684 L3.17664,15.3868772 L2.2064,15.3868772 C2.03968,15.3868772 1.90496,15.5349474 1.90496,15.7177544 C1.90496,15.8998596 2.04,16.0479298 2.2064,16.0479298 L3.29184,16.0479298 C3.21824,15.8696842 3.17664,15.6721404 3.17664,15.4633684" id="Fill-21" fill="#4BD1C5"></path>
            </g>
        </g>
    </g>
</svg>