<?xml version="1.0" encoding="UTF-8"?>
<svg width="20px" height="20px" viewBox="0 0 20 20" version="1.1" xmlns="http://www.w3.org/2000/svg" xmlns:xlink="http://www.w3.org/1999/xlink">
    <!-- Generator: Sketch 46.2 (44496) - http://www.bohemiancoding.com/sketch -->
    <title>Show diff</title>
    <desc>Created with Sketch.</desc>
    <defs>
        <polygon id="path-1" points="9.99997647 0 0 0 0 20 9.99997647 20 19.9999529 20 19.9999529 0 9.99997647 0"></polygon>
    </defs>
    <g id="Page-1" stroke="none" stroke-width="1" fill="none" fill-rule="evenodd" opacity="0.599999964">
        <g id="01.1---Hover-styles.cc-+-Rencent-changes-+-btn-dl-project-+-btn-Mark-all-+-btn-liste" transform="translate(-367.000000, -15.000000)">
            <g id="Barre-du-haut" transform="translate(290.000000, 0.000000)">
                <g id="Show-diff" transform="translate(58.000000, 0.000000)">
                    <g id="Fermé-normal">
                        <g id="Show-diff" transform="translate(19.000000, 15.000000)">
                            <g id="Page-1">
                                <path d="M5.5,8.25 L5.5,3.75 C5.5,3.325 5.71666667,3 6,3 C6.28333333,3 6.5,3.325 6.5,3.75 L6.5,8.25 C6.5,8.675 6.28333333,9 6,9 C5.71666667,9 5.5,8.675 5.5,8.25" id="Fill-1" fill="#F6F6F6" opacity="0.600000024"></path>
                                <path d="M8.25,6.5 L3.75,6.5 C3.32525,6.5 3,6.28333333 3,6 C3,5.71683333 3.32525,5.5 3.75,5.5 L8.25,5.5 C8.675,5.5 9,5.71683333 9,6 C9,6.28333333 8.675,6.5 8.25,6.5" id="Fill-8" fill="#F6F6F6" opacity="0.600000024"></path>
                                <g id="Group-5">
                                    <mask id="mask-2" fill="white">
                                        <use xlink:href="#path-1"></use>
                                    </mask>
                                    <g id="Clip-4"></g>
                                    <path d="M17.9736958,19 L2.02646723,19 C1.45946723,19 0.999952941,18.5404857 0.999952941,17.9737429 L0.999952941,2.02651429 C0.999952941,1.45951429 1.45946723,1 2.02646723,1 L17.9736958,1 C18.5404387,1 18.9999529,1.45951429 18.9999529,2.02651429 L18.9999529,17.9737429 C18.9999529,18.5404857 18.5404387,19 17.9736958,19 M-4.70588235e-05,0.939294118 L-4.70588235e-05,19.0609412 C-4.70588235e-05,19.5795294 0.420423529,20 0.939247059,20 L19.0608941,20 C19.5794824,20 19.9999529,19.5795294 19.9999529,19.0609412 L19.9999529,0.939294118 C19.9999529,0.420470588 19.5794824,0 19.0608941,0 L0.939247059,0 C0.420423529,0 -4.70588235e-05,0.420470588 -4.70588235e-05,0.939294118" id="Fill-3" fill="#F6F6F6" opacity="0.600000024" mask="url(#mask-2)"></path>
                                </g>
                                <path d="M20.1197259,10.3815969 L-0.127308724,10.3815969 C-2.03840382,10.3815969 -3.50181449,10.1704605 -3.50181449,9.89435908 C-3.50181449,9.61842007 -2.03840382,9.40712128 -0.127308724,9.40712128 L20.1197259,9.40712128 C22.0319458,9.40712128 23.4942317,9.61842007 23.4942317,9.89435908 C23.4942317,10.1704605 22.0319458,10.3815969 20.1197259,10.3815969" id="Fill-8-Copy" fill="#F6F6F6" opacity="0.600000024" transform="translate(9.996209, 9.907121) rotate(-45.000000) translate(-9.996209, -9.907121) "></path>
                                <path d="M16.25,15 L11.75,15 C11.32525,15 11,14.7833333 11,14.5 C11,14.2168333 11.32525,14 11.75,14 L16.25,14 C16.675,14 17,14.2168333 17,14.5 C17,14.7833333 16.675,15 16.25,15" id="Fill-8" fill="#F6F6F6" opacity="0.600000024"></path>
                            </g>
                        </g>
                    </g>
                </g>
            </g>
        </g>
    </g>
</svg>