<?xml version="1.0" encoding="UTF-8"?>
<svg width="300px" height="275px" viewBox="0 0 300 275" version="1.1" xmlns="http://www.w3.org/2000/svg" xmlns:xlink="http://www.w3.org/1999/xlink">
    <!-- Generator: Sketch 46.2 (44496) - http://www.bohemiancoding.com/sketch -->
    <title>01</title>
    <desc>Created with Sketch.</desc>
    <defs></defs>
    <g id="Page-1" stroke="none" stroke-width="1" fill="none" fill-rule="evenodd" opacity="0.600000024">
        <g id="01---File-tree" transform="translate(-711.000000, -285.000000)" fill="#26283B">
            <g id="Welcome" transform="translate(467.000000, -57.000000)">
                <g id="BG">
                    <g id="Nuages" transform="translate(65.000000, 0.000000)">
                        <g id="01" transform="translate(179.000000, 342.000000)">
                            <path d="M285.171103,142.921047 L224.781928,142.921047 C216.999776,142.921047 210.691121,136.612391 210.691121,128.830239 C210.691121,121.048088 216.999776,114.739432 224.781928,114.739432 L285.171103,114.739432 C292.953254,114.739432 299.26191,121.048088 299.26191,128.830239 C299.26191,136.612391 292.953254,142.921047 285.171103,142.921047" id="Fill-1"></path>
                            <path d="M231.491836,232.162827 L192.574368,232.162827 C188.869157,232.162827 185.86446,229.15813 185.86446,225.452919 C185.86446,221.747707 188.869157,218.743011 192.574368,218.743011 L231.491836,218.743011 C235.197048,218.743011 238.201745,221.747707 238.201745,225.452919 C238.201745,229.15813 235.197048,232.162827 231.491836,232.162827" id="Fill-3"></path>
                            <path d="M238.201745,60.3891747 L212.704093,60.3891747 C208.998882,60.3891747 205.994185,57.3851487 205.994185,53.6792664 C205.994185,49.973384 208.998882,46.9693581 212.704093,46.9693581 L238.201745,46.9693581 C241.906956,46.9693581 244.911653,49.973384 244.911653,53.6792664 C244.911653,57.3851487 241.906956,60.3891747 238.201745,60.3891747" id="Fill-5"></path>
                            <path d="M14.7617983,171.773652 L21.4717066,171.773652 C27.4005815,171.773652 32.2075598,166.967345 32.2075598,161.037799 C32.2075598,155.108253 27.4005815,150.301946 21.4717066,150.301946 C9.61328562,150.301946 0,140.68866 0,128.830239 C0,116.971818 9.61328562,107.358533 21.4717066,107.358533 L48.9823306,107.358533 C54.9112055,107.358533 59.7181839,102.551554 59.7181839,96.6226795 C59.7181839,90.6938045 54.9112055,85.8868262 48.9823306,85.8868262 L48.3113397,85.8868262 C36.4529188,85.8868262 26.8396332,76.2735406 26.8396332,64.4151197 C26.8396332,52.5566987 36.4529188,42.9434131 48.3113397,42.9434131 L62.4021472,42.9434131 C68.3310221,42.9434131 73.1380004,38.1364348 73.1380004,32.2075598 C73.1380004,26.2786849 77.9449788,21.4717066 83.8738537,21.4717066 L102.661597,21.4717066 C108.590472,21.4717066 113.39745,16.6647282 113.39745,10.7358533 C113.39745,4.8069783 118.204429,0 124.133304,0 L179.154552,0 C185.084098,0 189.890405,4.8069783 189.890405,10.7358533 C189.890405,16.6647282 194.696712,21.4717066 200.626258,21.4717066 L212.704093,21.4717066 C218.633639,21.4717066 223.439946,26.2786849 223.439946,32.2075598 C223.439946,38.1364348 218.633639,42.9434131 212.704093,42.9434131 C206.774547,42.9434131 201.96824,47.7503914 201.96824,53.6792664 C201.96824,59.6081414 206.774547,64.4151197 212.704093,64.4151197 L256.989488,64.4151197 C268.847909,64.4151197 278.461194,74.0284053 278.461194,85.8868262 C278.461194,97.7452471 268.847909,107.358533 256.989488,107.358533 L224.781928,107.358533 C212.923507,107.358533 203.310221,116.971818 203.310221,128.830239 C203.310221,140.68866 212.923507,150.301946 224.781928,150.301946 L244.911653,150.301946 C262.69962,150.301946 277.119213,164.721539 277.119213,182.509506 C277.119213,200.297473 262.69962,214.717066 244.911653,214.717066 L192.574368,214.717066 C186.644822,214.717066 181.838515,219.523373 181.838515,225.452919 C181.838515,231.382465 186.644822,236.188772 192.574368,236.188772 C198.503914,236.188772 203.310221,240.995079 203.310221,246.924625 C203.310221,252.854171 198.503914,257.660479 192.574368,257.660479 L110.713487,257.660479 C104.784612,257.660479 99.9776336,252.854171 99.9776336,246.924625 C99.9776336,240.995079 95.1706553,236.188772 89.2417804,236.188772 L83.8738537,236.188772 C77.9449788,236.188772 73.1380004,231.382465 73.1380004,225.452919 C73.1380004,219.523373 68.3310221,214.717066 62.4021472,214.717066 L58.9868038,214.717066 C53.0807426,214.683516 48.3113397,209.887274 48.3113397,203.981212 C48.3113397,198.051666 43.5043614,193.245359 37.5754865,193.245359 L14.7617983,193.245359 C8.83292328,193.245359 4.02594498,188.439052 4.02594498,182.509506 C4.02594498,176.57996 8.83292328,171.773652 14.7617983,171.773652" id="Fill-7"></path>
                            <path d="M48.3113397,103.332588 L22.8136882,103.332588 C19.1078059,103.332588 16.1037799,100.328562 16.1037799,96.6226795 C16.1037799,92.9167971 19.1078059,89.9127712 22.8136882,89.9127712 L48.3113397,89.9127712 C52.0172221,89.9127712 55.021248,92.9167971 55.021248,96.6226795 C55.021248,100.328562 52.0172221,103.332588 48.3113397,103.332588" id="Fill-9"></path>
                            <path d="M21.4717066,167.747707 L15.4327891,167.747707 C11.7269067,167.747707 8.72288079,164.743011 8.72288079,161.037799 C8.72288079,157.332588 11.7269067,154.327891 15.4327891,154.327891 L21.4717066,154.327891 C25.1775889,154.327891 28.1816149,157.332588 28.1816149,161.037799 C28.1816149,164.743011 25.1775889,167.747707 21.4717066,167.747707" id="Fill-11"></path>
                            <path d="M162.379781,274.435249 L136.211138,274.435249 C132.505256,274.435249 129.50123,271.430552 129.50123,267.725341 C129.50123,264.02013 132.505256,261.015433 136.211138,261.015433 L162.379781,261.015433 C166.084992,261.015433 169.089689,264.02013 169.089689,267.725341 C169.089689,271.430552 166.084992,274.435249 162.379781,274.435249" id="Fill-13"></path>
                        </g>
                    </g>
                </g>
            </g>
        </g>
    </g>
</svg>