<?xml version="1.0" encoding="UTF-8"?>
<svg width="145px" height="139px" viewBox="0 0 145 139" version="1.1" xmlns="http://www.w3.org/2000/svg" xmlns:xlink="http://www.w3.org/1999/xlink">
    <!-- Generator: Sketch 46.2 (44496) - http://www.bohemiancoding.com/sketch -->
    <title>Astronaute</title>
    <desc>Created with Sketch.</desc>
    <defs>
        <path d="M0.498223858,8.40146643 C1.08710553,6.9217549 2.09565786,5.58588651 3.49896801,4.58833391 L9.77294031,0.128831341 L40.5482394,43.4235726 L34.7200464,47.5666973 C32.1434196,49.3982685 28.5914369,48.9422284 26.5603481,46.5200851 L1.8937067,17.1032156 C1.29124862,16.3845966 0.82742972,15.5983945 0.498223858,14.7760378 L0.498223858,8.40146569 L0.498223858,8.40146643 Z" id="path-1"></path>
        <path d="M0.717304633,0.142512545 C0.219341159,1.76286781 0.797518478,3.58567246 2.26765962,4.59916486 L20.1567697,16.9382682 L20.258551,16.9382682 L20.258551,0.142512545 L0.717304633,0.142512545 L0.717304633,0.142512545 Z" id="path-3"></path>
        <path d="M7.88119276,0.142512545 L0.721683529,10.5231263 C0.395044776,10.996838 0.513615213,11.6472653 0.988467014,11.9739041 L8.18557246,16.9382682 L8.28749723,16.9382682 L8.28749723,0.142512545 L7.88119276,0.142512545 L7.88119276,0.142512545 Z" id="path-5"></path>
        <path d="M0.558597134,0.142512545 L1.46787922,6.01915986 C1.80477887,8.19675156 3.84327832,9.68914293 6.02087001,9.35224327 L18.9575888,7.35193719 C21.1351805,7.01446748 22.6275719,4.97596803 22.2906722,2.79780629 L21.8800117,0.142512545 L0.558597134,0.142512545 L0.558597134,0.142512545 Z" id="path-7"></path>
        <path d="M3.62431106,0.21969734 C1.40341857,0.813582973 -0.0587541445,2.99767981 0.300416446,5.32084839 L1.50493248,13.1060237 C1.88971635,15.5948628 4.21951144,17.300453 6.70835053,16.915099 L29.3689853,13.4104305 C30.0205527,13.3095316 30.466902,12.700148 30.3660031,12.0485806 L28.5363322,0.21969734 L3.62431106,0.21969734 L3.62431106,0.21969734 Z" id="path-9"></path>
        <path d="M0.0835693566,12.6679494 L17.3979315,9.99012943 C18.0494989,9.88923054 18.4958482,9.2798469 18.3949493,8.62827954 L17.0823857,0.142512545 L0.0835693566,0.142512545 L0.0835693566,12.6679494 L0.0835693566,12.6679494 Z" id="path-11"></path>
        <path d="M3.94859398,0.124327945 C2.2224525,1.61816929 0.899775372,3.4307846 0.00609953694,5.41094096 L0.00609953694,18.1140265 C0.408714057,19.0011561 0.901739032,19.8627842 1.48726092,20.686551 C2.67831352,22.362179 4.14308262,23.7278123 5.77757563,24.7658871 L22.301176,24.7658871 C22.5259503,24.622874 22.748267,24.473325 22.9678919,24.3172006 C29.9019823,19.3879767 31.5271953,9.77123016 26.5985415,2.83713975 C25.873172,1.81652984 25.0462392,0.910943217 24.1412467,0.124327945 L3.94859398,0.124327945 L3.94859398,0.124327945 Z" id="path-13"></path>
        <path d="M1.88411614,0.0193255737 C-0.995336757,7.74190812 -0.120042899,16.7093099 5.01473144,23.9329868 C13.245686,35.5124161 29.3051397,38.2269951 40.8851391,29.9960405 C50.5995999,23.090615 54.0745923,10.67626 50.0823989,0.0193259374 L1.8841164,0.0193259374 L1.88411614,0.0193255737 Z" id="path-15"></path>
        <path d="M33.5914392,0.052140142 L0.729094182,23.4119609 C-0.0410436131,23.9597792 -0.221749521,25.0269131 0.325498654,25.7970509 L2.03735935,28.2043728 C2.58403747,28.9745106 3.65174146,29.1552165 4.42187926,28.6079683 L43.3181783,0.958818839 L43.3181783,0.052140142 L33.5914392,0.052140142 L33.5914392,0.052140142 Z" id="path-17"></path>
        <path d="M6.02169037,28.4772558 L0.40872598,20.5810917 L29.2715068,0.0644156705 C30.550884,0.180744954 31.7598526,0.491110486 32.9048356,0.970106479 L32.9048356,28.4772558 L6.02169037,28.4772558 L6.02169037,28.4772558 Z" id="path-19"></path>
        <path d="M28.8485865,14.6998755 L4.03538523,9.07462884 C1.46103861,8.49089745 -0.153913549,5.93023204 0.429817837,3.35474532 C0.723621151,2.06263949 1.51392224,1.01326592 2.55316146,0.36158283 L8.84814659,0.36158283 L28.8485865,4.89544614 L28.8485865,14.6998755 L28.8485865,14.6998755 Z" id="path-21"></path>
        <path d="M0.0967945208,14.719688 L15.9636853,0.670379013 C16.0739191,0.57327973 16.1873218,0.482136712 16.3035022,0.396925941 L21.9657144,0.396925941 C22.2328414,0.593767246 22.4834833,0.821640514 22.7125094,1.08024509 C24.4625634,3.05717912 24.2784372,6.07844508 22.3026433,7.82906919 L0.0967945208,27.4901151 L0.0967945208,14.719688 L0.0967945208,14.719688 Z" id="path-23"></path>
        <path d="M2.76931171,0.234005599 L1.67195718,1.20565613 L0.238908031,0.880800831 L0.238908031,10.6852285 L1.94786147,11.0726547 C3.28177889,11.3747813 4.67270134,11.0897562 5.77460834,10.3065073 C5.91256048,10.2084586 6.04595222,10.1029994 6.17421351,9.98955938 L9.66069743,6.90262849 L9.66069743,0.234005599 L2.76931171,0.234005599 L2.76931171,0.234005599 Z" id="path-25"></path>
        <polygon id="path-27" points="0.692553965 10.4764866 0.122503784 10.3472541 0.122503784 0.542810458 0.531856819 0.635605952 0.692553965 0.493316962"></polygon>
        <path d="M8.30489008,9.8132101 L6.17421351,11.6997099 C6.04595222,11.8131499 5.91256048,11.9186092 5.77460834,12.0166578 C5.19609611,12.4278714 4.53792095,12.7017567 3.85015599,12.825445 L2.1578018,12.825445 C2.08769855,12.8128328 2.01770187,12.7986238 1.94786147,12.7828053 L0.553347711,12.4666637 L0.553347711,2.66223113 L1.67195718,2.91580668 L4.86661407,0.0871036677 L8.30489008,0.0871036677 L8.30489008,9.8132101 L8.30489008,9.8132101 Z" id="path-29"></path>
        <path d="M4.59027208,12.6301542 C3.75254994,12.9246325 2.83752689,12.9843107 1.94786147,12.7828053 L0.324016523,12.4146735 L0.324016523,2.61024446 L1.67195718,2.91580668 L4.59027208,0.331790167 L4.59027208,12.6301542 Z" id="path-31"></path>
        <path d="M0.532198849,7.83771196 L7.98298274,1.24042919 C8.89677318,0.435518338 10.0283228,0.0399035127 11.1547419,0.0399035127 C12.4749782,0.0399035127 13.7872337,0.583731386 14.7318068,1.65029527 C16.4818609,3.6272293 16.2977347,6.64849526 14.3219408,8.39911937 L8.04295053,13.9585338 L0.532198849,13.9585338 L0.532198849,7.83771196 L0.532198849,7.83771196 Z" id="path-33"></path>
        <path d="M0.366143231,13.1194149 L6.34123822,7.82906919 C8.31703214,6.07844508 8.50115835,3.05717912 6.7511043,1.08024509 C6.52207822,0.821640514 6.27143634,0.593767246 6.00430597,0.396925941 L0.366143231,0.396925941 L0.366143231,13.1194149 L0.366143231,13.1194149 Z" id="path-35"></path>
        <path d="M27.5346209,19.8356966 L26.9063686,22.0894445 C26.7290829,22.7250505 26.070675,23.0955831 25.4356391,22.9188675 L3.34790471,16.7611855 C0.921771143,16.085106 -0.496513708,13.5700446 0.179565807,11.143911 L2.29502203,3.55597303 C2.85652146,1.53970554 4.68923279,0.21946932 6.68440843,0.21889927 C7.09028415,0.21889927 7.50243044,0.273624087 7.91229652,0.387634123 L27.5346209,5.85800209 L27.5346209,19.8356966 L27.5346209,19.8356966 Z" id="path-37"></path>
    </defs>
    <g id="Page-1" stroke="none" stroke-width="1" fill="none" fill-rule="evenodd">
        <g id="01---File-tree" transform="translate(-784.000000, -354.000000)">
            <g id="Welcome" transform="translate(467.000000, -57.000000)">
                <g id="BG">
                    <g id="Astronaute" transform="translate(317.000000, 411.000000)">
                        <path d="M20.0084872,60.6242776 L26.2824595,56.164775 L57.0577586,99.4595162 L51.2301356,103.602641 C48.6529388,105.434212 45.1015261,104.978742 43.0698673,102.556029 L18.4037959,73.1397293 C15.1835825,69.2987312 15.9235076,63.5281132 20.0084872,60.6242776" id="Fill-82" fill="#FFFFFF"></path>
                        <g id="Group-86" transform="translate(16.509690, 56.036058)">
                            <mask id="mask-2" fill="white">
                                <use xlink:href="#path-1"></use>
                            </mask>
                            <g id="Clip-85"></g>
                            <path d="M0.498223858,5.41769992 C0.498223858,5.41769992 2.95970054,8.88132482 5.55798927,7.03493228 C8.15570794,5.18853974 9.88752039,3.95723135 9.88752039,3.95723135 L35.1230719,39.4593866 C35.1230719,39.4593866 36.7192124,43.5386657 32.3896812,46.6157966 C28.0607202,49.6934975 20.7891601,43.1316499 20.7891601,43.1316499 L38.044009,58.2379797 L45.8582569,43.5591875 L8.06221971,-7.77896178 L0.498223858,5.41769992 Z" id="Fill-84" fill="#E1E4E5" mask="url(#mask-2)"></path>
                        </g>
                        <path d="M101.231745,89.301336 L101.231745,89.301336 C103.563821,85.9203684 108.195478,85.0698535 111.575876,87.4019288 L126.656553,97.8036345 C128.470453,99.0548946 128.926493,101.539743 127.675233,103.354213 L123.761269,109.027923 C122.510578,110.841822 120.02573,111.297862 118.21126,110.047172 L103.131152,99.6454666 C99.7501848,97.3133913 98.89967,92.6823036 101.231745,89.301336" id="Fill-87" fill="#E1E4E5"></path>
                        <g id="Group-91" transform="translate(98.026866, 93.089319)">
                            <mask id="mask-4" fill="white">
                                <use xlink:href="#path-3"></use>
                            </mask>
                            <g id="Clip-90"></g>
                            <path d="M-10.2035562,0.142512545 L3.13333783,2.09493442 C3.13333783,2.09493442 9.3389041,2.42214322 14.4967181,7.61473032 C19.6539621,12.8078875 21.0585658,14.7278165 19.8551898,16.7309728 C18.652384,18.7335591 -14.1676852,5.56711007 -14.1676852,5.56711007 L-10.2035562,0.142512545 Z" id="Fill-89" fill="#97A9AF" mask="url(#mask-4)"></path>
                        </g>
                        <g id="Group-98" transform="translate(109.997920, 89.669018)">
                            <path d="M20.6609558,3.74654081 L20.9385702,3.34351533 C18.9394042,6.2410804 14.9707149,6.97017458 12.0725797,4.97157865 L9.4332474,3.15083837 C8.95896565,2.82362956 8.30910845,2.9433401 7.98189964,3.4170518 L0.721170484,13.9430284 C0.39453173,14.4173101 0.513672218,15.0671674 0.987953969,15.3943762 L8.87459823,20.833795 L16.7452811,26.2629529 L25.1900045,14.0194151 L33.0316148,2.65090436 L31.6857263,1.72229261 C28.0824391,-0.763126178 23.1458045,0.143253611 20.6609558,3.74654081" id="Fill-92" fill="#FFFFFF"></path>
                            <path d="M18.7799042,27.0548096 L34.4950476,4.27104398 C34.6529515,4.04245386 34.5953764,3.72949631 34.3667863,3.57159241 L33.0317288,2.65039131 L16.7453951,26.2624399 L18.0798826,27.183641 C18.3090427,27.3409748 18.6225703,27.2833997 18.7799042,27.0548096" id="Fill-94" fill="#CCD3D6"></path>
                            <polygon id="Fill-96" fill="#CCD3D6" points="12.0723517 4.97152164 3.62762834 17.2150594 1.87814433 16.0082632 10.3234378 3.76529546"></polygon>
                        </g>
                        <g id="Group-101" transform="translate(109.997920, 93.089319)">
                            <mask id="mask-6" fill="white">
                                <use xlink:href="#path-5"></use>
                            </mask>
                            <g id="Clip-100"></g>
                            <path d="M-22.17461,0.142512545 L-8.83771598,2.09493442 C-8.83771598,2.09493442 -2.63214971,2.42214322 2.52566433,7.61473032 C7.68290832,12.8078875 9.08751197,14.7278165 7.88413604,16.7309728 C6.68133015,18.7335591 -26.138739,5.56711007 -26.138739,5.56711007 L-22.17461,0.142512545 Z" id="Fill-99" fill="#97A9AF" mask="url(#mask-6)"></path>
                        </g>
                        <g id="Group-106" transform="translate(71.804558, 85.678667)">
                            <path d="M42.2855814,6.80303587 L42.2855814,6.80303587 C42.9137767,10.8617932 40.1325018,14.6611776 36.0737446,15.2888029 L26.5430756,16.7629526 C24.3649138,17.0998523 22.3264144,15.6074609 21.9895147,13.4298692 L20.936062,6.61776956 C20.5991623,4.44017787 22.0915537,2.40110837 24.2697155,2.06420871 L33.7998144,0.590628993 C37.8585717,-0.0375663069 41.6579561,2.74427858 42.2855814,6.80303587" id="Fill-102" fill="#E1E4E5"></path>
                            <path d="M28.1328885,1.59990284 L30.3663451,16.0387039 C30.467244,16.6902712 30.0208947,17.3002249 29.3693274,17.4011238 L6.70869256,20.9057923 C4.21985347,21.2905762 1.89005838,19.5849861 1.50470446,17.096147 L0.300758476,9.31154169 C-0.0840253967,6.8227026 1.6209947,4.49290751 4.11040384,4.10755359 L26.7704686,0.602315022 C27.422606,0.50198619 28.0319896,0.948335482 28.1328885,1.59990284" id="Fill-104" fill="#FFFFFF"></path>
                        </g>
                        <g id="Group-109" transform="translate(92.326364, 93.089319)">
                            <mask id="mask-8" fill="white">
                                <use xlink:href="#path-7"></use>
                            </mask>
                            <g id="Clip-108"></g>
                            <path d="M-4.5030544,0.142512545 L8.83383964,2.09493442 C8.83383964,2.09493442 15.0394059,2.42214322 20.19722,7.61473032 C25.3544639,12.8078875 26.7590676,14.7278165 25.5556917,16.7309728 C24.3528858,18.7335591 -8.46718336,5.56711007 -8.46718336,5.56711007 L-4.5030544,0.142512545 Z" id="Fill-107" fill="#97A9AF" mask="url(#mask-8)"></path>
                        </g>
                        <g id="Group-116" transform="translate(71.804558, 89.669018)">
                            <g id="Group-112">
                                <mask id="mask-10" fill="white">
                                    <use xlink:href="#path-9"></use>
                                </mask>
                                <g id="Clip-111"></g>
                                <path d="M3.98254158,1.28455108 C3.98254158,1.28455108 0.689931734,8.98250873 6.19718654,12.1913212 C11.7050114,15.4001337 30.0087527,9.73554502 30.0087527,9.73554502 L31.0536546,18.0651183 L5.74228649,19.3032673 L-1.2984033,10.2839333 L2.00332735,0.21969734 L3.98254158,1.28455108 Z" id="Fill-110" fill="#E1E4E5" mask="url(#mask-10)"></path>
                            </g>
                            <g id="Group-115" transform="translate(11.971054, 3.420301)">
                                <mask id="mask-12" fill="white">
                                    <use xlink:href="#path-11"></use>
                                </mask>
                                <g id="Clip-114"></g>
                                <path d="M4.04769832,0.142512545 L17.3845924,2.09493442 C17.3845924,2.09493442 23.5901586,2.42214322 28.7479727,7.61473032 C33.9052167,12.8078875 35.3098203,14.7278165 34.1064444,16.7309728 C32.9036385,18.7335591 0.0835693566,5.56711007 0.0835693566,5.56711007 L4.04769832,0.142512545 Z" id="Fill-113" fill="#97A9AF" mask="url(#mask-12)"></path>
                            </g>
                        </g>
                        <path d="M60.7509427,104.655125 C65.6795966,111.589785 75.2974833,113.214998 82.2315737,108.285774 C89.1656641,103.35655 90.7908771,93.7398037 85.8622233,86.8057133 C80.9329994,79.8710529 71.3156827,78.2452698 64.3815923,83.1744937 C57.4475019,88.1037176 55.8222889,97.7210342 60.7509427,104.655125" id="Fill-117" fill="#CCD3D6"></path>
                        <g id="Group-121" transform="translate(59.263454, 83.968517)">
                            <mask id="mask-14" fill="white">
                                <use xlink:href="#path-13"></use>
                            </mask>
                            <g id="Clip-120"></g>
                            <polygon id="Fill-119" fill="#BAC7CC" mask="url(#mask-14)" points="0.00609953694 20.436356 28.581005 0.124327945 31.6581359 4.45385907 3.08323042 24.7658871"></polygon>
                        </g>
                        <path d="M5.56295956,40.635525 C-2.66799501,29.0560957 0.0460139077,12.9966419 11.6260133,4.76511733 C23.2048726,-3.46583724 39.2648963,-0.751828326 47.4964209,10.8281711 C55.7273755,22.4076004 53.0127966,38.4670541 41.4333672,46.6985787 C29.8533678,54.9295333 13.7939141,52.2149543 5.56295956,40.635525" id="Fill-122" fill="#FFFFFF"></path>
                        <g id="Group-126" transform="translate(0.548285, 16.702595)">
                            <mask id="mask-16" fill="white">
                                <use xlink:href="#path-15"></use>
                            </mask>
                            <g id="Clip-125"></g>
                            <path d="M50.3085816,24.0228267 C50.3085816,24.0228267 17.9405623,43.4757892 0.341403054,11.1482434 C-17.2577562,-21.1793024 -5.71652022,27.2076971 -5.71652022,27.2076971 L17.0262018,46.9553755 L57.4957743,25.8059437 L50.3085816,24.0228267 Z" id="Fill-124" fill="#E1E4E5" mask="url(#mask-16)"></path>
                        </g>
                        <g id="Group-135" transform="translate(9.669088, 3.021391)">
                            <path d="M4.06103749,32.8967409 C-2.58460752,23.5479179 -0.392764575,10.5815565 8.9560584,3.93591148 C18.3048814,-2.70973354 31.2712428,-0.51846064 37.9174579,8.83093238 C44.5631029,18.1797554 42.3712599,31.1461168 33.022437,37.7917618 C23.6730439,44.4374068 10.7066825,42.2455639 4.06103749,32.8967409" id="Fill-127" fill="#33454E"></path>
                            <path d="M31.5309007,6.75600673 C32.9605865,7.82485082 34.2506101,9.13026573 35.339976,10.6631307" id="Stroke-129" stroke="#FFFFFF" stroke-width="2" stroke-linecap="round"></path>
                            <path d="M10.7886557,6.51327936 C15.1672112,3.40080537 20.4823591,2.57480266 25.3123942,3.79585015" id="Stroke-131" stroke="#FFFFFF" stroke-width="2" stroke-linecap="round"></path>
                            <path d="M11.2623674,58.2503498 L50.903657,30.0716292 C51.6737948,29.524381 51.8539307,28.456677 51.3066825,27.6871093 L49.5953919,25.2797874 C49.0481437,24.5096496 47.9804397,24.3295137 47.210872,24.8767619 L7.5690123,53.0549124 C6.79944455,53.6021606 6.61873864,54.6698646 7.16598682,55.4394323 L8.87727746,57.8467542 C9.42452564,58.616892 10.4922296,58.7975979 11.2623674,58.2503498" id="Fill-133" fill="#FFFFFF"></path>
                        </g>
                        <g id="Group-138" transform="translate(16.509690, 32.664000)">
                            <mask id="mask-18" fill="white">
                                <use xlink:href="#path-17"></use>
                            </mask>
                            <g id="Clip-137"></g>
                            <path d="M1.49974502,22.8643707 C1.49974502,22.8643707 3.09588553,26.9430798 5.69303416,25.0966873 C8.29132288,23.2502947 40.3292832,0.476219921 40.3292832,0.476219921 C40.3292832,0.476219921 42.0610956,-0.75451842 43.292404,0.977294031 C44.5237124,2.70910648 1.22840114,33.4844056 1.22840114,33.4844056 L-4.31077648,25.6912496 L1.49974502,22.8643707 Z" id="Fill-136" fill="#E1E4E5" mask="url(#mask-18)"></path>
                        </g>
                        <path d="M26.6091552,57.2357283 L60.4627254,104.860001 L85.8618812,86.8053713 C85.8618812,86.8053713 79.5918993,74.317282 78.0812663,69.9244753 C73.1919459,55.7057136 67.3837046,37.8015775 55.4725061,36.7184822 L26.6091552,57.2357283 Z" id="Fill-139" fill="#FFFFFF"></path>
                        <g id="Group-149" transform="translate(25.978224, 36.166009)">
                            <g id="Group-146" transform="translate(0.222320, 0.488343)">
                                <mask id="mask-20" fill="white">
                                    <use xlink:href="#path-19"></use>
                                </mask>
                                <g id="Clip-145"></g>
                                <path d="M32.9048356,0.970054393 C32.9048356,0.970054393 1.69914858,14.4506011 5.80407993,28.4772558 L-7.1896439,12.9485189 L30.273484,-5.86142698 L32.9048356,0.970054393 Z" id="Fill-144" fill="#CCD3D6" mask="url(#mask-20)"></path>
                            </g>
                            <path d="M31.5778728,17.3195876 L41.1815082,10.4932367 C41.3992674,10.3387531 41.7002539,10.3894876 41.8547375,10.6072468 L47.45035,18.4784997 C47.6048336,18.6962588 47.5535291,18.9972453 47.33691,19.152299 L37.7332746,25.9786499 C37.5155155,26.1331335 37.214529,26.082399 37.0594753,25.8646399 L31.4644328,17.9933869 C31.3093792,17.7756278 31.3606837,17.4740712 31.5778728,17.3195876" id="Fill-147" fill="#E1E4E5"></path>
                        </g>
                        <g id="Group-170" transform="translate(33.041145, 15.562495)">
                            <path d="M25.3811423,37.3076752 L34.9847777,30.4807542 C35.2019668,30.3262706 35.5035234,30.3775751 35.658007,30.5947642 L40.6379653,37.600681 C40.7924489,37.8184401 40.7411444,38.1194266 40.5239553,38.2744803 L30.92089,45.1008312 C30.7031308,45.2553148 30.4015742,45.2045803 30.2470906,44.9868212 L25.2671323,37.9809044 C25.1126487,37.7637153 25.1633831,37.4621588 25.3811423,37.3076752" id="Fill-150" fill="#FFFFFF"></path>
                            <path d="M43.8671286,0.350979897 L64.138113,9.39938642 C64.739516,9.66788006 65.0712852,10.3211576 64.9339031,10.9658843 L58.7579794,39.8246747 C58.6331384,40.4078361 58.003233,40.7282043 57.458265,40.4847929 L36.8823037,31.3001443 C36.5151914,31.1365399 36.3122536,30.7375048 36.396621,30.3436001 L42.6865547,0.950672687 C42.7994246,0.421096069 43.372325,0.129800426 43.8671286,0.350979897" id="Fill-152" fill="#5DE6F9"></path>
                            <polygon id="Fill-154" fill="#EFEFEF" points="42.6040114 1.33551356 63.7568635 9.55734733 57.1026677 40.6547248 35.9492456 32.432321"></polygon>
                            <polygon id="Fill-156" fill="#F9F9F9" points="41.5947376 2.59777568 63.7571485 9.55751834 57.1023827 40.6543258 34.9399718 33.6945831"></polygon>
                            <polygon id="Fill-158" fill="#FFFFFF" points="40.5854637 3.8600948 63.7568635 9.55774636 57.1026677 40.6545538 33.9306979 34.9569022"></polygon>
                            <path d="M56.3954635,40.5033195 L33.3306631,35.567825 C32.7976662,35.453815 32.4590564,34.9293688 32.5724963,34.3969419 L38.8139758,5.22918432 C38.9279858,4.6961874 39.452432,4.35700755 39.9854289,4.47101758 L63.0502293,9.40651205 L56.3954635,40.5033195 Z" id="Fill-160" fill="#5DE6F9"></path>
                            <path d="M57.6763662,40.7775136 L56.3954635,40.5033195 L63.0502293,9.40651205 L64.331132,9.68070619 C64.7945828,9.77989492 65.0898688,10.2359351 64.9906801,10.6993859 L58.6956159,40.1173955 C58.5964272,40.5814164 58.139817,40.8767024 57.6763662,40.7775136" id="Fill-162" fill="#5DE6F9"></path>
                            <polygon id="Fill-164" fill="#437DD2" points="56.3954635 40.5033195 57.1023257 40.6543828 63.7570915 9.55757535 63.0502293 9.40651205"></polygon>
                            <path d="M47.3197515,24.6037079 L48.3030881,24.5512632 C48.6171857,24.5347318 48.8856794,24.775863 48.9022108,25.0905307 L49.210608,30.8862309 L47.0888812,30.9991008 L46.7810541,25.2034006 C46.7639526,24.8887329 47.0050838,24.6202393 47.3197515,24.6037079" id="Fill-166" fill="#BAC7CC"></path>
                            <path d="M34.2770604,52.4902777 C33.1751534,53.2735266 31.784231,53.5585517 30.4503135,53.2558551 L4.03532823,47.2674779 C1.46098161,46.6837465 -0.153400504,44.1230811 0.429760832,41.5487345 C1.01577242,38.9709676 3.57757793,37.3594357 6.1490743,37.9431671 L30.1744092,43.3888565 L50.7366893,25.1820238 C52.721034,23.4342499 55.7360294,23.6160959 57.4855134,25.5924599 C59.2355675,27.5693939 59.0520113,30.5906599 57.0756473,32.341284 L34.6766656,52.1733298 C34.5489743,52.2867698 34.4150125,52.3922291 34.2770604,52.4902777" id="Fill-168" fill="#FFFFFF"></path>
                        </g>
                        <g id="Group-195" transform="translate(33.041145, 39.504602)">
                            <g id="Group-173" transform="translate(0.000000, 14.251255)">
                                <mask id="mask-22" fill="white">
                                    <use xlink:href="#path-21"></use>
                                </mask>
                                <g id="Clip-172"></g>
                                <path d="M2.53906051,0.36158283 C2.53906051,0.36158283 2.48604585,0.508655777 2.41592967,0.756627606 C2.07788992,1.94974263 1.34309523,5.48348371 4.21386794,6.23138955 C7.67977305,7.13491908 28.8485865,11.7152723 28.8485865,11.7152723 L28.649069,18.2976417 L1.36760739,12.9249188 L-3.305664,4.51610855" id="Fill-171" fill="#E1E4E5" mask="url(#mask-22)"></path>
                            </g>
                            <g id="Group-176" transform="translate(34.773061, 0.570050)">
                                <mask id="mask-24" fill="white">
                                    <use xlink:href="#path-23"></use>
                                </mask>
                                <g id="Clip-175"></g>
                                <path d="M22.2609156,0.396925941 C22.2609156,0.396925941 24.6938898,2.90343659 20.1135366,7.46269794 C15.5337534,12.0219593 0.0967945208,24.29856 0.0967945208,24.29856 L3.13972239,31.2594428 L29.137431,3.65476273 L22.2609156,0.396925941 Z" id="Fill-174" fill="#E1E4E5" mask="url(#mask-24)"></path>
                            </g>
                            <g id="Group-179" transform="translate(28.502509, 18.241606)">
                                <mask id="mask-26" fill="white">
                                    <use xlink:href="#path-25"></use>
                                </mask>
                                <g id="Clip-178"></g>
                                <polygon id="Fill-177" fill="#E1E4E5" mask="url(#mask-26)" points="0.592339143 0.960819581 0.238908031 10.6847356 4.7155121 14.3176654 9.66069743 12.1064407 2.52537931 0.234005599"></polygon>
                            </g>
                            <g id="Group-182" transform="translate(29.642609, 18.811656)">
                                <mask id="mask-28" fill="white">
                                    <use xlink:href="#path-27"></use>
                                </mask>
                                <g id="Clip-181"></g>
                                <path d="M0.6440997,-0.461227602 L0.122503784,11.6403677" id="Stroke-180" stroke="#CCD3D6" mask="url(#mask-28)"></path>
                            </g>
                            <g id="Group-185" transform="translate(28.502509, 16.531455)">
                                <mask id="mask-30" fill="white">
                                    <use xlink:href="#path-29"></use>
                                </mask>
                                <g id="Clip-184"></g>
                                <path d="M0.553347711,0.0871036677 L8.30489008,12.825445" id="Stroke-183" stroke="#CCD3D6" mask="url(#mask-30)"></path>
                            </g>
                            <g id="Group-188" transform="translate(28.502509, 16.531455)">
                                <mask id="mask-32" fill="white">
                                    <use xlink:href="#path-31"></use>
                                </mask>
                                <g id="Clip-187"></g>
                                <path d="M0.324016523,-7.57043742 L4.59027208,16.7684251" id="Stroke-186" stroke="#CCD3D6" mask="url(#mask-32)"></path>
                            </g>
                            <g id="Group-191" transform="translate(42.753764, 0.000000)">
                                <mask id="mask-34" fill="white">
                                    <use xlink:href="#path-33"></use>
                                </mask>
                                <g id="Clip-190"></g>
                                <polygon id="Fill-189" fill="#CCD3D6" mask="url(#mask-34)" points="0.532198849 4.54814537 11.1317119 13.9585338 23.1392489 1.51262816 14.3866985 -5.30004156"></polygon>
                            </g>
                            <g id="Group-194" transform="translate(50.734466, 0.570050)">
                                <mask id="mask-36" fill="white">
                                    <use xlink:href="#path-35"></use>
                                </mask>
                                <g id="Clip-193"></g>
                                <path d="M3.15083837,13.3883696 L12.7407926,3.44840456 L6.29922552,0.396925941 C6.29922552,0.396925941 8.73219969,2.90343659 4.15241654,7.46269794 C3.2477469,8.36337722 1.91553962,9.56732321 0.366143231,10.9160619 L3.15083837,13.3883696 Z" id="Fill-192" fill="#BAC7CC" mask="url(#mask-36)"></path>
                            </g>
                        </g>
                        <g id="Group-208" transform="translate(71.234508, 91.949219)">
                            <path d="M31.1740492,10.3922998 L31.1740492,10.3922998 C34.692969,8.27513346 39.2624913,9.41124347 41.3796576,12.9307333 L50.8248191,28.6276351 C51.9609291,30.5162113 51.3515455,32.9679972 49.4623992,34.1041072 L43.5566793,37.6578 C41.668103,38.79391 39.2163172,38.1839563 38.0802072,36.2953801 L28.6356158,20.5984783 C26.5184494,17.0789885 27.6545594,12.5094662 31.1740492,10.3922998" id="Fill-196" fill="#E1E4E5"></path>
                            <path d="M56.2813394,26.2818786 L56.7003263,26.0299164 C53.6836207,27.8443861 49.767376,26.8707404 47.9529063,23.8540349 L46.2991907,21.106393 C46.0027646,20.6132996 45.3614581,20.4536855 44.8677947,20.7506817 L33.9114302,27.342742 C33.4177668,27.6397381 33.2581527,28.2810446 33.5551488,28.774708 L38.4946337,36.9834306 L43.4238576,45.1767619 L56.1684695,37.5084469 L68.0021412,30.3885201 L67.159037,28.9873367 C64.9022083,25.2364065 60.0322696,24.0250499 56.2813394,26.2818786" id="Fill-198" fill="#FFFFFF"></path>
                            <path d="M44.950452,46.7380153 L68.6668197,32.4685192 C68.9045306,32.3254366 68.9809174,32.0158993 68.8378348,31.7776184 L68.0021412,30.3884061 L43.4238576,45.1766479 L44.2595511,46.5658602 C44.4032038,46.8041411 44.712171,46.8810979 44.950452,46.7380153" id="Fill-200" fill="#CCD3D6"></path>
                            <polygon id="Fill-202" fill="#CCD3D6" points="47.9526783 23.8541489 35.2086364 31.5218939 34.113 29.7011536 46.8570418 22.0334086"></polygon>
                            <path d="M41.5741588,18.5948089 L41.5741588,18.5948089 C40.4711117,22.5509572 36.3701706,24.8642208 32.4140224,23.7611737 L23.1250547,21.1720058 C21.0016178,20.5797236 19.7606185,18.3793299 20.3523306,16.256463 L22.2038536,9.61708859 C22.7955657,7.49422171 24.9959594,6.25322247 27.1188263,6.84493456 L36.407794,9.43467253 C40.3645123,10.5371496 42.6777759,14.6386606 41.5741588,18.5948089" id="Fill-204" fill="#E1E4E5"></path>
                            <path d="M30.8294539,8.01576062 L26.9057985,22.0891595 C26.7290829,22.7247655 26.070675,23.0958681 25.4356391,22.9191526 L3.34790471,16.7614705 C0.921771143,16.0848209 -0.496513708,13.5697595 0.179565807,11.143626 L2.29445198,3.55568801 C2.97110154,1.12955443 5.48616294,-0.288730417 7.91229652,0.387919148 L30.0000309,6.54503116 C30.6350668,6.72231676 31.0067395,7.38072472 30.8294539,8.01576062" id="Fill-206" fill="#FFFFFF"></path>
                        </g>
                        <g id="Group-211" transform="translate(71.234508, 91.949219)">
                            <mask id="mask-38" fill="white">
                                <use xlink:href="#path-37"></use>
                            </mask>
                            <g id="Clip-210"></g>
                            <path d="M7.31437088,1.39810507 C7.31437088,1.39810507 1.13844722,7.05129272 4.83180234,12.2467301 C8.52458742,17.4427375 27.5346209,19.8352381 27.5346209,19.8352381 L25.0492021,27.854134 L1.48275753,18.5378039 L-1.20901943,7.41669489 L5.95081085,-0.388432194 L7.31437088,1.39810507 Z" id="Fill-209" fill="#E1E4E5" mask="url(#mask-38)"></path>
                        </g>
                    </g>
                </g>
            </g>
        </g>
    </g>
</svg>