<?xml version="1.0" encoding="UTF-8"?>
<svg width="135px" height="41px" viewBox="0 0 135 41" version="1.1" xmlns="http://www.w3.org/2000/svg" xmlns:xlink="http://www.w3.org/1999/xlink">
    <!-- Generator: Sketch 46.2 (44496) - http://www.bohemiancoding.com/sketch -->
    <title>keppler</title>
    <desc>Created with Sketch.</desc>
    <defs>
        <rect id="path-1" x="0.806451613" y="0.741935484" width="133.467102" height="39.5897702"></rect>
    </defs>
    <g id="Page-1" stroke="none" stroke-width="1" fill="none" fill-rule="evenodd" opacity="0.900000036">
        <g id="01.2---Styles.css-ouvert" transform="translate(-112.000000, -26.000000)">
            <g id="logo/nom-du-projet" transform="translate(-25.000000, -18.000000)">
                <g id="keppler" transform="translate(137.000000, 44.000000)">
                    <mask id="mask-2" fill="white">
                        <use xlink:href="#path-1"></use>
                    </mask>
                    <g id="path-1"></g>
                    <path d="M0.806451613,30.092599 C0.806451613,31.3667363 1.6255399,32.1403197 2.71765761,32.1403197 C3.80977529,32.1403197 4.62886361,31.3667363 4.62886361,30.092599 L4.62886361,25.269079 L8.45127561,20.991618 L14.5944377,31.0482019 C15.0494868,31.7762804 15.6410505,32.1403197 16.369129,32.1403197 C17.4157418,32.1403197 18.1893252,31.3667363 18.1893252,30.4111333 C18.1893252,30.0015892 18.0983154,29.6375499 17.8707908,29.2735106 L10.9995503,18.2613237 L16.0505946,12.7552303 C16.4146339,12.3456861 16.5966535,11.9816469 16.5966535,11.481093 C16.5966535,10.52549 15.868575,9.88842129 15.0039819,9.88842129 C14.4124181,9.88842129 13.957369,10.1159458 13.5478249,10.5709949 L4.62886361,20.6275788 L4.62886361,2.78965619 C4.62886361,1.51551884 3.80977529,0.741935484 2.71765761,0.741935484 C1.6255399,0.741935484 0.806451613,1.51551884 0.806451613,2.78965619 L0.806451613,30.092599 Z M30.3169766,32.4133491 C25.8119911,32.4133491 22.7631625,30.3201235 21.5345301,26.4977115 C21.079481,25.1325643 20.8064516,23.5853976 20.8064516,20.991618 C20.8064516,18.3978385 21.0339761,16.8506717 21.4890252,15.4855246 C22.7176576,11.7086175 25.857496,9.61539187 29.9984423,9.61539187 C34.2759034,9.61539187 37.3702369,11.7086175 38.5533644,15.4400197 C39.0539183,16.8961766 39.2814429,18.5798581 39.2814429,20.7185886 C39.2814429,21.5831818 38.6898791,22.1747455 37.779781,22.1747455 L24.9929028,22.1747455 C24.8108832,22.1747455 24.7198734,22.2657554 24.7198734,22.447775 C24.7198734,23.4943878 24.8108832,24.2224663 25.0839126,25.0870594 C25.9030009,27.5898292 27.9052167,28.8639665 30.5900061,28.8639665 C32.7287366,28.8639665 34.1848935,28.2268979 35.8230701,26.9982654 C36.2781192,26.6342262 36.6876633,26.4522066 37.1427124,26.4522066 C38.0528105,26.4522066 38.735384,27.1347801 38.735384,28.0448783 C38.735384,28.5909371 38.5078595,29.0459861 38.1438203,29.4100254 C36.2781192,31.1392117 33.6843396,32.4133491 30.3169766,32.4133491 Z M24.9923859,19.125917 L35.0944746,19.125917 C35.2764943,19.125917 35.3675041,19.0349071 35.3675041,18.8528875 C35.3675041,17.8517796 35.2764943,17.0781963 35.0489697,16.3956226 C34.3208913,14.2113872 32.5006951,12.9827548 30.0434303,12.9827548 C27.5861654,12.9827548 25.7659692,14.2113872 25.0378908,16.3956226 C24.8103662,17.0781963 24.7193564,17.8517796 24.7193564,18.8528875 C24.7193564,19.0349071 24.8103662,19.125917 24.9923859,19.125917 Z M45.1370125,40.3312025 C44.0448947,40.3312025 43.2258065,39.5576191 43.2258065,38.2834817 L43.2258065,11.936142 C43.2258065,10.6620047 44.0448947,9.88842129 45.1370125,9.88842129 C46.2291301,9.88842129 47.0482185,10.6620047 47.0482185,11.936142 L47.0482185,12.5277057 L47.0937234,12.5277057 C48.1403361,10.7985194 50.0515421,9.61539187 53.2823904,9.61539187 C56.9682876,9.61539187 59.653077,11.6631126 60.7906994,15.0759805 C61.3367587,16.8051668 61.5642832,18.5343532 61.5642832,21.0371229 C61.5642832,23.4943878 61.3367587,25.2235741 60.7906994,26.9527605 C59.653077,30.3656284 56.9682876,32.4133491 53.2823904,32.4133491 C50.0060372,32.4133491 48.0948312,31.1847166 47.0937234,29.5010352 L47.0482185,29.5010352 L47.0482185,38.2834817 C47.0482185,39.5576191 46.2291301,40.3312025 45.1370125,40.3312025 Z M52.372453,28.8639665 C54.784213,28.8639665 56.4223895,27.6353341 57.1504681,25.4510986 C57.5600122,24.2679712 57.651022,22.902824 57.651022,21.0371229 C57.651022,19.125917 57.5600122,17.7607698 57.1504681,16.5776423 C56.4223895,14.3934068 54.784213,13.1647745 52.372453,13.1647745 C49.9151882,13.1647745 48.2770116,14.3934068 47.5489332,16.5776423 C47.139389,17.7607698 47.0483792,19.125917 47.0483792,21.0371229 C47.0483792,22.902824 47.139389,24.2679712 47.5489332,25.4510986 C48.2770116,27.6353341 49.9151882,28.8639665 52.372453,28.8639665 Z M67.3950768,40.3312025 C66.3029594,40.3312025 65.483871,39.5576191 65.483871,38.2834817 L65.483871,11.936142 C65.483871,10.6620047 66.3029594,9.88842129 67.3950768,9.88842129 C68.4871948,9.88842129 69.3062832,10.6620047 69.3062832,11.936142 L69.3062832,12.5277057 L69.3517877,12.5277057 C70.3984006,10.7985194 72.3096065,9.61539187 75.5404548,9.61539187 C79.2263523,9.61539187 81.9111413,11.6631126 83.0487639,15.0759805 C83.5948232,16.8051668 83.8223477,18.5343532 83.8223477,21.0371229 C83.8223477,23.4943878 83.5948232,25.2235741 83.0487639,26.9527605 C81.9111413,30.3656284 79.2263523,32.4133491 75.5404548,32.4133491 C72.2641019,32.4133491 70.3528955,31.1847166 69.3517877,29.5010352 L69.3062832,29.5010352 L69.3062832,38.2834817 C69.3062832,39.5576191 68.4871948,40.3312025 67.3950768,40.3312025 Z M74.6305174,28.8639665 C77.0422774,28.8639665 78.6804542,27.6353341 79.4085323,25.4510986 C79.8180768,24.2679712 79.9090865,22.902824 79.9090865,21.0371229 C79.9090865,19.125917 79.8180768,17.7607698 79.4085323,16.5776423 C78.6804542,14.3934068 77.0422774,13.1647745 74.6305174,13.1647745 C72.1732529,13.1647745 70.5350761,14.3934068 69.8069974,16.5776423 C69.3974535,17.7607698 69.3064439,19.125917 69.3064439,21.0371229 C69.3064439,22.902824 69.3974535,24.2679712 69.8069974,25.4510986 C70.5350761,27.6353341 72.1732529,28.8639665 74.6305174,28.8639665 Z M93.5078039,32.1403197 C94.7819413,32.1403197 95.4645148,31.4122412 95.4645148,30.3656284 C95.4645148,29.3190155 94.7819413,28.5909371 93.6898232,28.5909371 C92.1881613,28.5909371 91.5965974,27.9083635 91.5965974,26.0881674 L91.5965974,2.78965619 C91.5965974,1.51551884 90.7775097,0.741935484 89.6853916,0.741935484 C88.5932742,0.741935484 87.7741858,1.51551884 87.7741858,2.78965619 L87.7741858,26.3156919 C87.7741858,30.2291137 89.1848374,32.1403197 93.0982594,32.1403197 L93.5078039,32.1403197 Z M107.607292,32.4133491 C103.102306,32.4133491 100.053477,30.3201235 98.8248445,26.4977115 C98.3697955,25.1325643 98.0967665,23.5853976 98.0967665,20.991618 C98.0967665,18.3978385 98.324291,16.8506717 98.77934,15.4855246 C100.007972,11.7086175 103.147811,9.61539187 107.288757,9.61539187 C111.566218,9.61539187 114.660552,11.7086175 115.843679,15.4400197 C116.344233,16.8961766 116.571757,18.5798581 116.571757,20.7185886 C116.571757,21.5831818 115.980194,22.1747455 115.070095,22.1747455 L102.283217,22.1747455 C102.101198,22.1747455 102.010188,22.2657554 102.010188,22.447775 C102.010188,23.4943878 102.101198,24.2224663 102.374227,25.0870594 C103.193315,27.5898292 105.195532,28.8639665 107.880321,28.8639665 C110.019052,28.8639665 111.475208,28.2268979 113.113385,26.9982654 C113.568434,26.6342262 113.977978,26.4522066 114.433027,26.4522066 C115.343125,26.4522066 116.025699,27.1347801 116.025699,28.0448783 C116.025699,28.5909371 115.798174,29.0459861 115.434135,29.4100254 C113.568434,31.1392117 110.974654,32.4133491 107.607292,32.4133491 Z M102.282701,19.125917 L112.38479,19.125917 C112.566809,19.125917 112.657819,19.0349071 112.657819,18.8528875 C112.657819,17.8517796 112.566809,17.0781963 112.339285,16.3956226 C111.611206,14.2113872 109.79101,12.9827548 107.333745,12.9827548 C104.87648,12.9827548 103.056284,14.2113872 102.328205,16.3956226 C102.100681,17.0781963 102.009671,17.8517796 102.009671,18.8528875 C102.009671,19.0349071 102.100681,19.125917 102.282701,19.125917 Z M122.395077,32.1403197 C123.487195,32.1403197 124.306283,31.3667363 124.306283,30.092599 L124.306283,19.5354611 C124.306283,15.8950687 125.625925,13.1647745 128.902278,13.1647745 C129.812376,13.1647745 130.58596,13.392299 131.405048,13.7108333 C131.723583,13.847348 132.087622,13.9383578 132.360651,13.9383578 C133.498274,13.9383578 134.271857,13.1192695 134.271857,12.0271518 C134.271857,11.3900832 133.953323,10.7985194 133.179739,10.3889752 C132.451661,9.9794311 131.450553,9.61539187 129.948891,9.61539187 C127.264102,9.61539187 125.261886,10.980539 124.351788,12.9372499 L124.306283,12.9372499 L124.306283,11.936142 C124.306283,10.6620047 123.487195,9.88842129 122.395077,9.88842129 C121.302959,9.88842129 120.483871,10.6620047 120.483871,11.936142 L120.483871,30.092599 C120.483871,31.3667363 121.302959,32.1403197 122.395077,32.1403197 Z" fill="#FFFFFF" fill-rule="nonzero" mask="url(#mask-2)"></path>
                </g>
            </g>
        </g>
    </g>
</svg>