<?xml version="1.0" encoding="UTF-8"?>
<svg width="259px" height="77px" viewBox="0 0 259 77" version="1.1" xmlns="http://www.w3.org/2000/svg" xmlns:xlink="http://www.w3.org/1999/xlink">
    <!-- Generator: Sketch 46.2 (44496) - http://www.bohemiancoding.com/sketch -->
    <title>keppler</title>
    <desc>Created with Sketch.</desc>
    <defs>
        <rect id="path-1" x="0" y="0" width="259" height="77"></rect>
    </defs>
    <g id="Page-1" stroke="none" stroke-width="1" fill="none" fill-rule="evenodd">
        <g id="Desktop-HD" transform="translate(-656.000000, -170.000000)">
            <g id="Home" transform="translate(-69.000000, 0.000000)">
                <g id="logo" transform="translate(537.000000, 121.000000)">
                    <g id="keppler" transform="translate(188.000000, 49.000000)">
                        <mask id="mask-2" fill="white">
                            <use xlink:href="#path-1"></use>
                        </mask>
                        <g id="path-1"></g>
                        <path d="M0,57.0217391 C0,59.4971014 1.60209424,61 3.73821991,61 C5.8743455,61 7.47643982,59.4971014 7.47643982,57.0217391 L7.47643982,47.6507245 L14.9528796,39.3405796 L26.9685863,58.8782608 C27.8586388,60.2927535 29.0157068,61 30.4397906,61 C32.486911,61 34,59.4971014 34,57.6405797 C34,56.8449275 33.8219895,56.1376811 33.3769634,55.4304347 L19.9371728,34.0362318 L29.8167539,23.3391305 C30.5287958,22.5434782 30.8848167,21.8362318 30.8848167,20.8637681 C30.8848167,19.0072464 29.460733,17.7695652 27.7696336,17.7695652 C26.6125654,17.7695652 25.7225131,18.2115941 24.921466,19.0956522 L7.47643982,38.6333333 L7.47643982,3.97826087 C7.47643982,1.5028985 5.8743455,0 3.73821991,0 C1.60209424,0 0,1.5028985 0,3.97826087 L0,57.0217391 Z M57.5320196,61 C48.7536945,61 42.8128079,56.9600798 40.4187192,49.5828343 C39.5320197,46.9481037 39,43.9620759 39,38.9560878 C39,33.9500998 39.4433497,30.9640718 40.3300492,28.3293413 C42.7241379,21.0399202 48.8423645,17 56.91133,17 C65.2463053,17 71.2758621,21.0399202 73.5812807,28.241517 C74.5566501,31.0518961 75,34.3013972 75,38.4291417 C75,40.0978044 73.8472906,41.239521 72.0738916,41.239521 L47.1576355,41.239521 C46.8029557,41.239521 46.6256158,41.4151696 46.6256158,41.766467 C46.6256158,43.7864272 46.8029557,45.1916168 47.3349754,46.8602794 C48.9310344,51.6906187 52.8325123,54.1497006 58.0640394,54.1497006 C62.2315271,54.1497006 65.0689655,52.9201597 68.2610837,50.5489021 C69.1477832,49.8463074 69.9458127,49.49501 70.8325123,49.49501 C72.6059113,49.49501 73.9359605,50.8123752 73.9359605,52.5688623 C73.9359605,53.6227545 73.4926108,54.500998 72.7832512,55.2035927 C69.1477832,58.5409181 64.093596,61 57.5320196,61 Z M46.5384616,36 L66.4615385,36 C66.8205128,36 67,35.8222221 67,35.4666666 C67,33.5111111 66.8205128,32 66.3717949,30.6666666 C64.9358975,26.3999999 61.3461539,24 56.5000001,24 C51.6538462,24 48.0641026,26.3999999 46.6282052,30.6666666 C46.1794872,32 46,33.5111111 46,35.4666666 C46,35.8222221 46.1794872,36 46.5384616,36 Z M85.751861,77 C83.6079404,77 82,75.4888889 82,73 L82,21.5333333 C82,19.0444445 83.6079404,17.5333333 85.751861,17.5333333 C87.8957815,17.5333333 89.503722,19.0444445 89.503722,21.5333333 L89.503722,22.6888888 L89.593052,22.6888888 C91.6476425,19.3111112 95.3995035,17 101.741935,17 C108.977667,17 114.248139,21 116.481389,27.6666667 C117.55335,31.0444444 118,34.4222222 118,39.3111111 C118,44.1111112 117.55335,47.4888889 116.481389,50.8666667 C114.248139,57.5333334 108.977667,61.5333334 101.741935,61.5333334 C95.3101735,61.5333334 91.5583125,59.1333334 89.593052,55.8444444 L89.503722,55.8444444 L89.503722,73 C89.503722,75.4888889 87.8957815,77 85.751861,77 Z M100.545064,55 C105.321888,55 108.566524,52.573913 110.008584,48.2608695 C110.819742,45.9246377 111,43.2289855 111,39.5449275 C111,35.7710145 110.819742,33.0753623 110.008584,30.7391304 C108.566524,26.4260869 105.321888,24 100.545064,24 C95.6781115,24 92.4334763,26.4260869 90.9914163,30.7391304 C90.1802575,33.0753623 90,35.7710145 90,39.5449275 C90,43.2289855 90.1802575,45.9246377 90.9914163,48.2608695 C92.4334763,52.573913 95.6781115,55 100.545064,55 Z M129.751861,77 C127.607941,77 126,75.4888889 126,73 L126,21.5333333 C126,19.0444445 127.607941,17.5333333 129.751861,17.5333333 C131.895782,17.5333333 133.503723,19.0444445 133.503723,21.5333333 L133.503723,22.6888888 L133.593052,22.6888888 C135.647643,19.3111112 139.399503,17 145.741935,17 C152.977667,17 158.248138,21 160.481389,27.6666667 C161.55335,31.0444444 162,34.4222222 162,39.3111111 C162,44.1111112 161.55335,47.4888889 160.481389,50.8666667 C158.248138,57.5333334 152.977667,61.5333334 145.741935,61.5333334 C139.310174,61.5333334 135.558312,59.1333334 133.593052,55.8444444 L133.503723,55.8444444 L133.503723,73 C133.503723,75.4888889 131.895782,77 129.751861,77 Z M143.545064,55 C148.321888,55 151.566524,52.573913 153.008583,48.2608695 C153.819743,45.9246377 154,43.2289855 154,39.5449275 C154,35.7710145 153.819743,33.0753623 153.008583,30.7391304 C151.566524,26.4260869 148.321888,24 143.545064,24 C138.678112,24 135.433476,26.4260869 133.991416,30.7391304 C133.180257,33.0753623 133,35.7710145 133,39.5449275 C133,43.2289855 133.180257,45.9246377 133.991416,48.2608695 C135.433476,52.573913 138.678112,55 143.545064,55 Z M180.183432,61 C182.668639,61 184,59.5855072 184,57.5521739 C184,55.5188405 182.668639,54.1043478 180.538461,54.1043478 C177.609467,54.1043478 176.45562,52.7782609 176.45562,49.242029 L176.45562,3.97826087 C176.45562,1.5028985 174.857988,0 172.72781,0 C170.597633,0 169,1.5028985 169,3.97826087 L169,49.6840579 C169,57.2869565 171.751478,61 179.384615,61 L180.183432,61 Z M207.53202,61 C198.753694,61 192.812808,56.9600798 190.418718,49.5828343 C189.532019,46.9481037 189,43.9620759 189,38.9560878 C189,33.9500998 189.44335,30.9640718 190.330049,28.3293413 C192.724138,21.0399202 198.842365,17 206.91133,17 C215.246306,17 221.275862,21.0399202 223.581282,28.241517 C224.55665,31.0518961 225,34.3013972 225,38.4291417 C225,40.0978044 223.84729,41.239521 222.073891,41.239521 L197.157635,41.239521 C196.802956,41.239521 196.625616,41.4151696 196.625616,41.766467 C196.625616,43.7864272 196.802956,45.1916168 197.334975,46.8602794 C198.931034,51.6906187 202.832513,54.1497006 208.064039,54.1497006 C212.231528,54.1497006 215.068966,52.9201597 218.261083,50.5489021 C219.147784,49.8463074 219.945813,49.49501 220.832513,49.49501 C222.605912,49.49501 223.935961,50.8123752 223.935961,52.5688623 C223.935961,53.6227545 223.492611,54.500998 222.783251,55.2035927 C219.147784,58.5409181 214.093596,61 207.53202,61 Z M196.538462,36 L216.461539,36 C216.820513,36 217,35.8222221 217,35.4666666 C217,33.5111111 216.820513,32 216.371795,30.6666666 C214.935897,26.3999999 211.346154,24 206.500001,24 C201.653846,24 198.064103,26.3999999 196.628205,30.6666666 C196.179487,32 196,33.5111111 196,35.4666666 C196,35.8222221 196.179487,36 196.538462,36 Z M235.742574,61 C237.881189,61 239.485149,59.4888888 239.485149,57 L239.485149,36.3777778 C239.485149,29.2666667 242.069307,23.9333334 248.485148,23.9333334 C250.267327,23.9333334 251.782179,24.3777778 253.38614,25 C254.009902,25.2666667 254.722773,25.4444444 255.257426,25.4444444 C257.485149,25.4444444 259,23.8444445 259,21.7111111 C259,20.4666667 258.376238,19.3111112 256.861387,18.5111111 C255.435644,17.7111111 253.475248,17 250.534654,17 C245.277228,17 241.356436,19.6666667 239.574257,23.4888889 L239.485149,23.4888889 L239.485149,21.5333333 C239.485149,19.0444445 237.881189,17.5333333 235.742574,17.5333333 C233.603961,17.5333333 232,19.0444445 232,21.5333333 L232,57 C232,59.4888888 233.603961,61 235.742574,61 Z" fill="#FFFFFF" fill-rule="nonzero" mask="url(#mask-2)"></path>
                    </g>
                </g>
            </g>
        </g>
    </g>
</svg>