<?xml version="1.0" encoding="UTF-8"?>
<svg width="44px" height="48px" viewBox="0 0 44 48" version="1.1" xmlns="http://www.w3.org/2000/svg" xmlns:xlink="http://www.w3.org/1999/xlink">
    <!-- Generator: Sketch 46.2 (44496) - http://www.bohemiancoding.com/sketch -->
    <title>Book</title>
    <desc>Created with Sketch.</desc>
    <defs></defs>
    <g id="Page-1" stroke="none" stroke-width="1" fill="none" fill-rule="evenodd">
        <g id="01---File-tree" transform="translate(-872.000000, -468.000000)">
            <g id="Welcome" transform="translate(467.000000, -57.000000)">
                <g id="BG">
                    <g id="Book" transform="translate(405.336013, 525.751226)">
                        <path d="M22.8726935,46.2920651 L0.902389437,33.1290363 L4.12488311,27.7506129 L26.6190633,41.2265992 L23.7106672,46.0822866 C23.5368019,46.371302 23.162279,46.4653603 22.8726935,46.2920651" id="Fill-223" fill="#5BB27E"></path>
                        <polygon id="Fill-225" fill="#FFFFFF" points="7.44462735 21.1001794 29.9388075 34.5773058 23.2008144 45.8238259 0.706634205 32.3472695"></polygon>
                        <path d="M2.36701937,30.6841481 L24.3190818,43.8357758 C24.6183581,44.0153417 25.0071324,43.9184331 25.1861281,43.6180167 L25.7402169,42.6933953 L3.24603675,29.217409 L2.36701937,30.6841481 Z" id="Fill-227" fill="#5BB27E"></path>
                        <path d="M17.8925641,1.44319604 C17.0830928,2.79364492 17.5226015,4.54369898 18.8724803,5.35260019 C20.2229292,6.16207144 21.9735533,5.7231328 22.7824545,4.37268393 C23.5913557,3.0228051 23.1529871,1.27218099 21.8019682,0.462709732 C20.4515193,-0.346191475 18.7014653,0.0927471645 17.8925641,1.44319604" id="Fill-229" fill="#5BB27E"></path>
                        <polygon id="Fill-231" fill="#5BB27E" points="17.8925641 1.44319604 22.7824545 4.37268393 5.79039873 32.7349606 0.899938221 29.8049027"></polygon>
                        <path d="M24.3317939,43.179078 L2.65962613,30.1956151 L20.3311817,0.699508577 C20.6036657,0.245178583 21.1925276,0.097535586 21.6468576,0.370019573 L42.4958729,12.8603891 C42.9502029,13.1328731 43.0978459,13.7217349 42.8253619,14.176635 L25.6474697,42.849589 C25.3749857,43.303919 24.7861239,43.451562 24.3317939,43.179078" id="Fill-233" fill="#5DBD86"></path>
                        <path d="M1.68398524,32.9332241 C1.14414772,32.6100056 0.968572263,31.909414 1.29236077,31.3695764 C1.61614927,30.8291689 2.31560084,30.6535934 2.85657846,30.9768119 L3.453421,31.3348034 C3.36335307,30.876483 3.09314929,30.4546459 2.65991115,30.1952731 C1.84986984,29.7101604 0.799267359,29.9735236 0.314154655,30.7835649 C-0.1715281,31.5936062 0.0918350842,32.6436386 0.902446442,33.1293214 C1.33511453,33.3886942 1.83447849,33.4280277 2.28139783,33.2912156 L1.68398524,32.9332241 Z" id="Fill-235" fill="#5BB27E"></path>
                        <polygon id="Fill-237" fill="#5BB27E" points="1.29207574 31.3694624 0.31386963 30.7834509 1.4858928 28.8276087 2.46409891 29.4130502"></polygon>
                        <path d="M36.3796905,17.1708235 L22.6876552,8.96780143 C22.1472476,8.64401293 21.9722422,7.94399131 22.2954607,7.40358373 C22.6192492,6.86374621 23.3192708,6.68817076 23.8596784,7.01195926 L37.5517137,15.2149814 C38.0921212,15.5387699 38.2676967,16.2387915 37.9439082,16.7791991 C37.6201197,17.3190366 36.9200981,17.494612 36.3796905,17.1708235" id="Fill-239" fill="#FFFFFF"></path>
                        <path d="M34.4256725,19.322991 L29.535782,16.3929331 C29.2655782,16.2316089 29.1783606,15.881028 29.3396848,15.6113943 C29.501579,15.3411905 29.8521599,15.2534028 30.1217936,15.415297 L35.0116841,18.3447849 C35.2818878,18.5066791 35.3696756,18.8566899 35.2077813,19.1268937 C35.0464571,19.3965275 34.6964463,19.4848852 34.4256725,19.322991" id="Fill-241" fill="#FFFFFF"></path>
                        <polygon id="Fill-243" fill="#FFFFFF" points="4.61609535 31.3672392 4.12756235 31.0742335 22.2916413 0.75611456 22.7801743 1.0485503"></polygon>
                    </g>
                </g>
            </g>
        </g>
    </g>
</svg>