<?xml version="1.0" encoding="utf-8"?>
<!-- Generator: Adobe Illustrator 19.2.0, SVG Export Plug-In . SVG Version: 6.00 Build 0)  -->
<svg version="1.1" id="Layer_1" xmlns="http://www.w3.org/2000/svg" xmlns:xlink="http://www.w3.org/1999/xlink" x="0px" y="0px"
	 viewBox="0 0 306.7 271.4" style="enable-background:new 0 0 306.7 271.4;" xml:space="preserve">
<g id="ordi">
	
		<rect x="121.3" y="-7.7" transform="matrix(0.2588 -0.9659 0.9659 0.2588 47.035 249.8173)" style="opacity:0.2;fill:#FFFFFF;enable-background:new    ;" width="130" height="204"/>
	<path style="fill:#E1E4E4;" d="M97.7,7.5L63.1,136.8l208.6,55.9l34.6-129.3c1.5-5.4-1.8-11-7.2-12.5c0,0,0,0,0,0l-189-50.6
		C104.8-1.1,99.2,2.1,97.7,7.5z M265.3,169.7c-0.9,3.5-4.6,5.6-8.1,4.6L84.8,128.1c-3.5-0.9-5.6-4.6-4.7-8.1l27.7-103.2
		c0.9-3.5,4.6-5.6,8.1-4.7l172.4,46.2c3.5,0.9,5.6,4.5,4.7,8c0,0,0,0,0,0.1L265.3,169.7z"/>
	
		<ellipse transform="matrix(0.2588 -0.9659 0.9659 0.2588 121.2846 219.0621)" style="fill:#FFFFFF;" cx="203.4" cy="30.5" rx="2" ry="2"/>
	<polygon style="fill:#FFFFFF;" points="1.7,180.4 303.1,261.2 271.7,192.7 63.1,136.8 	"/>
	<path style="fill:#C8D5DD;" d="M4.6,193.6L294,271.1c3.3,0.9,6.7-1.1,7.6-4.4l1.5-5.6L1.7,180.4L0.2,186
		C-0.7,189.3,1.3,192.7,4.6,193.6z"/>
	<polygon style="fill:#C8D5DD;" points="273.9,226.4 261.4,194.1 71.4,143.2 44.3,164.9 	"/>
	<polygon style="fill:#C8D5DD;" points="179.1,221.7 128.8,208.3 139.3,192.4 177.9,202.8 	"/>
	<path style="fill:#5DBE87;" d="M116.4,22.7L116.4,22.7c0.3-1.1,1.4-1.7,2.4-1.4l3.9,1c1.1,0.3,1.7,1.4,1.4,2.4l0,0
		c-0.3,1.1-1.4,1.7-2.4,1.4l-3.9-1C116.8,24.9,116.1,23.8,116.4,22.7z"/>
	<path style="fill:#FFFFFF;" d="M128,25.8L128,25.8c0.3-1.1,1.4-1.7,2.4-1.4l21.3,5.7c1.1,0.3,1.7,1.4,1.4,2.4l0,0
		c-0.3,1.1-1.4,1.7-2.4,1.4l-21.3-5.7C128.4,28,127.7,26.9,128,25.8z"/>
	<path style="fill:#5DBE87;" d="M157,33.6L157,33.6c0.3-1.1,1.4-1.7,2.4-1.4l3.9,1c1.1,0.3,1.7,1.4,1.4,2.4l0,0
		c-0.3,1.1-1.4,1.7-2.4,1.4l-3.9-1C157.3,35.8,156.7,34.7,157,33.6z"/>
	<path style="fill:#DA6E73;" d="M121.9,40.8L121.9,40.8c0.3-1.1,1.4-1.7,2.4-1.4l25.1,6.7c1.1,0.3,1.7,1.4,1.4,2.4l0,0
		c-0.3,1.1-1.4,1.7-2.4,1.4l-25.1-6.7C122.3,42.9,121.7,41.8,121.9,40.8z"/>
	<path style="fill:#5DBE87;" d="M118.2,31.5L118.2,31.5c0.3-1.1,1.4-1.7,2.4-1.4l54.1,14.5c1.1,0.3,1.7,1.4,1.4,2.4l0,0
		c-0.3,1.1-1.4,1.7-2.4,1.4l-54.1-14.5C118.6,33.7,117.9,32.6,118.2,31.5z"/>
	<path style="fill:#DA6E73;" d="M154.8,49.6L154.8,49.6c0.3-1.1,1.4-1.7,2.4-1.4l5.8,1.6c1.1,0.3,1.7,1.4,1.4,2.4l0,0
		c-0.3,1.1-1.4,1.7-2.4,1.4l-5.8-1.6C155.1,51.7,154.5,50.6,154.8,49.6z"/>
	<path style="fill:#E9CB53;" d="M125.7,50.1L125.7,50.1c0.3-1.1,1.4-1.7,2.4-1.4l3.9,1c1.1,0.3,1.7,1.4,1.4,2.4l0,0
		c-0.3,1.1-1.4,1.7-2.4,1.4l-3.9-1C126,52.2,125.4,51.1,125.7,50.1z"/>
	<path style="fill:#5B99C2;" d="M117.8,56.2L117.8,56.2c0.3-1.1,1.4-1.7,2.4-1.4l23.2,6.2c1.1,0.3,1.7,1.4,1.4,2.4l0,0
		c-0.3,1.1-1.4,1.7-2.4,1.4l-23.2-6.2C118.2,58.4,117.5,57.3,117.8,56.2z"/>
	<path style="fill:#E9CB53;" d="M146.9,55.7L146.9,55.7c0.3-1.1,1.4-1.7,2.4-1.4l30.9,8.3c1.1,0.3,1.7,1.4,1.4,2.4l0,0
		c-0.3,1.1-1.4,1.7-2.4,1.4l-30.9-8.3C147.3,57.9,146.6,56.8,146.9,55.7z"/>
	<path style="fill:#FFFFFF;" d="M137.3,53.2L137.3,53.2c0.3-1.1,1.4-1.7,2.4-1.4l1.9,0.5c1.1,0.3,1.7,1.4,1.4,2.4l0,0
		c-0.3,1.1-1.4,1.7-2.4,1.4l-1.9-0.5C137.6,55.3,137,54.2,137.3,53.2z"/>
	<path style="fill:#5B99C2;" d="M158.4,67.1L158.4,67.1c0.3-1.1,1.4-1.7,2.4-1.4l23.2,6.2c1.1,0.3,1.7,1.4,1.4,2.4l0,0
		c-0.3,1.1-1.4,1.7-2.4,1.4l-23.2-6.2C158.7,69.3,158.1,68.2,158.4,67.1z"/>
	<path style="fill:#FFFFFF;" d="M148.7,64.5L148.7,64.5c0.3-1.1,1.4-1.7,2.4-1.4l1.9,0.5c1.1,0.3,1.7,1.4,1.4,2.4l0,0
		c-0.3,1.1-1.4,1.7-2.4,1.4l-1.9-0.5C149.1,66.7,148.4,65.6,148.7,64.5z"/>
	<path style="fill:#5DBE87;" d="M109.9,62.4L109.9,62.4c0.3-1.1,1.4-1.7,2.4-1.4l3.9,1c1.1,0.3,1.7,1.4,1.4,2.4l0,0
		c-0.3,1.1-1.4,1.7-2.4,1.4l-3.9-1C110.3,64.6,109.6,63.5,109.9,62.4z"/>
	<path style="fill:#5DBE87;" d="M107.9,70.1L107.9,70.1c0.3-1.1,1.4-1.7,2.4-1.4l9.7,2.6c1.1,0.3,1.7,1.4,1.4,2.4l0,0
		c-0.3,1.1-1.4,1.7-2.4,1.4l-9.7-2.6C108.2,72.3,107.6,71.2,107.9,70.1z"/>
	<path style="fill:#DA6E73;" d="M111.6,79.4L111.6,79.4c0.3-1.1,1.4-1.7,2.4-1.4l7.7,2.1c1.1,0.3,1.7,1.4,1.4,2.4l0,0
		c-0.3,1.1-1.4,1.7-2.4,1.4l-7.7-2.1C111.9,81.6,111.3,80.5,111.6,79.4z"/>
	<path style="fill:#FFFFFF;" d="M127.1,83.6L127.1,83.6c0.3-1.1,1.4-1.7,2.4-1.4l15.5,4.1c1.1,0.3,1.7,1.4,1.4,2.4l0,0
		c-0.3,1.1-1.4,1.7-2.4,1.4L128.5,86C127.4,85.7,126.8,84.6,127.1,83.6z"/>
	<path style="fill:#DA6E73;" d="M150.2,89.8L150.2,89.8c0.3-1.1,1.4-1.7,2.4-1.4l0,0c1.1,0.3,1.7,1.4,1.4,2.4l0,0
		c-0.3,1.1-1.4,1.7-2.4,1.4l0,0C150.6,91.9,149.9,90.8,150.2,89.8z"/>
</g>
</svg>
