<?xml version="1.0" encoding="utf-8"?>
<!-- Generator: Adobe Illustrator 19.2.0, SVG Export Plug-In . SVG Version: 6.00 Build 0)  -->
<svg version="1.1" id="Layer_1" xmlns="http://www.w3.org/2000/svg" xmlns:xlink="http://www.w3.org/1999/xlink" x="0px" y="0px"
	 viewBox="0 0 446 409" style="enable-background:new 0 0 446 409;" xml:space="preserve">
<g id="Calque_10">
	<path style="fill:#333C43;" d="M425,213h-90c-11.6,0-21-9.4-21-21l0,0c0-11.6,9.4-21,21-21h90c11.6,0,21,9.4,21,21l0,0
		C446,203.6,436.6,213,425,213z"/>
	<path style="fill:#333C43;" d="M345,346h-58c-5.5,0-10-4.5-10-10l0,0c0-5.5,4.5-10,10-10h58c5.5,0,10,4.5,10,10l0,0
		C355,341.5,350.5,346,345,346z"/>
	<path style="fill:#333C43;" d="M22,256h10c8.8,0,16-7.2,16-16s-7.2-16-16-16c-17.7,0-32-14.3-32-32s14.3-32,32-32h41
		c8.8,0,16-7.2,16-16s-7.2-16-16-16h-1c-17.7,0-32-14.3-32-32s14.3-32,32-32h21c8.8,0,16-7.2,16-16l0,0c0-8.8,7.2-16,16-16h28
		c8.8,0,16-7.2,16-16l0,0c0-8.8,7.2-16,16-16h82c8.8,0,16,7.2,16,16l0,0c0,8.8,7.2,16,16,16h18c8.8,0,16,7.2,16,16l0,0
		c0,8.8-7.2,16-16,16s-16,7.2-16,16s7.2,16,16,16h66c17.7,0,32,14.3,32,32s-14.3,32-32,32h-48c-17.7,0-32,14.3-32,32s14.3,32,32,32
		h30c26.5,0,48,21.5,48,48s-21.5,48-48,48h-78c-8.8,0-16,7.2-16,16s7.2,16,16,16s16,7.2,16,16l0,0c0,8.8-7.2,16-16,16H165
		c-8.8,0-16-7.2-16-16s-7.2-16-16-16h-8c-8.8,0-16-7.2-16-16s-7.2-16-16-16h-5.1c-8.8,0-15.9-7.2-15.9-16c0-8.8-7.2-16-16-16H22
		c-8.8,0-16-7.2-16-16l0,0C6,263.2,13.2,256,22,256z"/>
	<path style="fill:#333C43;" d="M72,154H34c-5.5,0-10-4.5-10-10l0,0c0-5.5,4.5-10,10-10h38c5.5,0,10,4.5,10,10l0,0
		C82,149.5,77.5,154,72,154z"/>
	<path style="fill:#333C43;" d="M32,250h-9c-5.5,0-10-4.5-10-10l0,0c0-5.5,4.5-10,10-10h9c5.5,0,10,4.5,10,10l0,0
		C42,245.5,37.5,250,32,250z"/>
	<path style="fill:#333C43;" d="M242,409h-39c-5.5,0-10-4.5-10-10l0,0c0-5.5,4.5-10,10-10h39c5.5,0,10,4.5,10,10l0,0
		C252,404.5,247.5,409,242,409z"/>
	<path style="fill:#333C43;" d="M355,70h-38c-5.5,0-10,4.5-10,10s4.5,10,10,10h38c5.5,0,10-4.5,10-10S360.5,70,355,70z"/>
</g>
<g id="nuage">
	<path style="opacity:0.8;fill:#FFFFFF;enable-background:new    ;" d="M120,185h-6.5c-4.4,0-8-3.6-8-8s3.6-8,8-8h2.5
		c2.2,0,4-1.8,4-4s-1.8-4-4-4h-16c-2.2,0-4,1.8-4,4s-1.8,4-4,4H69.5c-4.4,0-8,3.6-8,8s3.6,8,8,8H84c3.3,0,6,2.7,6,6s2.7,6,6,6h24
		c3.3,0,6-2.7,6-6S123.3,185,120,185z"/>
	<path style="opacity:0.9;fill:#FFFFFF;enable-background:new    ;" d="M274,165c-2.8,0-5-2.2-5-5s-2.2-5-5-5h-18c-2.8,0-5,2.2-5,5
		s-2.2,5-5,5h-6c-4.4,0-8,3.6-8,8s3.6,8,8,8h44c4.4,0,8-3.6,8-8S278.4,165,274,165z"/>
	<path style="opacity:0.85;fill:#FFFFFF;enable-background:new    ;" d="M369.5,135h0.5c-4.4,0-8-3.6-8-8c0-4.4-3.6-8-8-8h-15.5
		c-2.2,0-4-1.8-4-4s-1.8-4-4-4h-9c-2.2,0-4,1.8-4,4s-1.8,4-4,4H312c-4.4,0-8,3.6-8,8c0,4.4,3.6,8,8,8h6.5c3.3,0,6,2.7,6,6s2.7,6,6,6
		h39c3.3,0,6-2.7,6-6S372.8,135,369.5,135z"/>
</g>
<g id="Stars" style="opacity:0.8;">
	<path style="opacity:0.8;fill:#FFFFFF;enable-background:new    ;" d="M168,73h-2v-2c0-0.6-0.4-1-1-1s-1,0.4-1,1v2h-2
		c-0.6,0-1,0.4-1,1s0.4,1,1,1h2v2c0,0.6,0.4,1,1,1s1-0.4,1-1v-2h2c0.6,0,1-0.4,1-1S168.6,73,168,73z"/>
	<path style="opacity:0.8;fill:#FFFFFF;enable-background:new    ;" d="M208,43h-2v-2c0-0.6-0.4-1-1-1s-1,0.4-1,1v2h-2
		c-0.6,0-1,0.4-1,1s0.4,1,1,1h2v2c0,0.6,0.4,1,1,1s1-0.4,1-1v-2h2c0.6,0,1-0.4,1-1S208.6,43,208,43z"/>
	<path style="opacity:0.8;fill:#FFFFFF;enable-background:new    ;" d="M138,53h-2v-2c0-0.6-0.4-1-1-1s-1,0.4-1,1v2h-2
		c-0.6,0-1,0.4-1,1s0.4,1,1,1h2v2c0,0.6,0.4,1,1,1s1-0.4,1-1v-2h2c0.6,0,1-0.4,1-1S138.6,53,138,53z"/>
	<path style="opacity:0.8;fill:#FFFFFF;enable-background:new    ;" d="M108,93h-2v-2c0-0.6-0.4-1-1-1s-1,0.4-1,1v2h-2
		c-0.6,0-1,0.4-1,1s0.4,1,1,1h2v2c0,0.6,0.4,1,1,1s1-0.4,1-1v-2h2c0.6,0,1-0.4,1-1S108.6,93,108,93z"/>
	<path style="opacity:0.8;fill:#FFFFFF;enable-background:new    ;" d="M68,103h-2v-2c0-0.6-0.4-1-1-1s-1,0.4-1,1v2h-2
		c-0.6,0-1,0.4-1,1s0.4,1,1,1h2v2c0,0.6,0.4,1,1,1s1-0.4,1-1v-2h2c0.6,0,1-0.4,1-1S68.6,103,68,103z"/>
	<path style="opacity:0.8;fill:#FFFFFF;enable-background:new    ;" d="M158,153h-2v-2c0-0.6-0.4-1-1-1s-1,0.4-1,1v2h-2
		c-0.6,0-1,0.4-1,1s0.4,1,1,1h2v2c0,0.6,0.4,1,1,1s1-0.4,1-1v-2h2c0.6,0,1-0.4,1-1S158.6,153,158,153z"/>
	<path style="opacity:0.8;fill:#FFFFFF;enable-background:new    ;" d="M128,143h-2v-2c0-0.6-0.4-1-1-1s-1,0.4-1,1v2h-2
		c-0.6,0-1,0.4-1,1s0.4,1,1,1h2v2c0,0.6,0.4,1,1,1s1-0.4,1-1v-2h2c0.6,0,1-0.4,1-1S128.6,143,128,143z"/>
	<path style="opacity:0.8;fill:#FFFFFF;enable-background:new    ;" d="M278,73h-2v-2c0-0.6-0.4-1-1-1s-1,0.4-1,1v2h-2
		c-0.6,0-1,0.4-1,1s0.4,1,1,1h2v2c0,0.6,0.4,1,1,1s1-0.4,1-1v-2h2c0.6,0,1-0.4,1-1S278.6,73,278,73z"/>
	<path style="opacity:0.8;fill:#FFFFFF;enable-background:new    ;" d="M238,58h-2v-2c0-0.6-0.4-1-1-1s-1,0.4-1,1v2h-2
		c-0.6,0-1,0.4-1,1s0.4,1,1,1h2v2c0,0.6,0.4,1,1,1s1-0.4,1-1v-2h2c0.6,0,1-0.4,1-1S238.6,58,238,58z"/>
	<path style="opacity:0.8;fill:#FFFFFF;enable-background:new    ;" d="M311,41h-2v-2c0-0.6-0.4-1-1-1s-1,0.4-1,1v2h-2
		c-0.6,0-1,0.4-1,1s0.4,1,1,1h2v2c0,0.6,0.4,1,1,1s1-0.4,1-1v-2h2c0.6,0,1-0.4,1-1S311.6,41,311,41z"/>
	<path style="opacity:0.8;fill:#FFFFFF;enable-background:new    ;" d="M261,21h-2v-2c0-0.6-0.4-1-1-1s-1,0.4-1,1v2h-2
		c-0.6,0-1,0.4-1,1s0.4,1,1,1h2v2c0,0.6,0.4,1,1,1s1-0.4,1-1v-2h2c0.6,0,1-0.4,1-1S261.6,21,261,21z"/>
	<path style="opacity:0.8;fill:#FFFFFF;enable-background:new    ;" d="M189,25h-2v-2c0-0.6-0.4-1-1-1s-1,0.4-1,1v2h-2
		c-0.6,0-1,0.4-1,1s0.4,1,1,1h2v2c0,0.6,0.4,1,1,1s1-0.4,1-1v-2h2c0.6,0,1-0.4,1-1S189.6,25,189,25z"/>
	<path style="opacity:0.8;fill:#FFFFFF;enable-background:new    ;" d="M199,75h-2v-2c0-0.6-0.4-1-1-1s-1,0.4-1,1v2h-2
		c-0.6,0-1,0.4-1,1s0.4,1,1,1h2v2c0,0.6,0.4,1,1,1s1-0.4,1-1v-2h2c0.6,0,1-0.4,1-1S199.6,75,199,75z"/>
	<path style="opacity:0.8;fill:#FFFFFF;enable-background:new    ;" d="M389,113h-2v-2c0-0.6-0.4-1-1-1s-1,0.4-1,1v2h-2
		c-0.6,0-1,0.4-1,1s0.4,1,1,1h2v2c0,0.6,0.4,1,1,1s1-0.4,1-1v-2h2c0.6,0,1-0.4,1-1S389.6,113,389,113z"/>
	<path style="opacity:0.8;fill:#FFFFFF;enable-background:new    ;" d="M348,79h-2v-2c0-0.6-0.4-1-1-1s-1,0.4-1,1v2h-2
		c-0.6,0-1,0.4-1,1s0.4,1,1,1h2v2c0,0.6,0.4,1,1,1s1-0.4,1-1v-2h2c0.6,0,1-0.4,1-1S348.6,79,348,79z"/>
	<path style="opacity:0.8;fill:#FFFFFF;enable-background:new    ;" d="M42,144h-2v-2c0-0.6-0.4-1-1-1s-1,0.4-1,1v2h-2
		c-0.6,0-1,0.4-1,1s0.4,1,1,1h2v2c0,0.6,0.4,1,1,1s1-0.4,1-1v-2h2c0.6,0,1-0.4,1-1S42.6,144,42,144z"/>
</g>
</svg>
