<?xml version="1.0" encoding="utf-8"?>
<!-- Generator: Adobe Illustrator 19.2.0, SVG Export Plug-In . SVG Version: 6.00 Build 0)  -->
<svg version="1.1" id="Layer_1" xmlns="http://www.w3.org/2000/svg" xmlns:xlink="http://www.w3.org/1999/xlink" x="0px" y="0px"
	 viewBox="0 0 101 122.6" style="enable-background:new 0 0 101 122.6;" xml:space="preserve">
<g id="Calque_16">
	<path style="fill:#F9E2C6;" d="M79.5,77.7L65.1,67.1c0.8-3.7,0.2-7.5-1.5-10.8L56,42.2c-4.2-7.8-13.9-10.7-21.7-6.6
		c-7.8,4.2-10.7,13.9-6.6,21.6l7.5,14.1c2.3,4.4,6.6,7.4,11.5,8.2l29,40c1.6,2.2,4.7,2.7,7,1.1c2.2-1.6,2.7-4.7,1.1-7l0,0L57.6,77.5
		c0.8-0.5,1.6-1.1,2.4-1.7L72.6,85l9.4,17.5c1.3,2.5,4.3,3.4,6.7,2.2c2.5-1.3,3.4-4.3,2.2-6.7c0,0,0-0.1-0.1-0.1l-9.9-18.5
		C80.5,78.7,80.1,78.1,79.5,77.7z"/>
	<polyline style="fill:none;stroke:#F9E2C6;stroke-width:7;stroke-linecap:round;stroke-linejoin:round;" points="48.6,39.9 
		58.2,15.5 38.2,3.5 	"/>
	<polyline style="fill:none;stroke:#F9E2C6;stroke-width:7;stroke-linecap:round;stroke-linejoin:round;" points="29.1,50.3 
		3.5,44.7 4.7,21.4 	"/>
	<g>
		<defs>
			<path id="SVGID_1_" d="M79.5,77.7L65.1,67.1c0.8-3.7,0.2-7.5-1.5-10.8L56,42.2c-4.2-7.8-13.9-10.7-21.7-6.6
				c-7.8,4.2-10.7,13.9-6.6,21.6l7.5,14.1c2.3,4.4,6.6,7.4,11.5,8.2l29,40c1.6,2.2,4.7,2.7,7,1.1c2.2-1.6,2.7-4.7,1.1-7l0,0
				L57.6,77.5c0.8-0.5,1.6-1.1,2.4-1.7L72.6,85l9.4,17.5c1.3,2.5,4.3,3.4,6.7,2.2c2.5-1.3,3.4-4.3,2.2-6.7c0,0,0-0.1-0.1-0.1
				l-9.9-18.5C80.5,78.7,80.1,78.1,79.5,77.7z"/>
		</defs>
		<clipPath id="SVGID_2_">
			<use xlink:href="#SVGID_1_"  style="overflow:visible;"/>
		</clipPath>
		<g style="clip-path:url(#SVGID_2_);">
			<path style="fill:#ECCCA6;" d="M58.7,77l-3.5,1.9L83,116.2c0,0,1.9,3.5-1.6,5.4s11.6,0.6,11.6,0.6l-6.6-12.4L58.7,77z"/>
			<polygon style="fill:#4C7BBE;" points="63.5,56.3 35.3,71.4 51.3,101.4 65.2,84.9 66,82.2 73.8,71.2 			"/>
			<path style="fill:#ECCCA6;" d="M52.8,38.2c0,0,12.6,21.6,9.8,31.1l14.6,10.4c1.1,0.8,2.1,1.9,2.8,3.1l9.9,18.5
				c0.8,1.4,0.3,3.2-1.1,4c0,0-0.1,0-0.1,0.1c-2.6,1.4,12.5-2.1,12.5-2.1L76.1,56.4C76.1,56.4,54.5,37.3,52.8,38.2z"/>
			<polygon style="fill:#427ABE;" points="55.2,78.9 62.2,88.4 65.2,84.9 65.2,84.7 58.7,77 			"/>
			<path style="fill:#427ABE;" d="M61.4,57.4c1.4,4.5,2.1,8.8,1.1,11.9l8.4,6l2.9-4L63.5,56.3L61.4,57.4z"/>
			<path style="fill:#F4F3F2;" d="M45.9,34c0,0,5.1,7.5,10.5,9.1L64,57.2L35.3,71.4l-7.5-14.1c0,0-0.3-11.2-1.2-12.9l-0.1-2.2
				c0,0,5.5,6.1,12.6,2.4c4-2,6.3-6.4,5.5-10.9L45.9,34z"/>
			<path style="fill:#E5E5E5;" d="M64,57.2l-7.5-14.1c-0.5-0.2-0.9-0.3-1.4-0.6c2.7,5.1,4.9,10.4,6.6,15.8L64,57.2z"/>
		</g>
	</g>
	<g>
		<defs>
			<path id="SVGID_3_" d="M34.3,35.6L34.3,35.6c7.8-4.2,17.5-1.2,21.6,6.6l7.5,14.1c4.2,7.8,1.2,17.5-6.6,21.6l0,0
				c-7.8,4.2-17.5,1.2-21.6-6.6l-7.5-14.1C23.6,49.5,26.5,39.8,34.3,35.6z"/>
		</defs>
		<clipPath id="SVGID_4_">
			<use xlink:href="#SVGID_3_"  style="overflow:visible;"/>
		</clipPath>
		<g style="clip-path:url(#SVGID_4_);">
			<path style="fill:#ECCCA6;" d="M21.8,33.2l17.6-9.4l0,0l3.8,7.1c2.6,4.9,0.8,10.9-4.1,13.5l0,0c-4.9,2.6-10.9,0.8-13.5-4.1
				L21.8,33.2L21.8,33.2L21.8,33.2z"/>
		</g>
	</g>
	<path style="fill:#F9E2C6;" d="M42.5,23.3l-0.9,0.5l-3.3-6.2c-3.1-5.8-10.4-8.1-16.2-4.9S14.1,23,17.2,28.9l0,0l3.3,6.2l-0.9,0.5
		c-1,0.5-1.3,1.8-0.8,2.7c0.5,0.9,1.7,1.3,2.7,0.8l1.2-0.7c4.5,4.9,12.1,5.2,17,0.6c3.2-2.9,4.5-7.4,3.5-11.6l1.2-0.7
		c1-0.5,1.3-1.8,0.8-2.7C44.7,23.2,43.5,22.8,42.5,23.3L42.5,23.3z"/>
	
		<ellipse transform="matrix(0.8824 -0.4705 0.4705 0.8824 -15.1403 14.0461)" style="fill:#D3AF89;" cx="20.5" cy="37.3" rx="1" ry="1"/>
	
		<ellipse transform="matrix(0.8824 -0.4705 0.4705 0.8824 -15.1614 14.384)" style="fill:#F9E2C6;" cx="21.2" cy="37.5" rx="0.5" ry="0.5"/>
	
		<ellipse transform="matrix(0.8824 -0.4705 0.4705 0.8824 -6.6846 23.4024)" style="fill:#D3AF89;" cx="43.5" cy="25.1" rx="1" ry="1"/>
	
		<ellipse transform="matrix(0.8824 -0.4705 0.4705 0.8824 -7.0294 23.3809)" style="fill:#F9E2C6;" cx="43.3" cy="25.8" rx="0.5" ry="0.5"/>
	<path style="fill:#ECCCA6;" d="M22.1,12.7L22.1,12.7c5.8-3.1,13.1-0.9,16.2,4.9l3.8,7.1c3.1,5.8,0.9,13.1-4.9,16.2l0,0
		C31.3,44,24.1,41.8,20.9,36l-3.8-7.1C14,23.1,16.3,15.8,22.1,12.7z"/>
	<g>
		<defs>
			<path id="SVGID_5_" d="M22.1,12.7L22.1,12.7c5.8-3.1,13.1-0.9,16.2,4.9l3.8,7.1c3.1,5.8,0.9,13.1-4.9,16.2l0,0
				C31.3,44,24.1,41.8,20.9,36l-3.8-7.1C14,23.1,16.3,15.8,22.1,12.7z"/>
		</defs>
		<clipPath id="SVGID_6_">
			<use xlink:href="#SVGID_5_"  style="overflow:visible;"/>
		</clipPath>
		<g style="clip-path:url(#SVGID_6_);">
			<path style="fill:#F9E2C6;" d="M20.3,13.6L20.3,13.6c5.8-3.1,13.1-0.9,16.2,4.9l3.8,7.1c3.1,5.8,0.9,13.1-4.9,16.2l0,0
				c-5.8,3.1-13.1,0.9-16.2-4.9l-3.8-7.1C12.3,24,14.5,16.7,20.3,13.6z"/>
		</g>
	</g>
	
		<ellipse transform="matrix(0.8824 -0.4705 0.4705 0.8824 -7.1141 18.2293)" style="fill:#333C43;" cx="32.9" cy="23.3" rx="1.5" ry="1.5"/>
	
		<ellipse transform="matrix(0.8824 -0.4705 0.4705 0.8824 -10.3621 14.6311)" style="fill:#333C43;" cx="24.1" cy="28" rx="1.5" ry="1.5"/>
	<path style="fill:#DA6E73;" d="M30.9,19.8l3.9-0.7c0.5-0.1,1.1,0.3,1.2,0.8l0,0c0.1,0.5-0.3,1.1-0.8,1.2l-3.9,0.7
		c-0.5,0.1-1.1-0.3-1.2-0.8l0,0C30,20.4,30.4,19.9,30.9,19.8z"/>
	<path style="fill:#DA6E73;" d="M23.7,25.8l-2.8,2.9c-0.4,0.4-1,0.4-1.4,0l0,0c-0.4-0.4-0.4-1,0-1.4l2.8-2.9c0.4-0.4,1-0.4,1.4,0
		l0,0C24,24.8,24.1,25.4,23.7,25.8z"/>
	<path style="fill:#333C43;" d="M26.8,34c1,3.1,4.4,4.9,7.6,3.8s4.9-4.4,3.8-7.6c-0.2-0.7-0.5-1.3-1-1.8L26.8,34z"/>
	
		<rect x="27.2" y="31.1" transform="matrix(0.8824 -0.4705 0.4705 0.8824 -11.0924 18.8842)" style="fill:#F3F6F9;" width="10" height="1"/>
	
		<rect x="27.8" y="31.1" transform="matrix(0.8824 -0.4705 0.4705 0.8824 -11.1855 18.9672)" style="fill:#FFFFFF;" width="9" height="1.5"/>
	<g>
		<defs>
			<path id="SVGID_7_" d="M26.8,34c1,3.1,4.4,4.9,7.6,3.8s4.9-4.4,3.8-7.6c-0.2-0.7-0.5-1.3-1-1.8L26.8,34z"/>
		</defs>
		<clipPath id="SVGID_8_">
			<use xlink:href="#SVGID_7_"  style="overflow:visible;"/>
		</clipPath>
		<g style="clip-path:url(#SVGID_8_);">
			
				<ellipse transform="matrix(0.8824 -0.4705 0.4705 0.8824 -13.0706 20.6724)" style="fill:#DA6E73;" cx="34.8" cy="36.5" rx="5" ry="2"/>
		</g>
	</g>
	
		<ellipse transform="matrix(0.8824 -0.4705 0.4705 0.8824 -4.7656 12.508)" style="fill:#DA6E73;" cx="22.6" cy="15.8" rx="5" ry="5"/>
	<path style="fill:#DA6E73;" d="M25,20.2c0,0-9.3,3.8-6.5,9.1l-3.8-7.1l3.9-5.5L25,20.2z"/>
	<path style="fill:#DA6E73;" d="M20.7,11.1c-6.8,3.6-9.4,12.1-5.8,18.9l4.2,7.9c1,1.9,3.5,2.7,5.4,1.6l0,0c-0.1-0.1-0.2-0.3-0.3-0.4
		l-6.1-11.5c-2.3-5-0.1-11,5-13.2c4.6-2.1,10-0.4,12.7,3.9L42,29.8c0.1,0.1,0.1,0.3,0.2,0.4l0,0c1.9-1,2.7-3.5,1.6-5.4l-4.2-7.9
		C36,10.1,27.5,7.5,20.7,11.1z"/>
	<circle style="fill:#DA6E73;" cx="38.1" cy="25.7" r="0"/>
	
		<ellipse transform="matrix(0.8824 -0.4705 0.4705 0.8824 -7.5778 20.6123)" style="fill:#DA6E73;" cx="37.4" cy="25.5" rx="0.2" ry="0.2"/>
	
		<ellipse transform="matrix(0.8824 -0.4705 0.4705 0.8824 -8.2593 20.5744)" style="fill:#DA6E73;" cx="37" cy="26.8" rx="0.2" ry="0.2"/>
	
		<ellipse transform="matrix(0.8824 -0.4705 0.4705 0.8824 -7.9524 21.2774)" style="fill:#DA6E73;" cx="38.6" cy="26.5" rx="0.2" ry="0.2"/>
	
		<ellipse transform="matrix(0.8824 -0.4705 0.4705 0.8824 -12.3754 15.3008)" style="fill:#DA6E73;" cx="24.4" cy="32.4" rx="0.2" ry="0.2"/>
	
		<ellipse transform="matrix(0.8824 -0.4705 0.4705 0.8824 -12.4053 15.9847)" style="fill:#DA6E73;" cx="25.8" cy="32.8" rx="0.2" ry="0.2"/>
	
		<ellipse transform="matrix(0.8824 -0.4705 0.4705 0.8824 -13.0772 15.6124)" style="fill:#DA6E73;" cx="24.7" cy="34" rx="0.2" ry="0.2"/>
	<path style="fill:#F9E2C6;" d="M57.8,77.5"/>
</g>
</svg>
