<?xml version="1.0" encoding="utf-8"?>
<!-- Generator: Adobe Illustrator 19.2.0, SVG Export Plug-In . SVG Version: 6.00 Build 0)  -->
<svg version="1.1" id="Layer_1" xmlns="http://www.w3.org/2000/svg" xmlns:xlink="http://www.w3.org/1999/xlink" x="0px" y="0px"
	 viewBox="0 0 62.1 82.7" style="enable-background:new 0 0 62.1 82.7;" xml:space="preserve">
<path style="fill:#F9E2C6;" d="M8.1,52.8l9.8-7.2c-0.5-2.5-0.2-5.1,1-7.3l5.1-9.6c2.8-5.3,9.4-7.3,14.7-4.5C44,27,46,33.6,43.2,38.9
	l0,0L38,48.5c-1.6,3-4.5,5.1-7.8,5.6L10.5,81.3c-1.1,1.5-3.2,1.9-4.8,0.8S3.9,78.8,5,77.3l17.9-24.6c-0.6-0.3-1.1-0.7-1.6-1.2
	l-8.6,6.3L6.4,69.7c-0.9,1.7-2.9,2.3-4.6,1.4c-1.7-0.9-2.3-2.9-1.4-4.6l0,0l6.7-12.6C7.4,53.4,7.7,53.1,8.1,52.8z"/>
<path style="fill:#F9E2C6;" d="M29.1,29.5c1.3,0,2.4-1.1,2.4-2.4c0-0.3-0.1-0.6-0.2-0.9l-5.8-14.7l11.9-7.1c1.1-0.7,1.5-2.1,0.9-3.2
	S36.1-0.3,35,0.3c0,0-0.1,0-0.1,0L21.3,8.5c-1,0.6-1.4,1.8-1,2.9L26.9,28C27.2,28.9,28.1,29.5,29.1,29.5z"/>
<path style="fill:#F9E2C6;" d="M42.3,36.5c0.2,0,0.3,0,0.5-0.1l17.4-3.8c1.1-0.2,1.9-1.3,1.9-2.4l-0.8-15.8
	c-0.1-1.3-1.3-2.3-2.6-2.2c-1.2,0.1-2.2,1.2-2.2,2.4l0.7,13.8l-15.4,3.4c-1.3,0.3-2.1,1.6-1.8,2.9C40.2,35.7,41.2,36.5,42.3,36.5
	L42.3,36.5z"/>
<g>
	<defs>
		<path id="SVGID_1_" d="M8.1,52.8l9.8-7.2c-0.5-2.5-0.2-5.1,1-7.3l5.1-9.6c2.8-5.3,9.4-7.3,14.7-4.5C44,27,46,33.6,43.2,38.9l0,0
			L38,48.5c-1.6,3-4.5,5.1-7.8,5.6L10.5,81.3c-1.1,1.5-3.2,1.9-4.8,0.8S3.9,78.8,5,77.3l17.9-24.6c-0.6-0.3-1.1-0.7-1.6-1.2
			l-8.6,6.3L6.4,69.7c-0.9,1.7-2.9,2.3-4.6,1.4c-1.7-0.9-2.3-2.9-1.4-4.6l0,0l6.7-12.6C7.4,53.4,7.7,53.1,8.1,52.8z"/>
	</defs>
	<clipPath id="SVGID_2_">
		<use xlink:href="#SVGID_1_"  style="overflow:visible;"/>
	</clipPath>
	<g style="clip-path:url(#SVGID_2_);">
		<path style="fill:#ECCCA6;" d="M22.2,52.3l2.4,1.3L5.7,78.9c-0.7,1.3-0.3,2.9,1,3.6c0,0,0.1,0,0.1,0.1C9.2,83.9-1.1,83-1.1,83
			l4.5-8.4L22.2,52.3z"/>
		<polygon style="fill:#4C7BBE;" points="18.9,38.3 38.1,48.5 27.2,68.8 17.8,57.7 17.2,55.8 12,48.4 		"/>
		<path style="fill:#ECCCA6;" d="M26.2,26c0,0-8.6,14.7-6.6,21.1l-9.9,7c-0.8,0.6-1.4,1.3-1.9,2.1L1.1,68.7c-0.5,1-0.2,2.2,0.8,2.7
			c0,0,0,0,0.1,0c1.8,1-8.5-1.4-8.5-1.4l16.9-31.8C10.4,38.3,25,25.4,26.2,26z"/>
		<polygon style="fill:#427ABE;" points="24.6,53.6 19.8,60 17.8,57.7 17.8,57.6 22.2,52.3 		"/>
		<path style="fill:#427ABE;" d="M20.4,39c-0.9,3-1.4,6-0.8,8.1l-5.7,4L12,48.4l6.9-10.1L20.4,39z"/>
		<path style="fill:#F4F3F2;" d="M30.9,23.1c0,0-3.5,5.1-7.1,6.2l-5.1,9.6l19.5,9.6l5.1-9.6c0,0,0.2-7.6,0.8-8.8v-1.5
			c0,0-3.8,4.1-8.6,1.6c-2.7-1.4-4.2-4.4-3.8-7.4L30.9,23.1z"/>
		<path style="fill:#E5E5E5;" d="M18.6,38.9l5.1-9.6c0.3-0.1,0.6-0.2,0.9-0.4c-1.8,3.4-3.3,7.1-4.5,10.8L18.6,38.9z"/>
	</g>
</g>
<g>
	<defs>
		<path id="SVGID_3_" d="M23.4,53L23.4,53c-5.3-2.8-7.3-9.4-4.5-14.7l5.1-9.6c2.8-5.3,9.4-7.3,14.7-4.5l0,0C44,27,46,33.6,43.2,38.9
			l-5.1,9.6C35.2,53.8,28.7,55.8,23.4,53z"/>
	</defs>
	<clipPath id="SVGID_4_">
		<use xlink:href="#SVGID_3_"  style="overflow:visible;"/>
	</clipPath>
	<g style="clip-path:url(#SVGID_4_);">
		<path style="fill:#ECCCA6;" d="M35.5,30.2L35.5,30.2c-3.3-1.8-4.6-5.9-2.8-9.2l2.6-4.8l0,0l12,6.4l0,0l-2.6,4.8
			C42.9,30.7,38.8,32,35.5,30.2L35.5,30.2z"/>
	</g>
</g>
<path style="fill:#F9E2C6;" d="M33.2,15.8l0.6,0.3L36,12c2.2-3.9,7.1-5.4,11.1-3.2c3.9,2.1,5.3,7,3.3,10.9l-2.2,4.2l0.6,0.3
	c0.7,0.4,0.9,1.2,0.6,1.8c-0.4,0.7-1.2,0.9-1.8,0.6c0,0,0,0,0,0l-0.8-0.4c-3,3.3-8.2,3.6-11.5,0.5c-2.2-2-3.1-5.1-2.4-8l-0.8-0.4
	c-0.7-0.4-0.9-1.2-0.6-1.8C31.7,15.7,32.5,15.5,33.2,15.8C33.2,15.8,33.2,15.8,33.2,15.8L33.2,15.8z"/>
<ellipse transform="matrix(0.4705 -0.8824 0.8824 0.4705 3.1055 55.8644)" style="fill:#D3AF89;" cx="48.1" cy="25.3" rx="0.7" ry="0.7"/>
<ellipse transform="matrix(0.4705 -0.8824 0.8824 0.4705 2.7406 55.5399)" style="fill:#F9E2C6;" cx="47.7" cy="25.5" rx="0.3" ry="0.3"/>
<ellipse transform="matrix(0.4705 -0.8824 0.8824 0.4705 2.1965 37.7262)" style="fill:#D3AF89;" cx="32.5" cy="17" rx="0.7" ry="0.7"/>
<ellipse transform="matrix(0.4705 -0.8824 0.8824 0.4705 1.8631 38.0963)" style="fill:#F9E2C6;" cx="32.7" cy="17.5" rx="0.3" ry="0.3"/>
<path style="fill:#ECCCA6;" d="M36.8,27.8L36.8,27.8c-4-2.1-5.5-7.1-3.4-11L36,12c2.1-4,7.1-5.5,11-3.4l0,0c4,2.1,5.5,7.1,3.4,11
	l-2.6,4.8C45.7,28.4,40.8,29.9,36.8,27.8z"/>
<g>
	<defs>
		<path id="SVGID_5_" d="M36.8,27.8L36.8,27.8c-4-2.1-5.5-7.1-3.4-11L36,12c2.1-4,7.1-5.5,11-3.4l0,0c4,2.1,5.5,7.1,3.4,11l-2.6,4.8
			C45.7,28.4,40.8,29.9,36.8,27.8z"/>
	</defs>
	<clipPath id="SVGID_6_">
		<use xlink:href="#SVGID_5_"  style="overflow:visible;"/>
	</clipPath>
	<g style="clip-path:url(#SVGID_6_);">
		<path style="fill:#F9E2C6;" d="M38,28.4L38,28.4c-4-2.1-5.5-7.1-3.4-11l2.6-4.8c2.1-4,7.1-5.5,11-3.4l0,0c4,2.1,5.5,7.1,3.4,11
			L49,25.1C46.9,29.1,42,30.6,38,28.4z"/>
	</g>
</g>
<ellipse transform="matrix(0.4705 -0.8824 0.8824 0.4705 7.0317 43.4205)" style="fill:#333C43;" cx="39.7" cy="15.9" rx="1" ry="1"/>
<ellipse transform="matrix(0.4705 -0.8824 0.8824 0.4705 7.3803 50.4023)" style="fill:#333C43;" cx="45.7" cy="19.1" rx="1" ry="1"/>
<path style="fill:#DA6E73;" d="M40.8,14.8l-2.7-0.5c-0.4-0.1-0.6-0.4-0.6-0.8l0,0c0.1-0.4,0.4-0.6,0.8-0.6l2.7,0.5
	c0.4,0.1,0.6,0.4,0.6,0.8l0,0C41.6,14.6,41.2,14.8,40.8,14.8z"/>
<path style="fill:#DA6E73;" d="M46.9,16.6l1.9,2c0.3,0.3,0.2,0.7,0,1l0,0c-0.3,0.3-0.7,0.2-1,0l-1.9-2c-0.3-0.3-0.2-0.7,0-1l0,0
	C46.3,16.3,46.7,16.3,46.9,16.6z"/>
<path style="fill:#333C43;" d="M43.9,23.1c-0.7,2.1-3,3.3-5.2,2.6c-2.1-0.7-3.3-3-2.6-5.2c0.1-0.4,0.4-0.8,0.6-1.2L43.9,23.1z"/>
<rect x="39.8" y="18.1" transform="matrix(0.4706 -0.8824 0.8824 0.4706 2.2945 46.8171)" style="fill:#F3F6F9;" width="0.7" height="6.8"/>
<rect x="39.6" y="18.6" transform="matrix(0.4706 -0.8824 0.8824 0.4706 2.1157 46.8297)" style="fill:#FFFFFF;" width="1" height="6.1"/>
<g>
	<defs>
		<path id="SVGID_7_" d="M43.9,23.1c-0.7,2.1-3,3.3-5.2,2.6c-2.1-0.7-3.3-3-2.6-5.2c0.1-0.4,0.4-0.8,0.6-1.2L43.9,23.1z"/>
	</defs>
	<clipPath id="SVGID_8_">
		<use xlink:href="#SVGID_7_"  style="overflow:visible;"/>
	</clipPath>
	<g style="clip-path:url(#SVGID_8_);">
		
			<ellipse transform="matrix(0.4705 -0.8824 0.8824 0.4705 -1.5313 47.0079)" style="fill:#DA6E73;" cx="38.4" cy="24.8" rx="1.4" ry="3.4"/>
	</g>
</g>
<ellipse transform="matrix(0.4705 -0.8824 0.8824 0.4705 15.2537 46.8552)" style="fill:#DA6E73;" cx="46.7" cy="10.7" rx="3.4" ry="3.4"/>
<path style="fill:#DA6E73;" d="M45.1,13.7c0,0,6.3,2.6,4.4,6.2l2.6-4.8l-2.6-3.7L45.1,13.7z"/>
<path style="fill:#DA6E73;" d="M48,7.6c4.6,2.5,6.4,8.2,3.9,12.9L49,25.8c-0.7,1.3-2.3,1.8-3.7,1.1l0,0c0.1-0.1,0.1-0.2,0.2-0.3
	l4.1-7.8c1.8-3.3,0.5-7.4-2.8-9.2c-3.3-1.8-7.4-0.5-9.2,2.8l-4.1,7.8c-0.1,0.1-0.1,0.2-0.1,0.3l0,0c-1.3-0.7-1.8-2.3-1.1-3.7
	l2.9-5.4C37.6,6.9,43.3,5.1,48,7.6z"/>
<circle style="fill:#DA6E73;" cx="36.2" cy="17.4" r="0"/>
<ellipse transform="matrix(0.4705 -0.8824 0.8824 0.4705 4.1317 41.478)" style="fill:#DA6E73;" cx="36.6" cy="17.3" rx="0.2" ry="0.2"/>
<ellipse transform="matrix(0.4705 -0.8824 0.8824 0.4705 3.4684 42.2043)" style="fill:#DA6E73;" cx="36.9" cy="18.2" rx="0.2" ry="0.2"/>
<ellipse transform="matrix(0.4705 -0.8824 0.8824 0.4705 3.0667 41.1761)" style="fill:#DA6E73;" cx="35.8" cy="18" rx="0.2" ry="0.2"/>
<ellipse transform="matrix(0.4705 -0.8824 0.8824 0.4705 4.6572 51.766)" style="fill:#DA6E73;" cx="45.5" cy="22" rx="0.2" ry="0.2"/>
<ellipse transform="matrix(0.4705 -0.8824 0.8824 0.4705 3.9168 51.0992)" style="fill:#DA6E73;" cx="44.5" cy="22.3" rx="0.2" ry="0.2"/>
<ellipse transform="matrix(0.4705 -0.8824 0.8824 0.4705 3.6289 52.1677)" style="fill:#DA6E73;" cx="45.3" cy="23.1" rx="0.2" ry="0.2"/>
<path style="fill:#F9E2C6;" d="M22.8,52.7"/>
</svg>
