<?xml version="1.0" encoding="utf-8"?>
<!-- Generator: Adobe Illustrator 19.2.0, SVG Export Plug-In . SVG Version: 6.00 Build 0)  -->
<svg version="1.1" id="Layer_1" xmlns="http://www.w3.org/2000/svg" xmlns:xlink="http://www.w3.org/1999/xlink" x="0px" y="0px"
	 viewBox="0 0 415 384" style="enable-background:new 0 0 415 384;" xml:space="preserve">
<g>
	<g id="Calque_2">
		<defs>
			<path id="SVGID_1_" d="M22,256h10c8.8,0,16-7.2,16-16s-7.2-16-16-16c-17.7,0-32-14.3-32-32s14.3-32,32-32h41c8.8,0,16-7.2,16-16
				s-7.2-16-16-16h-1c-17.7,0-32-14.3-32-32s14.3-32,32-32h21c8.8,0,16-7.2,16-16l0,0c0-8.8,7.2-16,16-16h28c8.8,0,16-7.2,16-16l0,0
				c0-8.8,7.2-16,16-16h82c8.8,0,16,7.2,16,16l0,0c0,8.8,7.2,16,16,16h18c8.8,0,16,7.2,16,16l0,0c0,8.8-7.2,16-16,16s-16,7.2-16,16
				s7.2,16,16,16h66c17.7,0,32,14.3,32,32s-14.3,32-32,32h-48c-17.7,0-32,14.3-32,32s14.3,32,32,32h30c26.5,0,48,21.5,48,48
				s-21.5,48-48,48h-78c-8.8,0-16,7.2-16,16s7.2,16,16,16s16,7.2,16,16l0,0c0,8.8-7.2,16-16,16H165c-8.8,0-16-7.2-16-16
				s-7.2-16-16-16h-8c-8.8,0-16-7.2-16-16s-7.2-16-16-16h-5.1c-8.8,0-15.9-7.2-15.9-16c0-8.8-7.2-16-16-16H22c-8.8,0-16-7.2-16-16
				l0,0C6,263.2,13.2,256,22,256z"/>
		</defs>
		<clipPath id="SVGID_2_">
			<use xlink:href="#SVGID_1_"  style="overflow:visible;"/>
		</clipPath>
		<g id="Calque_13" style="clip-path:url(#SVGID_2_);">
			<path style="fill:#5DBE87;" d="M141,273.5c-2.8,0-5,2.2-5,5V306c0,2.3-1.4,4.3-3.5,5.1V251c0-3.6-2.9-6.5-6.5-6.5
				c-3.6,0-6.5,2.9-6.5,6.5v43.3c-2.9-0.7-5-3.3-5-6.3v-17.5c0-2.2-1.8-4-4-4s-4,1.8-4,4V288c0,7.4,5.6,13.6,13,14.4V350
				c0,3.6,2.9,6.5,6.5,6.5c3.6,0,6.5-2.9,6.5-6.5l0,0v-28.6c7.7-1,13.5-7.6,13.5-15.4v-27.5C146,275.7,143.8,273.5,141,273.5z"/>
			<g>
				<defs>
					<path id="SVGID_3_" d="M141,273.5c-2.8,0-5,2.2-5,5V306c0,2.3-1.4,4.3-3.5,5.1V251c0-3.6-2.9-6.5-6.5-6.5
						c-3.6,0-6.5,2.9-6.5,6.5v43.3c-2.9-0.7-5-3.3-5-6.3v-17.5c0-2.2-1.8-4-4-4s-4,1.8-4,4V288c0,7.4,5.6,13.6,13,14.4V350
						c0,3.6,2.9,6.5,6.5,6.5c3.6,0,6.5-2.9,6.5-6.5l0,0v-28.6c7.7-1,13.5-7.6,13.5-15.4v-27.5C146,275.7,143.8,273.5,141,273.5z"/>
				</defs>
				<clipPath id="SVGID_4_">
					<use xlink:href="#SVGID_3_"  style="overflow:visible;"/>
				</clipPath>
				<g style="clip-path:url(#SVGID_4_);">
					<path style="fill:#50AE78;" d="M122.5,245.2c0,0,6,0.8,6,3.8v109h4V244h-9L122.5,245.2z"/>
					<path style="fill:#50AE78;" d="M132.5,315.2c0,0,8.5-0.2,8.5-8.2v-28c0,0,1-3,3-3c1.1,0,2,0.9,2,2l2,30l-2,12l-15,3
						L132.5,315.2z"/>
					<path style="fill:#50AE78;" d="M114.5,270.2c-0.3-1.2-1.3-2.1-2.5-2.2c-1.3,0.1-2.4,0.9-3,2v20c0,0,1,9,11,9
						c1.2-0.3,2-1.4,2-2.6c0-2-2.5-2.1-2.5-2.1L114.5,270.2z"/>
				</g>
			</g>
		</g>
		<g id="Calque_12" style="clip-path:url(#SVGID_2_);">
			<ellipse style="opacity:0.5;fill:#7AD0E7;enable-background:new    ;" cx="225.3" cy="103.3" rx="36.5" ry="24.4"/>
			<ellipse style="fill:#7AD0E7;" cx="225.3" cy="103.3" rx="34.8" ry="23.2"/>
			<path style="fill:none;stroke:#FFFFFF;stroke-width:3;stroke-linecap:round;stroke-miterlimit:10;" d="M248,94.6
				c2.2,2.4,3.5,5.5,3.6,8.8"/>
			<path style="fill:none;stroke:#FFFFFF;stroke-width:3;stroke-linecap:round;stroke-miterlimit:10;" d="M225.3,85.8
				c4.7,0,9.3,0.8,13.7,2.6"/>
			<path style="fill:#FFFFFF;" d="M118,121.6c0-13,48.1-25.1,107.3-25.1s107.3,12.1,107.3,25.1s-48,23.6-107.3,23.6
				S118,134.6,118,121.6z"/>
			<g>
				<defs>
					<path id="SVGID_5_" d="M118,121.6c0-13,48.1-25.1,107.3-25.1s107.3,12.1,107.3,25.1s-48,23.6-107.3,23.6S118,134.6,118,121.6z"
						/>
				</defs>
				<clipPath id="SVGID_6_">
					<use xlink:href="#SVGID_5_"  style="overflow:visible;"/>
				</clipPath>
				<g style="clip-path:url(#SVGID_6_);">
					<path style="fill:#F3F6F9;" d="M189.6,98c0,0,114-5,131.7,21s22.7,7,22.7,7l-15-33L184,68L189.6,98z"/>
				</g>
			</g>
			<g>
				<defs>
					<ellipse id="SVGID_7_" cx="225.3" cy="121.6" rx="107.3" ry="23.6"/>
				</defs>
				<clipPath id="SVGID_8_">
					<use xlink:href="#SVGID_7_"  style="overflow:visible;"/>
				</clipPath>
				<g style="clip-path:url(#SVGID_8_);">
					<ellipse style="fill:#E1E4E4;" cx="225.3" cy="127.2" rx="107.3" ry="18"/>
					<ellipse style="fill:#B2C2CC;" cx="225.3" cy="130.2" rx="107.3" ry="15"/>
					<path style="fill:#C8D5DD;" d="M225.3,110.3c-54.8,0-99.2,6.7-99.2,15c0,6.7,28.9,12.3,68.7,14.3c3.5-3,15.4-5.1,29.6-5.1
						s26.3,2.2,29.6,5.2c40.8-1.9,70.4-7.6,70.4-14.3C324.5,117,280.1,110.3,225.3,110.3z"/>
					<path style="fill:#34464F;" d="M225.3,115.3c55.9,0,101.9,6,106.9,13.6c0.3-0.5,0.4-1.1,0.5-1.7c0-9.9-48-18-107.3-18
						s-107.3,8-107.3,18c0,0.6,0.2,1.2,0.5,1.7C123.5,121.2,169.4,115.3,225.3,115.3z"/>
				</g>
			</g>
			<g>
				<defs>
					<path id="SVGID_9_" d="M119,124.8c0.5,0.8,1.1,1.5,1.7,2.1c10.9-6.7,53.6-11.6,104.6-11.6s93.7,5,104.6,11.6
						c0.7-0.6,1.3-1.3,1.7-2.1c-7-8.8-52-15.6-106.4-15.6S126,116,119,124.8z"/>
				</defs>
				<clipPath id="SVGID_10_">
					<use xlink:href="#SVGID_9_"  style="overflow:visible;"/>
				</clipPath>
				<g style="clip-path:url(#SVGID_10_);">
					<line style="fill:none;stroke:#5DBE87;stroke-width:2;stroke-miterlimit:10;" x1="111.2" y1="111.7" x2="225.3" y2="219"/>
					<line style="fill:none;stroke:#5DBE87;stroke-width:2;stroke-miterlimit:10;" x1="117.9" y1="108.3" x2="225.3" y2="219"/>
					<line style="fill:none;stroke:#5DBE87;stroke-width:2;stroke-miterlimit:10;" x1="124.6" y1="105" x2="225.3" y2="219"/>
					<line style="fill:none;stroke:#5DBE87;stroke-width:2;stroke-miterlimit:10;" x1="131.3" y1="101.6" x2="225.3" y2="219"/>
					<line style="fill:none;stroke:#5DBE87;stroke-width:2;stroke-miterlimit:10;" x1="138" y1="98.3" x2="225.3" y2="219"/>
					<line style="fill:none;stroke:#5DBE87;stroke-width:2;stroke-miterlimit:10;" x1="144.7" y1="94.9" x2="225.3" y2="219"/>
					<line style="fill:none;stroke:#5DBE87;stroke-width:2;stroke-miterlimit:10;" x1="151.4" y1="91.6" x2="225.3" y2="219"/>
					<line style="fill:none;stroke:#5DBE87;stroke-width:2;stroke-miterlimit:10;" x1="158.2" y1="88.2" x2="225.3" y2="219"/>
					<line style="fill:none;stroke:#5DBE87;stroke-width:2;stroke-miterlimit:10;" x1="164.9" y1="84.8" x2="225.3" y2="219"/>
					<line style="fill:none;stroke:#5DBE87;stroke-width:2;stroke-miterlimit:10;" x1="171.6" y1="81.5" x2="225.3" y2="219"/>
					<line style="fill:none;stroke:#5DBE87;stroke-width:2;stroke-miterlimit:10;" x1="178.3" y1="78.1" x2="225.3" y2="219"/>
					<line style="fill:none;stroke:#5DBE87;stroke-width:2;stroke-miterlimit:10;" x1="185" y1="74.8" x2="225.3" y2="219"/>
					<line style="fill:none;stroke:#5DBE87;stroke-width:2;stroke-miterlimit:10;" x1="191.8" y1="71.4" x2="225.3" y2="219"/>
					<line style="fill:none;stroke:#5DBE87;stroke-width:2;stroke-miterlimit:10;" x1="198.5" y1="68.1" x2="225.3" y2="219"/>
					<line style="fill:none;stroke:#5DBE87;stroke-width:2;stroke-miterlimit:10;" x1="205.2" y1="64.7" x2="225.3" y2="219"/>
					<line style="fill:none;stroke:#5DBE87;stroke-width:2;stroke-miterlimit:10;" x1="211.9" y1="61.3" x2="225.3" y2="219"/>
					<line style="fill:none;stroke:#5DBE87;stroke-width:2;stroke-miterlimit:10;" x1="218.6" y1="58" x2="225.3" y2="219"/>
					<line style="fill:none;stroke:#5DBE87;stroke-width:2;stroke-miterlimit:10;" x1="225.3" y1="54.6" x2="225.3" y2="219"/>
					<line style="fill:none;stroke:#5DBE87;stroke-width:2;stroke-miterlimit:10;" x1="339.5" y1="111.7" x2="225.3" y2="219"/>
					<line style="fill:none;stroke:#5DBE87;stroke-width:2;stroke-miterlimit:10;" x1="332.8" y1="108.3" x2="225.3" y2="219"/>
					<line style="fill:none;stroke:#5DBE87;stroke-width:2;stroke-miterlimit:10;" x1="326.1" y1="105" x2="225.3" y2="219"/>
					<line style="fill:none;stroke:#5DBE87;stroke-width:2;stroke-miterlimit:10;" x1="319.4" y1="101.6" x2="225.3" y2="219"/>
					<line style="fill:none;stroke:#5DBE87;stroke-width:2;stroke-miterlimit:10;" x1="312.6" y1="98.3" x2="225.3" y2="219"/>
					<line style="fill:none;stroke:#5DBE87;stroke-width:2;stroke-miterlimit:10;" x1="305.9" y1="94.9" x2="225.3" y2="219"/>
					<line style="fill:none;stroke:#5DBE87;stroke-width:2;stroke-miterlimit:10;" x1="299.2" y1="91.6" x2="225.3" y2="219"/>
					<line style="fill:none;stroke:#5DBE87;stroke-width:2;stroke-miterlimit:10;" x1="292.5" y1="88.2" x2="225.3" y2="219"/>
					<line style="fill:none;stroke:#5DBE87;stroke-width:2;stroke-miterlimit:10;" x1="285.8" y1="84.8" x2="225.3" y2="219"/>
					<line style="fill:none;stroke:#5DBE87;stroke-width:2;stroke-miterlimit:10;" x1="279.1" y1="81.5" x2="225.3" y2="219"/>
					<line style="fill:none;stroke:#5DBE87;stroke-width:2;stroke-miterlimit:10;" x1="272.4" y1="78.1" x2="225.3" y2="219"/>
					<line style="fill:none;stroke:#5DBE87;stroke-width:2;stroke-miterlimit:10;" x1="265.6" y1="74.8" x2="225.3" y2="219"/>
					<line style="fill:none;stroke:#5DBE87;stroke-width:2;stroke-miterlimit:10;" x1="258.9" y1="71.4" x2="225.3" y2="219"/>
					<line style="fill:none;stroke:#5DBE87;stroke-width:2;stroke-miterlimit:10;" x1="252.2" y1="68.1" x2="225.3" y2="219"/>
					<line style="fill:none;stroke:#5DBE87;stroke-width:2;stroke-miterlimit:10;" x1="245.5" y1="64.7" x2="225.3" y2="219"/>
					<line style="fill:none;stroke:#5DBE87;stroke-width:2;stroke-miterlimit:10;" x1="238.8" y1="61.3" x2="225.3" y2="219"/>
					<line style="fill:none;stroke:#5DBE87;stroke-width:2;stroke-miterlimit:10;" x1="232.1" y1="58" x2="225.3" y2="219"/>
					<line style="fill:none;stroke:#5DBE87;stroke-width:2;stroke-miterlimit:10;" x1="225.3" y1="54.6" x2="225.3" y2="219"/>
				</g>
			</g>
			<path style="fill:#34464F;" d="M225.3,111.2c48.3,0,84.7,5.2,98.9,11.2c-17.2-5.5-55.4-9.1-98.9-9.1s-81.7,3.6-98.9,9.1
				C140.7,116.4,177,111.2,225.3,111.2 M225.3,109.2c-54.4,0-99.3,6.8-106.4,15.6c0.5,0.8,1.1,1.5,1.7,2.1
				c10.9-6.7,53.6-11.6,104.6-11.6s93.7,5,104.6,11.6c0.7-0.6,1.3-1.3,1.7-2.1C324.7,116,279.7,109.2,225.3,109.2z"/>
			<ellipse style="fill:#FFFFFF;" cx="225.3" cy="142.9" rx="29.7" ry="5.3"/>
			<g>
				<defs>
					<path id="SVGID_11_" d="M22,256h10c8.8,0,16-7.2,16-16s-7.2-16-16-16c-17.7,0-32-14.3-32-32s14.3-32,32-32h41
						c8.8,0,16-7.2,16-16s-7.2-16-16-16h-1c-17.7,0-32-14.3-32-32s14.3-32,32-32h21c8.8,0,16-7.2,16-16l0,0c0-8.8,7.2-16,16-16h28
						c8.8,0,16-7.2,16-16l0,0c0-8.8,7.2-16,16-16h82c8.8,0,16,7.2,16,16l0,0c0,8.8,7.2,16,16,16h18c8.8,0,16,7.2,16,16l0,0
						c0,8.8-7.2,16-16,16s-16,7.2-16,16s7.2,16,16,16h66c17.7,0,32,14.3,32,32s-14.3,32-32,32h-48c-17.7,0-32,14.3-32,32
						s14.3,32,32,32h30c26.5,0,48,21.5,48,48s-21.5,48-48,48h-78c-8.8,0-16,7.2-16,16s7.2,16,16,16s16,7.2,16,16l0,0
						c0,8.8-7.2,16-16,16H165c-8.8,0-16-7.2-16-16s-7.2-16-16-16h-8c-8.8,0-16-7.2-16-16s-7.2-16-16-16h-5.1
						c-8.8,0-15.9-7.2-15.9-16c0-8.8-7.2-16-16-16H22c-8.8,0-16-7.2-16-16l0,0C6,263.2,13.2,256,22,256z"/>
				</defs>
				<clipPath id="SVGID_12_">
					<use xlink:href="#SVGID_11_"  style="overflow:visible;"/>
				</clipPath>
				<g style="clip-path:url(#SVGID_12_);">
					<path style="opacity:0.2;fill:#7AD0E7;enable-background:new    ;" d="M352.5,397l-100-252.6c0-2.2-12.2-4.1-27.1-4.1
						s-27.1,1.8-27.1,4.1L88.2,397H352.5z"/>
					<path style="opacity:0.2;fill:#7AD0E7;enable-background:new    ;" d="M325,395.7l-81.6-251.5c0-1.9-8.7-3.5-19.4-3.5
						s-19.4,1.6-19.4,3.5l-88.8,251.5H325z"/>
					<path style="opacity:0.2;fill:#7AD0E7;enable-background:new    ;" d="M304.4,395.7l-65.6-251.5c0-1.9-7-3.5-15.6-3.5
						s-15.6,1.6-15.6,3.5l-71.3,251.5H304.4z"/>
				</g>
			</g>
			<g>
				<defs>
					<path id="SVGID_13_" d="M345,346h-58c-5.5,0-10-4.5-10-10l0,0c0-5.5,4.5-10,10-10h58c5.5,0,10,4.5,10,10l0,0
						C355,341.5,350.5,346,345,346z"/>
				</defs>
				<clipPath id="SVGID_14_">
					<use xlink:href="#SVGID_13_"  style="overflow:visible;"/>
				</clipPath>
				<g style="clip-path:url(#SVGID_14_);">
					<path style="opacity:0.2;fill:#7AD0E7;enable-background:new    ;" d="M352.5,397l-100-252.6c0-2.2-12.2-4.1-27.1-4.1
						s-27.1,1.8-27.1,4.1L88.2,397H352.5z"/>
					<path style="opacity:0.2;fill:#7AD0E7;enable-background:new    ;" d="M325,395.7l-81.6-251.5c0-1.9-8.7-3.5-19.4-3.5
						s-19.4,1.6-19.4,3.5l-88.8,251.5H325z"/>
					<path style="opacity:0.2;fill:#7AD0E7;enable-background:new    ;" d="M304.4,395.7l-65.6-251.5c0-1.9-7-3.5-15.6-3.5
						s-15.6,1.6-15.6,3.5l-71.3,251.5H304.4z"/>
				</g>
			</g>
			<g>
				<defs>
					<path id="SVGID_15_" d="M242,409h-39c-5.5,0-10-4.5-10-10l0,0c0-5.5,4.5-10,10-10h39c5.5,0,10,4.5,10,10l0,0
						C252,404.5,247.5,409,242,409z"/>
				</defs>
				<clipPath id="SVGID_16_">
					<use xlink:href="#SVGID_15_"  style="overflow:visible;"/>
				</clipPath>
				<g style="clip-path:url(#SVGID_16_);">
					<path style="opacity:0.2;fill:#7AD0E7;enable-background:new    ;" d="M352.5,419l-100-252.6c0-2.2-12.2-4.1-27.1-4.1
						s-27.1,1.8-27.1,4.1L88.2,419H352.5z"/>
					<path style="opacity:0.2;fill:#7AD0E7;enable-background:new    ;" d="M325,417.7l-81.6-251.5c0-1.9-8.7-3.5-19.4-3.5
						s-19.4,1.6-19.4,3.5l-88.8,251.5H325z"/>
					<path style="opacity:0.2;fill:#7AD0E7;enable-background:new    ;" d="M304.4,417.7l-65.6-251.5c0-1.9-7-3.5-15.6-3.5
						s-15.6,1.6-15.6,3.5l-71.3,251.5H304.4z"/>
				</g>
			</g>
		</g>
	</g>
</g>
</svg>
