<svg version="1.1" id="Layer_1" xmlns="http://www.w3.org/2000/svg" xmlns:xlink="http://www.w3.org/1999/xlink" x="0px" y="0px"
	 viewBox="78.2 24.7 388.6 778.5" enable-background="new 78.2 24.7 388.6 778.5" xml:space="preserve">
<g>
	<path fill="#C92037" d="M409.4,28.5c-12.2,7.3-32.6,27.6-56.7,57.1l22.2,42c15.6-22.4,31.5-42.4,47.5-59.6c1.2-1.3,1.9-2,1.9-2
		c-0.6,0.7-1.3,1.3-1.9,2c-5.2,5.7-20.9,24-44.6,60.5c22.8-1.2,57.9-5.8,86.5-10.8c8.6-47.7-8.3-69.5-8.3-69.5
		S434.6,13.5,409.4,28.5z"/>
	<path fill="#555555" d="M371.6,268c0.1,0,0.3,0,0.4-0.1l-3.2,0.3c-0.1,0.1-0.4,0.1-0.6,0.3C369.4,268.3,370.6,268.2,371.6,268z"/>
	<path fill="#555555" d="M348.9,343.2c-1.7,0.4-3.6,0.7-5.5,1C345.3,343.9,347.2,343.6,348.9,343.2z"/>
	<path fill="#555555" d="M342,344.3L342,344.3L342,344.3L342,344.3z"/>
	<path fill="#555555" d="M334.6,381.1c-2.9,0.6-5.8,1-8.7,1.5l0,0c1.5-0.1,3.1-0.4,4.5-0.7C331.8,381.7,333.3,381.4,334.6,381.1z"/>
	<path opacity="0.35" fill="#555555" enable-background="new    " d="M334.6,381.1c-2.9,0.6-5.8,1-8.7,1.5l0,0
		c1.5-0.1,3.1-0.4,4.5-0.7C331.8,381.7,333.3,381.4,334.6,381.1z"/>
	<path fill="#555555" d="M342.1,344.3L342.1,344.3C342,344.3,342,344.3,342.1,344.3c0.4,0,0.9-0.1,1.3-0.1c1.9-0.3,3.8-0.6,5.5-1
		C346.8,343.6,344.4,343.9,342.1,344.3L342.1,344.3L342.1,344.3z"/>
	<path opacity="0.35" fill="#555555" enable-background="new    " d="M342.1,344.3L342.1,344.3C342,344.3,342,344.3,342.1,344.3
		c0.4,0,0.9-0.1,1.3-0.1c1.9-0.3,3.8-0.6,5.5-1C346.8,343.6,344.4,343.9,342.1,344.3L342.1,344.3L342.1,344.3z"/>
	<path fill="#C92037" d="M309.3,236.1c6.8-12.6,13.7-25,20.5-37.1c7.1-12.5,14.4-24.6,21.8-36.3c0.4-0.7,0.9-1.5,1.3-2
		c7.3-11.5,14.5-22.5,21.9-33.1l-22.2-41.9c-1.6,2-3.3,4.1-5.1,6.3c-6.4,8-13.1,16.6-19.9,25.7c-7.7,10.3-15.6,21.2-23.7,32.7
		c-7.4,10.6-15,21.8-22.5,33.3c-6.4,9.9-12.8,19.9-19.2,30.2c-0.3,0.4-0.4,0.7-0.7,1.2l28.9,57.1C296.8,260,303,248,309.3,236.1z"/>
	<path fill="#C92037" d="M177.4,558.3c-3.8,10.5-7.7,21.2-11.5,32.3c0,0.1-0.1,0.3-0.1,0.4c-0.6,1.6-1.2,3.1-1.6,4.7
		c-2.6,7.4-4.8,14.1-10,29.2c8.6,3.9,15.4,14.1,21.8,25.7c-0.7-12.1-5.7-23.4-15.1-32.1c42,1.9,78.3-8.7,97-39.5
		c1.6-2.8,3.2-5.7,4.7-8.7c-8.6,10.8-19,15.4-39,14.2h-0.1h0.1c29.2-13.1,43.9-25.7,56.8-46.5c3.1-4.9,6.1-10.3,9.2-16.3
		c-25.6,26.3-55.2,33.7-86.5,28.1l-23.4,2.6C178.9,554.4,178.2,556.3,177.4,558.3z"/>
	<path fill="#C92037" d="M188.3,505.8c5.1-13.1,10.3-26.3,15.6-39.7c5.1-12.8,10.3-25.6,15.7-38.5s10.9-25.9,16.4-38.8
		c5.7-13.2,11.5-26.3,17.4-39.4c5.8-12.9,11.9-25.9,17.9-38.7c2.2-4.7,4.4-9.2,6.7-13.8c3.8-7.8,7.7-15.7,11.6-23.5
		c0.1-0.4,0.4-0.9,0.6-1.3l-28.6-57c-0.4,0.7-0.9,1.6-1.5,2.3c-6.7,11-13.5,22.2-20.1,33.7c-6.7,11.6-13.2,23.4-19.6,35.5
		c-5.4,10.2-10.6,20.3-15.8,30.7c-1,2-2,4.2-3.1,6.3c-6.3,12.9-12.1,25.6-17.2,37.6c-5.8,13.7-10.9,26.7-15.4,39.1
		c-2.9,8.1-5.7,16-8.1,23.5c-2,6.4-3.9,12.9-5.8,19.3c-4.4,15.1-8,30.2-11,45.4l29.1,57.4c3.8-10.3,7.8-20.6,11.8-31.3
		C186,511.8,187.2,508.9,188.3,505.8z"/>
	<path fill="#C92037" d="M143.6,490.6c-3.6,18.3-6.3,36.6-7.6,54.9c0,0.6-0.1,1.3-0.1,1.9c-9-14.5-33.4-28.8-33.3-28.6
		c17.4,25.3,30.7,50.3,32.6,74.9c-9.3,1.9-22.1-0.9-36.8-6.3c15.4,14.1,26.9,18,31.4,19c-14.1,0.9-28.8,10.6-43.6,21.8
		c21.7-8.9,39.2-12.4,51.7-9.4C118,675,98.1,737.2,78.2,803.2c6.1-1.7,9.7-6,11.8-11.5c3.5-11.9,27.2-90.4,64.1-193.5
		c1-2.9,2.2-5.8,3.2-8.9c0.3-0.9,0.6-1.6,0.9-2.5c3.9-10.8,8-21.8,12.2-33.1c1-2.6,1.9-5.1,2.9-7.7v-0.1l-29.1-57.4
		C143.9,489.3,143.7,489.8,143.6,490.6z"/>
	<path fill="#C92037" d="M295,277c-0.9,1.7-1.6,3.3-2.5,5.1c-2.5,5.2-5.1,10.5-7.6,15.8c-2.8,5.8-5.5,11.8-8.4,17.9
		c-1.5,3.1-2.9,6.1-4.4,9.3c-4.4,9.4-8.7,19.2-13.2,29.2c-5.5,12.4-11,25.1-16.7,38.5c-5.4,12.6-10.9,25.9-16.4,39.4
		c-5.2,12.9-10.6,26.2-16,40c-4.8,12.2-9.6,24.9-14.5,37.8c-0.3,0.6-0.4,1.3-0.7,1.9c-4.8,12.8-9.7,26-14.7,39.5
		c-0.1,0.3-0.3,0.6-0.3,0.9l23.4-2.6c-0.4-0.1-0.9-0.1-1.5-0.3c28.1-3.5,65.3-24.4,89.2-50.3c11-11.9,21.1-25.9,30.4-42.3
		c7-12.2,13.4-25.7,19.6-40.8c5.4-13.1,10.6-27.3,15.6-42.7c-6.4,3.3-13.8,5.8-21.9,7.6c-1.5,0.3-2.9,0.6-4.4,0.9
		c-1.5,0.3-2.9,0.4-4.5,0.7l0,0l0,0l0,0c26.2-10,42.6-29.4,54.5-53.2c-6.8,4.7-18,10.8-31.4,13.8c-1.7,0.4-3.6,0.7-5.5,1
		c-0.4,0-0.9,0.1-1.5,0.1l0,0l0,0l0,0l0,0l0,0c9-3.8,16.7-8,23.4-13.1c1.5-1,2.8-2.2,4.1-3.3c2-1.7,3.9-3.6,5.8-5.5
		c1.2-1.3,2.3-2.5,3.5-3.8c2.6-3.1,5.1-6.4,7.3-10c0.7-1.2,1.5-2.2,2-3.3c0.9-1.7,1.7-3.3,2.5-4.9c3.6-7.3,6.5-13.8,8.9-19.6
		c1.2-2.9,2.2-5.5,3.1-8c0.3-1,0.7-1.9,1-2.9c0.9-2.8,1.7-5.2,2.3-7.4c0.9-3.2,1.5-5.8,1.7-7.7l0,0l0,0c-0.9,0.7-1.9,1.5-3.1,2
		c-7.8,4.7-21.4,9-32.3,11l21.5-2.3l-21.5,2.3c-0.1,0-0.3,0-0.4,0.1c-1,0.1-2.2,0.3-3.3,0.6c0.1-0.1,0.4-0.1,0.6-0.3l-73.5,8
		C295.3,276.6,295.2,276.9,295,277z"/>
	<path fill="#C92037" d="M377.9,128.5c-6.5,10-13.7,21.5-21.4,34.3c-0.4,0.7-0.9,1.3-1.2,2c-6.7,11.2-13.7,23.4-21.1,36.9
		c-6.4,11.6-13.1,24-20.1,37.5c-6.1,11.6-12.2,24-18.8,37.1l73.5-8c21.4-9.9,31-18.8,40.3-31.7c2.5-3.5,4.9-7.3,7.4-11.2
		c7.6-11.8,15-24.7,21.5-37.6c6.4-12.5,12.1-24.9,16.3-35.9c2.8-7.1,4.9-13.7,6.5-19.5c1.3-5.1,2.3-9.9,3.2-14.5
		C435.7,122.7,400.7,127.3,377.9,128.5z"/>
	<path fill="#555555" d="M330.3,382c-1.5,0.3-2.9,0.4-4.5,0.7l0,0C327.3,382.4,328.7,382.1,330.3,382z"/>
	<path opacity="0.35" fill="#555555" enable-background="new    " d="M330.3,382c-1.5,0.3-2.9,0.4-4.5,0.7l0,0
		C327.3,382.4,328.7,382.1,330.3,382z"/>
	<path fill="#555555" d="M330.3,382c-1.5,0.3-2.9,0.4-4.5,0.7l0,0C327.3,382.4,328.7,382.1,330.3,382z"/>
	<path fill="#555555" d="M342,344.3c0.4,0,0.9-0.1,1.5-0.1C343,344.2,342.6,344.3,342,344.3L342,344.3z"/>
	<path opacity="0.35" fill="#555555" enable-background="new    " d="M342,344.3c0.4,0,0.9-0.1,1.5-0.1
		C343,344.2,342.6,344.3,342,344.3L342,344.3z"/>
	<path fill="#555555" d="M342,344.3c0.4,0,0.9-0.1,1.5-0.1C343,344.2,342.6,344.3,342,344.3L342,344.3z"/>
	<path fill="#555555" d="M342.1,344.3L342.1,344.3L342.1,344.3L342.1,344.3L342.1,344.3L342.1,344.3z"/>
	<path opacity="0.35" fill="#555555" enable-background="new    " d="M342.1,344.3L342.1,344.3L342.1,344.3L342.1,344.3L342.1,344.3
		L342.1,344.3z"/>
	<path fill="#555555" d="M342.1,344.3L342.1,344.3L342.1,344.3L342.1,344.3L342.1,344.3L342.1,344.3z"/>
</g>
</svg>
