<svg version="1.1" id="Calque_1" xmlns="http://www.w3.org/2000/svg" xmlns:xlink="http://www.w3.org/1999/xlink" x="0px" y="0px"
	 viewBox="-0.1 0.2 512 383.7" enable-background="new -0.1 0.2 512 383.7" xml:space="preserve">
<path fill="#CF649A" d="M440.6,220.6c-17.9,0.1-33.4,4.4-46.4,10.8c-4.8-9.5-9.6-17.8-10.4-24c-0.9-7.2-2-11.6-0.9-20.2
	s6.1-20.8,6.1-21.8c-0.1-0.9-1.1-5.3-11.4-5.4c-10.3-0.1-19.2,2-20.2,4.7s-3,8.9-4.3,15.3c-1.8,9.4-20.6,42.7-31.3,60.2
	c-3.5-6.8-6.5-12.8-7.1-17.6c-0.9-7.2-2-11.6-0.9-20.2s6.1-20.8,6.1-21.8c-0.1-0.9-1.1-5.3-11.4-5.4c-10.3-0.1-19.2,2-20.2,4.7
	s-2.1,9.1-4.3,15.3c-2.1,6.2-27.1,61.8-33.6,76.3c-3.3,7.4-6.2,13.3-8.3,17.3s-0.1,0.3-0.3,0.7c-1.8,3.4-2.8,5.3-2.8,5.3v0.1
	c-1.4,2.5-2.9,4.9-3.6,4.9c-0.5,0-1.5-6.7,0.2-15.9c3.7-19.3,12.7-49.4,12.6-50.5c0-0.5,1.7-5.8-5.8-8.5c-7.3-2.7-9.9,1.8-10.5,1.8
	s-1.1,1.6-1.1,1.6s8.1-33.9-15.5-33.9c-14.8,0-35.2,16.1-45.3,30.8c-6.4,3.5-20,10.9-34.4,18.8c-5.5,3-11.2,6.2-16.6,9.1l-1.1-1.2
	c-28.6-30.5-81.5-52.1-79.3-93.1c0.8-14.9,6-54.2,101.6-101.8c78.3-39,141-28.3,151.9-4.5c15.5,34-33.5,97.2-114.9,106.3
	c-31,3.5-47.3-8.5-51.4-13c-4.3-4.7-4.9-4.9-6.5-4c-2.6,1.4-1,5.6,0,8.1c2.4,6.3,12.4,17.5,29.4,23.1c14.9,4.9,51.3,7.6,95.3-9.4
	c49.3-19.1,87.8-72.1,76.5-116.4c-11.5-45.1-86.3-59.9-157-34.8C121.4,27.4,75.8,50.8,43,81.5C4,117.9-2.2,149.7,0.4,162.9
	c9.1,47.1,74,77.8,100,100.5c-1.3,0.7-2.5,1.4-3.6,2c-13,6.4-62.5,32.3-74.9,59.7c-14,31,2.2,53.3,13,56.3
	c33.4,9.3,67.6-7.4,86.1-34.9c18.4-27.5,16.2-63.2,7.7-79.5l-0.3-0.6l10.2-6c6.6-3.9,13.1-7.5,18.8-10.6c-3.2,8.7-5.5,19-6.7,34
	c-1.4,17.6,5.8,40.4,15.3,49.4c4.2,3.9,9.2,4,12.3,4c11,0,16-9.1,21.5-20c6.8-13.3,12.8-28.7,12.8-28.7s-7.5,41.7,13,41.7
	c7.5,0,15-9.7,18.4-14.7v0.1c0,0,0.2-0.3,0.6-1c0.8-1.2,1.2-1.9,1.2-1.9v-0.2c3-5.2,9.7-17.1,19.7-36.8
	c12.9-25.4,25.3-57.2,25.3-57.2s1.2,7.8,4.9,20.6c2.2,7.6,7,15.9,10.7,24c-3,4.2-4.8,6.6-4.8,6.6l0.1,0.1c-2.4,3.2-5.1,6.6-7.9,10
	c-10.2,12.2-22.4,26.1-24,30.1c-1.9,4.7-1.5,8.2,2.2,11c2.7,2,7.5,2.4,12.6,2c9.2-0.6,15.6-2.9,18.8-4.3c5-1.8,10.7-4.5,16.2-8.5
	c10-7.4,16.1-17.9,15.5-31.9c-0.3-7.7-2.8-15.3-5.9-22.5c0.9-1.3,1.8-2.6,2.7-4c15.8-23.1,28-48.5,28-48.5s1.2,7.8,4.9,20.6
	c1.9,6.5,5.7,13.6,9.1,20.6c-14.8,12.1-24.1,26.1-27.3,35.3c-5.9,17-1.3,24.7,7.4,26.5c3.9,0.8,9.5-1,13.7-2.8
	c5.2-1.7,11.5-4.6,17.3-8.9c10-7.4,19.6-17.7,19.1-31.6c-0.3-6.4-2-12.7-4.3-18.7c12.6-5.2,28.9-8.2,49.6-5.7
	c44.5,5.2,53.3,33,51.6,44.6c-1.7,11.6-11,18-14.1,20c-3.1,1.9-4.1,2.6-3.8,4c0.4,2.1,1.8,2,4.5,1.6c3.7-0.6,23.4-9.5,24.2-30.9
	C513,250.3,486.9,220.3,440.6,220.6L440.6,220.6z M97.4,336.3c-14.7,16.1-35.4,22.2-44.2,17c-9.5-5.5-5.8-29.2,12.3-46.3
	c11-10.4,25.3-20,34.7-25.9c2.1-1.3,5.3-3.2,9.1-5.5c0.6-0.4,1-0.6,1-0.6c0.7-0.4,1.5-0.9,2.3-1.4C119.3,298,112.9,319.4,97.4,336.3
	L97.4,336.3z M204.9,263.2c-5.1,12.5-15.9,44.6-22.4,42.8c-5.6-1.5-9-25.8-1.1-49.8c4-12.1,12.5-26.5,17.5-32.1
	c8.1-9,16.9-12,19.1-8.3C220.6,220.6,208.1,255.4,204.9,263.2z M293.6,305.6c-2.2,1.1-4.2,1.9-5.1,1.3c-0.7-0.4,0.9-1.9,0.9-1.9
	s11.1-11.9,15.5-17.4c2.5-3.2,5.5-6.9,8.7-11.1v1.2C313.6,292.1,299.8,301.7,293.6,305.6z M362,290c-1.6-1.2-1.4-4.9,4-16.5
	c2.1-4.6,6.9-12.3,15.2-19.6c1,3,1.6,5.9,1.5,8.6C382.6,280.5,369.8,287.2,362,290z"/>
</svg>
