<?xml version="1.0" encoding="utf-8"?>
<!-- Generator: Adobe Illustrator 19.2.0, SVG Export Plug-In . SVG Version: 6.00 Build 0)  -->
<svg version="1.1" id="Layer_1" xmlns="http://www.w3.org/2000/svg" xmlns:xlink="http://www.w3.org/1999/xlink" x="0px" y="0px"
	 viewBox="0 0 185.3 296.7" style="enable-background:new 0 0 185.3 296.7;" xml:space="preserve">
<polygon style="fill:#FFFFFF;" points="38,296.7 38,269.7 50.7,269.7 31.3,177.7 11.3,177.7 0,141 185.3,141 174.7,177.7 
	155.9,177.7 137.7,269.7 149.6,269.7 149.6,296.7 "/>
<polygon style="fill:#FFFFFF;" points="47.3,135.7 46.3,129 43.3,135.7 17.3,135.7 39,83 70,71 82.3,117.7 88.7,85.7 84.7,85.7 
	84.7,73.7 100.9,73.7 100.9,85.7 96.8,85.7 103.4,117.7 116.1,71 148.2,83 170.7,135.7 143.7,135.7 140.6,129 139.6,135.7 "/>
<circle style="fill:#FFFFFF;" cx="92" cy="35" r="35"/>
</svg>
