<svg xmlns="http://www.w3.org/2000/svg" viewBox="0 0 90.04 80.57"><defs><style>.cls-1{fill:#fff;}</style></defs><title>Fichier 1</title><g id="Calque_2" data-name="Calque 2"><g id="Calque_1-2" data-name="Calque 1"><path class="cls-1" d="M56.57,53.29a3.06,3.06,0,0,0-3.3-.37A18.48,18.48,0,0,1,36.6,53a3,3,0,0,0-3.22.35C28.16,57.59,24.75,64,24.75,69c0,8.14,9.08,11.59,20.27,11.59S65.29,77.12,65.29,69C65.29,64,61.84,57.51,56.57,53.29Z"/><circle class="cls-1" cx="45.02" cy="36.42" r="12.5"/><circle class="cls-1" cx="45.02" cy="9.21" r="9.21"/><path class="cls-1" d="M83.61,34.59a2.26,2.26,0,0,0-2.43-.27,13.63,13.63,0,0,1-12.29.08,2.22,2.22,0,0,0-2.38.26c-3.85,3.11-6.36,7.83-6.36,11.51,0,6,6.69,8.54,14.94,8.54S90,52.16,90,46.16C90,42.46,87.5,37.7,83.61,34.59Z"/><circle class="cls-1" cx="75.1" cy="22.15" r="9.21"/><path class="cls-1" d="M29.89,46.16c0-3.7-2.54-8.46-6.43-11.57A2.26,2.26,0,0,0,21,34.32a13.63,13.63,0,0,1-12.29.08,2.22,2.22,0,0,0-2.38.26C2.51,37.76,0,42.48,0,46.16c0,6,6.69,8.54,14.94,8.54S29.89,52.16,29.89,46.16Z"/><circle class="cls-1" cx="14.94" cy="22.15" r="9.21"/></g></g></svg>