<?xml version="1.0" encoding="utf-8"?>
<!-- Generator: Adobe Illustrator 21.1.0, SVG Export Plug-In . SVG Version: 6.00 Build 0)  -->
<svg version="1.1" id="Calque_1" xmlns="http://www.w3.org/2000/svg" xmlns:xlink="http://www.w3.org/1999/xlink" x="0px" y="0px"
	 viewBox="0 0 100 120.9" style="enable-background:new 0 0 100 120.9;" xml:space="preserve">
<style type="text/css">
	.st0{fill:#FFFFFF;}
</style>
<g>
	<rect x="56.9" y="10.4" class="st0" width="10.1" height="20.7"/>
	<path class="st0" d="M84.2,0H5.4C2.4,0,0,2.4,0,5.4v85.9c0,3,2.4,5.4,5.4,5.4h89.1c3,0,5.4-2.4,5.4-5.4V15.5L84.2,0z M19.6,10.8
		C19.6,8.1,22,6,25,6H75c3,0,5.4,2.2,5.4,4.8v19.8c0,2.6-2.4,4.8-5.4,4.8H25c-3,0-5.4-2.2-5.4-4.8V10.8L19.6,10.8z M86,86.6H14V44.8
		h72V86.6z"/>
</g>
</svg>
