<?xml version="1.0" encoding="UTF-8"?>
<svg width="51px" height="62px" viewBox="0 0 51 62" version="1.1" xmlns="http://www.w3.org/2000/svg" xmlns:xlink="http://www.w3.org/1999/xlink">
    <!-- Generator: Sketch 46.2 (44496) - http://www.bohemiancoding.com/sketch -->
    <title>avatar</title>
    <desc>Created with Sketch.</desc>
    <defs>
        <path d="M0.243716326,0 C0.0413521162,2.31912191 -0.0643597853,4.23195538 0.0421119709,5.02130087 C0.38427304,7.56036236 3.75418801,11.5725893 11.6306777,9.35543081 C12.6422983,9.03382426 13.2290448,8.07256155 12.9153164,7.1335297 L10.529404,1.68490469e-14 L0.243716326,8.42452344e-15 L0.243716326,0 Z" id="path-1"></path>
        <path d="M1.14108952,0 C0.722316297,3.7208581 0.179078421,8.79003301 0,12 L11,12 L7.20443621,1.30338277e-13 L1.14108952,1.04270621e-13 L1.14108952,0 Z" id="path-3"></path>
        <path d="M15.6294572,0.660757172 L0.426752448,18.5401049 C-0.235660485,19.3194124 -0.104801919,20.4513075 0.665983144,21.1286066 C6.78166916,26.1316136 11.4213705,23.5449499 12.7618119,21.2511392 C14.1022534,18.9570222 18.2269529,4.77999764 18.8272158,2.87798499 C19.4281033,0.975972346 18.2688026,0.42641353 18.2688026,0.42641353 C17.9180767,0.139687191 17.4927083,0 17.0692137,0 C16.5326624,0 15.9998588,0.224847364 15.6294572,0.660757172 Z" id="path-5"></path>
        <path d="M0,12.9999955 L10.6551477,0.646429323 C11.022726,0.219971777 11.5514686,0 12.0839303,0 C12.5041969,0 12.9263232,0.136658216 13.2743759,0.417167185 C13.2743759,0.417167185 14.4248403,0.954809376 13.8285328,2.81557881 C13.4971853,3.8506199 12.0836644,8.60127969 10.6654563,13 L1.76175465e-14,12.9999955 L0,12.9999955 Z" id="path-7"></path>
        <path d="M35,3.80049208 C30.4681352,1.44568613 24.3330089,0 17.5785154,0 L17.4213255,0 C10.6670329,-9.10257332e-15 4.53191057,1.44567442 1.78347466e-14,3.80046346 L0,11 L35,11 L35,3.80049208 L35,3.80049208 Z" id="path-9"></path>
        <path d="M47,1.36766447 C46.9665543,1.38238807 33.4178997,7.35059476 25.1726179,17.0835177 C25.1726179,17.0835177 24.5135149,18 23.5780441,18 C22.6422614,18 21.8271946,17.0835177 21.8271946,17.0835177 C13.5924793,7.36270049 0.0669549481,1.3972403 0,1.36774704 L9.58622814e-09,0 L46.9999997,0 L46.9999997,1.36766463 L47,1.36766447 Z" id="path-11"></path>
        <path d="M24,10.6695277 C21.8015671,14.5834371 14.3176832,14.9992473 12.3054815,15 C9.8899359,14.9990965 -0.410730322,14.4000626 0.0126851652,7.86941926 C0.339029277,2.84114458 4.34670949,0.713926093 8.5600096,0 L16.0509535,5.13591723e-14 C19.4313504,0.572794127 22.6793876,2.05533942 24,5.21600499 L24,10.6695277 L24,10.6695277 Z M12,15 L12.0103868,15 L12.002444,15 L12.0131363,15 C12.0106923,15 12.0088593,15 12.0064154,15 C12.0042769,15 12.0021385,15 12,15 Z" id="path-13"></path>
        <path d="M4.47043329,5 C5.06584322,4.86915733 5.60090499,4.71316968 5.9811211,4.57201945 C7.46135104,4.02279868 8.41733288,3.02174717 7.81920177,1.66182814 C7.36466068,0.627723043 6.28147158,0 5.13756993,0 C4.77682812,0 4.4106254,0.062270598 4.05566575,0.193894706 C2.57543581,0.743410599 -0.522189474,3.17609562 0.0756204042,4.53601465 C0.162311672,4.7331171 0.316833768,4.88538457 0.522209991,5 L4.47043415,5 L4.47043329,5 Z" id="path-15"></path>
        <path d="M8,4.14569181 C7.97917438,2.75422455 5.29130603,0.694046254 3.94407164,0.193894706 C3.58943924,0.062270598 3.22292152,0 2.86250708,0 C1.71894609,0 0.635454183,0.627723043 0.180599589,1.66182814 C0.0611821194,1.93334194 0.00371345115,2.19055061 0,2.43271429 L3.65190539e-14,2.48286361 C0.0145768033,3.42859241 0.854529747,4.1400548 2.01897024,4.57201945 C2.39909738,4.71316968 2.93410994,4.86915733 3.52949567,5 L7.47777125,5 C7.68315455,4.88538457 7.83768076,4.7331171 7.92437056,4.53601465 C7.9738934,4.42347736 7.99809916,4.30359372 8,4.17803884 L8,4.14569013 L8,4.14569181 Z" id="path-17"></path>
        <path d="M16,30 C10.7326413,29.553831 -1.15818583,27.5729469 0.0913641808,18.7855 C2.27767393,3.4097695 11.1328673,0.534608805 16,0 L16,30 L16,30 Z" id="path-19"></path>
    </defs>
    <g id="Page-1" stroke="none" stroke-width="1" fill="none" fill-rule="evenodd">
        <g id="Desktop-HD" transform="translate(-572.000000, -169.000000)">
            <g id="Home" transform="translate(-69.000000, 0.000000)">
                <g id="logo" transform="translate(642.000000, 170.000000)">
                    <g id="avatar">
                        <g id="Group-79" transform="translate(6.000000, 29.000000)">
                            <path d="M11.630677,26.3217678 C12.6422982,25.9836771 13.2290449,24.9719001 12.9153163,23.9838268 L5.71215989,1.32301501 C5.39778512,0.334941737 4.31378988,-0.220537588 3.29021405,0.0829331492 C3.29021405,0.0829331492 1.9596947,0.150613673 1.75614269,2.16824183 C1.55291378,4.18618188 -0.300378833,19.0896204 0.0421055055,21.7612857 C0.384266745,24.432951 3.75418339,28.6547186 11.630677,26.3217678" id="Fill-76" fill="#FFFFFF"></path>
                            <path d="M11.630677,26.3217678 C12.6422982,25.9836771 13.2290449,24.9719001 12.9153163,23.9838268 L5.71215989,1.32301501 C5.39778512,0.334941737 4.31378988,-0.220537588 3.29021405,0.0829331492 C3.29021405,0.0829331492 1.9596947,0.150613673 1.75614269,2.16824183 C1.55291378,4.18618188 -0.300378833,19.0896204 0.0421055055,21.7612857 C0.384266745,24.432951 3.75418339,28.6547186 11.630677,26.3217678" id="Stroke-78" stroke="#FFFFFF"></path>
                        </g>
                        <g id="Group-86" transform="translate(6.000000, 36.000000)">
                            <g id="Group-82" transform="translate(0.000000, 10.000000)">
                                <mask id="mask-2" fill="white">
                                    <use xlink:href="#path-1"></use>
                                </mask>
                                <g id="Clip-81"></g>
                                <path d="M9.67565669,1.47628571 L11.2431321,6.27485714 C11.4990267,7.058 10.9814581,7.87171429 10.0972247,8.08628571 C8.32490518,8.51628571 5.41534726,8.93914286 3.22723898,7.85714286 C-0.14402103,6.19057143 -0.209840869,1.76142857 -0.209840869,1.76142857 L-1,6.85714286 L5.95635422,14 L15,7.85714286 L11.2007505,0 L9.67565669,1.47628571 Z" id="Fill-80" fill="#E1E4E5" mask="url(#mask-2)"></path>
                            </g>
                            <g id="Group-85">
                                <mask id="mask-4" fill="white">
                                    <use xlink:href="#path-3"></use>
                                </mask>
                                <g id="Clip-84"></g>
                                <path d="M0.662597938,6.34592749 C0.662597938,6.34592749 1.05154639,5.04445747 2.04123711,5.8087692 C3.03092784,6.57308094 10.371134,11.0825202 10.371134,11.0825202 C10.371134,11.0825202 11.2915464,10.7966676 11.6900619,12 L14,8.25456676 L3.11340206,0 L-2,4.50943925 L0.662597938,6.34592749 Z" id="Fill-83" fill="#A9B2B5" mask="url(#mask-4)"></path>
                            </g>
                        </g>
                        <g id="Group-90" transform="translate(25.000000, 36.000000)">
                            <path d="M0.665983144,21.1285413 C-0.104801919,20.4509456 -0.235660485,19.319373 0.426752448,18.5397704 L15.6294572,0.660985346 C16.2921824,-0.118617291 17.4736573,-0.223687509 18.2688026,0.426338737 C18.2688026,0.426338737 19.4281033,0.975889673 18.8272158,2.87818137 C18.2269529,4.78016675 14.1022534,18.956988 12.7618119,21.2507658 C11.4213705,23.54485 6.78198148,26.1317829 0.665983144,21.1285413" id="Fill-87" fill="#FFFFFF"></path>
                            <path d="M0.665983144,21.1285413 C-0.104801919,20.4509456 -0.235660485,19.319373 0.426752448,18.5397704 L15.6294572,0.660985346 C16.2921824,-0.118617291 17.4736573,-0.223687509 18.2688026,0.426338737 C18.2688026,0.426338737 19.4281033,0.975889673 18.8272158,2.87818137 C18.2269529,4.78016675 14.1022534,18.956988 12.7618119,21.2507658 C11.4213705,23.54485 6.78198148,26.1317829 0.665983144,21.1285413" id="Stroke-89" stroke="#FFFFFF"></path>
                        </g>
                        <g id="Group-97" transform="translate(25.000000, 36.000000)">
                            <g id="Group-93">
                                <mask id="mask-6" fill="white">
                                    <use xlink:href="#path-5"></use>
                                </mask>
                                <g id="Clip-92"></g>
                                <path d="M7.10916143,12.4536085 L2.41743659,18.3810926 C1.83828352,19.1126219 1.9756053,20.1775336 2.72225399,20.7366662 C4.07268746,21.7485328 6.26183063,23.0873053 8.2896361,22.9907756 C11.522548,22.8365746 12.7541334,20.7289562 17.6290566,5.36036524 C22.5039798,-10.0082257 20.6566016,12.5563063 20.6566016,12.5563063 L11.6250775,27 L-3,23.8644781 L0.335441348,11.6826038 L7.77637286,11.3226988 L7.10916143,12.4536085 Z" id="Fill-91" fill="#E1E4E5" mask="url(#mask-6)"></path>
                            </g>
                            <g id="Group-96" transform="translate(5.000000, 0.000000)">
                                <mask id="mask-8" fill="white">
                                    <use xlink:href="#path-7"></use>
                                </mask>
                                <g id="Clip-95"></g>
                                <path d="M12.9725539,5.94385381 C12.9725539,5.94385381 12.9698334,5.09539034 11.4080041,5.94385381 C9.84647704,6.79231728 2.03763262,12.0871969 2.03763262,12.0871969 C2.03763262,12.0871969 1.76407823,11.5612155 0.590968171,12.798096 C-0.581839616,14.0352762 -3,9.18246075 -3,9.18246075 L14.4811837,-1 L17,2.89615864 L12.9725539,5.94385381 Z" id="Fill-94" fill="#A9B2B5" mask="url(#mask-8)"></path>
                            </g>
                        </g>
                        <path d="M24.9217476,22 C12.7309181,22 2.56134979,26.5979698 0.218766303,32.7082412 C-0.327105757,34.1314372 0.178052954,35.7434372 1.40571703,36.653809 C1.40571703,36.653809 15.0321619,42.522 23.3207734,52.0989749 C23.3207734,52.0989749 24.1387986,53 25.0783374,53 C26.0178762,53 26.6793116,52.0989749 26.6793116,52.0989749 C34.9679231,42.522 48.594368,36.653809 48.594368,36.653809 C49.8223452,35.7434372 50.3268776,34.1314372 49.7813187,32.7082412 C47.4387352,26.5979698 37.2691669,22 25.0783374,22 L24.9217476,22 Z" id="Fill-98" fill="#FFFFFF"></path>
                        <g id="Group-112" transform="translate(1.000000, 22.000000)">
                            <path d="M22.8709677,28 C22.8709677,28 21,19.2347826 21,10 L23,10.2347826 L22.8709677,28 Z" id="Fill-100" fill="#F9F9F9"></path>
                            <path d="M23.2005972,22.5423377 L23.2005972,28 C23.2005972,28 25.6000853,16.3896104 26,10.1558442 L23,10 L23.2005972,22.5423377 Z" id="Fill-102" fill="#A9B2B5"></path>
                            <path d="M22,8 C22,8 22.5,23 23,23 C23.5,23 24,8 24,8 L22,8 Z" id="Fill-104" fill="#FFFFFF"></path>
                            <g id="Group-108" transform="translate(6.000000, 0.000000)">
                                <mask id="mask-10" fill="white">
                                    <use xlink:href="#path-9"></use>
                                </mask>
                                <g id="Clip-107"></g>
                                <path d="M17.4999832,-22 C14.3624614,-22 2.59675467,-21.6764706 0.0867372355,-2.58823529 C-1.43213707,8.96338235 17.4999832,11 17.4999832,11 C17.4999832,11 36.4324173,8.96338235 34.9132292,-2.58823529 C32.4032118,-21.6764706 20.637505,-22 17.4999832,-22" id="Fill-106" fill="#A9B2B5" mask="url(#mask-10)"></path>
                            </g>
                            <g id="Group-111" transform="translate(0.000000, 13.000000)">
                                <mask id="mask-12" fill="white">
                                    <use xlink:href="#path-11"></use>
                                </mask>
                                <g id="Clip-110"></g>
                                <path d="M0,1.17042882 C0,0.370344711 0.827855797,-0.154966219 1.54123417,0.194401745 C5.32865884,2.05077314 15.2601211,7.376274 21.8274443,15.0727558 C21.8274443,15.0727558 22.6421992,15.983001 23.5779819,15.983001 C24.5137646,15.983001 25.1725557,15.0727558 25.1725557,15.0727558 C31.8624665,7.23212038 42.0440946,1.85248322 45.66495,0.0939977984 C46.2841262,-0.206584549 47,0.250426517 47,0.943811765 C47,1.20756884 46.8902015,1.45936557 46.6974302,1.63782651 L35.6152672,11.8953958 L9.4133505,28 L0.0623855159,1.5342751 C0.0212110754,1.41750437 0,1.29443871 0,1.17042882" id="Fill-109" fill="#E1E4E5" mask="url(#mask-12)"></path>
                            </g>
                        </g>
                        <g id="Group-121">
                            <path d="M24.4233126,22 C12.4762997,22 2.51012279,26.5979698 0.214390977,32.7082412 C-0.320563642,34.1314372 0.174491895,35.7434372 1.37760269,36.653809 C1.37760269,36.653809 14.7315186,42.522 22.854358,52.0989749 C22.854358,52.0989749 23.6560226,53 24.5767706,53 C25.4975187,53 26.1457253,52.0989749 26.1457253,52.0989749 C34.2685647,42.522 47.6224806,36.653809 47.6224806,36.653809 C48.8258983,35.7434372 49.32034,34.1314372 48.7856923,32.7082412 C46.4899605,26.5979698 36.5237836,22 24.5767706,22 L24.4233126,22 Z" id="Stroke-113" stroke="#FFFFFF"></path>
                            <g id="Group-118" transform="translate(7.000000, 0.000000)">
                                <path d="M17.4999832,0 C14.3624614,0 2.59675467,0.3125 0.0867372355,18.75 C-1.43213707,29.9078125 17.4999832,30 17.4999832,30 C17.4999832,30 36.4324173,29.9078125 34.9132292,18.75 C32.4032118,0.3125 20.637505,0 17.4999832,0" id="Fill-115" fill="#FFFFFF"></path>
                                <path d="M17.4999832,0 C14.3624614,0 2.59675467,0.3125 0.0867372355,18.75 C-1.43213707,29.9078125 17.4999832,30 17.4999832,30 C17.4999832,30 36.4324173,29.9078125 34.9132292,18.75 C32.4032118,0.3125 20.637505,0 17.4999832,0" id="Stroke-117" stroke="#FFFFFF"></path>
                            </g>
                            <path d="M24.493483,10 C29.806847,10 36.5560791,11.7087746 36.9871189,18.5435578 C37.4175379,25.3786561 26.9348003,26 24.493483,26 L24.504034,26 L24.4959656,26 L24.5065166,26 C22.0655097,26 11.5824617,25.3786561 12.0128808,18.5435578 C12.4439205,11.7087746 19.1931527,10 24.5065166,10 L24.493483,10 Z" id="Fill-119" fill="#22292D"></path>
                        </g>
                        <g id="Group-124" transform="translate(12.000000, 11.000000)">
                            <mask id="mask-14" fill="white">
                                <use xlink:href="#path-13"></use>
                            </mask>
                            <g id="Clip-123"></g>
                            <path d="M12.493483,0 C17.806847,0 24.5560791,1.60197614 24.9871189,8.00958548 C25.4175379,14.4174901 14.9348003,15 12.493483,15 L12.504034,15 L12.4959656,15 L12.5065166,15 C10.0655097,15 -0.417538317,14.4174901 0.0128807818,8.00958548 C0.443920528,1.60197614 7.19315266,0 12.5065166,0 L12.493483,0 Z" id="Fill-122" fill="#323B42" mask="url(#mask-14)"></path>
                        </g>
                        <path d="M34.8192033,17.8829103 C34.2213986,16.3419843 32.5362383,15.5972703 31.0557,16.2199275 C29.5754829,16.8425846 26.4775632,19.5990631 27.0756891,21.139989 C27.6738151,22.680915 31.5009215,21.8034433 32.9811386,21.1807861 C34.4613557,20.558129 35.4173293,19.4238363 34.8192033,17.8829103" id="Fill-125" fill="#E1E4E5"></path>
                        <g id="Group-129" transform="translate(27.000000, 16.000000)">
                            <mask id="mask-16" fill="white">
                                <use xlink:href="#path-15"></use>
                            </mask>
                            <g id="Clip-128"></g>
                            <path d="M7.81920334,1.8829103 C7.22139865,0.341984342 5.53623829,-0.402729658 4.05569997,0.21992749 C2.57548287,0.842584638 -0.522436776,3.59906309 0.0756891443,5.13998905 C0.673815064,6.68091501 4.50092152,5.80344328 5.98113862,5.18078613 C7.46135572,4.55812898 8.41732926,3.42383626 7.81920334,1.8829103" id="Fill-127" fill="#FFFFFF" mask="url(#mask-16)"></path>
                        </g>
                        <path d="M15.1807923,17.8829103 C15.778592,16.3419843 17.4637384,15.5972703 18.9442644,16.2199275 C20.4244692,16.8425846 23.5226842,19.5990631 22.9242421,21.139989 C22.3264424,22.680915 18.4990465,21.8034433 17.019163,21.1807861 C15.538637,20.558129 14.5826714,19.4238363 15.1807923,17.8829103" id="Fill-130" fill="#E1E4E5"></path>
                        <g id="Group-134" transform="translate(15.000000, 16.000000)">
                            <mask id="mask-18" fill="white">
                                <use xlink:href="#path-17"></use>
                            </mask>
                            <g id="Clip-133"></g>
                            <path d="M0.180792324,1.8829103 C0.778592041,0.341984342 2.46373837,-0.402729658 3.94426437,0.21992749 C5.42446915,0.842584638 8.52268424,3.59906309 7.92424207,5.13998905 C7.32644235,6.68091501 3.49904653,5.80344328 2.01916297,5.18078613 C0.538636969,4.55812898 -0.417328618,3.42383626 0.180792324,1.8829103" id="Fill-132" fill="#FFFFFF" mask="url(#mask-18)"></path>
                        </g>
                        <g id="Group-137" transform="translate(7.000000, 0.000000)">
                            <mask id="mask-20" fill="white">
                                <use xlink:href="#path-19"></use>
                            </mask>
                            <g id="Clip-136"></g>
                            <path d="M16,0 C16,0 5.90573207,3.8744186 3.56116097,14.7069767 C1.21658986,25.5395349 5.1114884,26.9868279 10.2785997,29.3073674 C15.4457111,31.627907 1.29743714,34 1.29743714,34 L-8,19.2930233 L3.72285553,3.00465116 L16,0 Z" id="Fill-135" fill="#E1E4E5" mask="url(#mask-20)"></path>
                        </g>
                    </g>
                </g>
            </g>
        </g>
    </g>
</svg>