<?xml version="1.0" encoding="UTF-8"?>
<svg width="12px" height="20px" viewBox="0 0 12 20" version="1.1" xmlns="http://www.w3.org/2000/svg" xmlns:xlink="http://www.w3.org/1999/xlink">
    <!-- Generator: Sketch 46.2 (44496) - http://www.bohemiancoding.com/sketch -->
    <title>dl</title>
    <desc>Created with Sketch.</desc>
    <defs>
        <polygon id="path-1" points="11.9546475 0 11.9546475 20 0.0452428125 20 0.0452428125 2.22044692e-15 11.9546475 2.22044692e-15"></polygon>
    </defs>
    <g id="Page-1" stroke="none" stroke-width="1" fill="none" fill-rule="evenodd" opacity="0.599999964">
        <g id="01.1---Hover-styles.cc-+-Rencent-changes-+-btn-dl-project-+-btn-Mark-all-+-btn-liste" transform="translate(-256.000000, -90.000000)">
            <g id="logo/nom-du-projet" transform="translate(-25.000000, -18.000000)">
                <g id="Btn-dl" transform="translate(259.000000, 98.000000)">
                    <g id="Hover">
                        <g id="dl" transform="translate(22.000000, 10.000000)">
                            <g>
                                <mask id="mask-2" fill="white">
                                    <use xlink:href="#path-1"></use>
                                </mask>
                                <g id="Clip-2"></g>
                                <path d="M1.14756,17.668 L10.8523162,17.668 C11.3197537,17.668 11.6960662,18.0599922 11.6960662,18.5469062 C11.6960662,19.0338203 11.3197537,19.4258125 10.8523162,19.4258125 L1.14756,19.4258125 C0.6801225,19.4258125 0.30381,19.0338203 0.30381,18.5469062 C0.30381,18.0599922 0.6801225,17.668 1.14756,17.668 M5.99991,0.574210938 C6.46729125,0.574210938 6.84366,0.966203125 6.84366,1.45311719 L6.84366,11.7284102 L10.5135225,7.90563672 C10.8440475,7.56133984 11.3762287,7.56133984 11.7067537,7.90563672 C12.0372787,8.24993359 12.0372787,8.80428906 11.7067537,9.14858594 L6.599985,14.4681367 C6.477585,14.5955781 6.32756625,14.6755 6.17040375,14.7085469 C6.11527875,14.7201484 6.05936625,14.7263008 6.0033975,14.7263008 C6.0027225,14.7263008 6.00199125,14.7262422 6.00131625,14.7261836 C6.00081,14.7261836 6.00036,14.7263008 5.99991,14.7263008 C5.99366625,14.7263008 5.98770375,14.7254805 5.9815725,14.7253633 C5.959185,14.7249531 5.9367975,14.72425 5.9145225,14.7219648 C5.9106975,14.7215547 5.906985,14.7206758 5.90321625,14.720207 C5.8789725,14.7174531 5.854785,14.7137617 5.8308225,14.7087812 C5.82761625,14.7080781 5.8245225,14.707082 5.8213725,14.7063789 C5.79690375,14.7009883 5.7725475,14.6946602 5.74852875,14.6869258 L5.74841625,14.6869258 C5.72220375,14.6784883 5.69632875,14.6687031 5.6708475,14.6575117 C5.57257875,14.6145625 5.48016,14.55175 5.3999475,14.4681367 L0.29317875,9.14858594 C-0.0374025,8.80428906 -0.0374025,8.24993359 0.29317875,7.90563672 C0.62370375,7.56133984 1.15594125,7.56133984 1.48646625,7.90563672 L5.15616,11.7281758 L5.15616,1.45311719 C5.15616,0.966203125 5.5324725,0.574210938 5.99991,0.574210938" id="Fill-1" fill="#F6F6F6" mask="url(#mask-2)"></path>
                            </g>
                        </g>
                    </g>
                </g>
            </g>
        </g>
    </g>
</svg>