<svg version="1.1" id="Calque_1" xmlns:sketch="http://www.bohemiancoding.com/sketch/ns"
	 xmlns="http://www.w3.org/2000/svg" xmlns:xlink="http://www.w3.org/1999/xlink" x="0px" y="0px" viewBox="131 284 324.9 276.5"
	 enable-background="new 131 284 324.9 276.5" xml:space="preserve">
<title>eye-fill 12 copy 10</title>
<desc>Created with Sketch.</desc>
<g sketch:type="MSPage">
	<g sketch:type="MSShapeGroup">
		<path fill="#CCCCCC" d="M217.5,314c0.1,0,0.2,0.1,0.3,0.1l32.9,35.2c7.8,9.9,19.6,15.6,32.3,15.6h142.8v165.5H161V314H217.5
			 M218.8,284h-75.9c-6.6,0-11.9,5.3-11.9,11.9v252.8c0,6.6,5.3,11.9,11.9,11.9h301c6.6,0,11.9-5.3,11.9-11.9V346.9
			c0-6.5-5.3-11.9-11.9-11.9H283c-3.7,0-7.2-1.9-9.3-4.9l-34.9-37.4C234.4,288,225.4,284,218.8,284L218.8,284z"/>
	</g>
</g>
</svg>
