<?xml version="1.0" encoding="utf-8"?>
<!-- Generator: Adobe Illustrator 23.0.2, SVG Export Plug-In . SVG Version: 6.00 Build 0)  -->
<svg version="1.1" id="Calque_1" xmlns:v="http://vecta.io"
	 xmlns="http://www.w3.org/2000/svg" xmlns:xlink="http://www.w3.org/1999/xlink" x="0px" y="0px" viewBox="0 0 300.8 112"
	 style="enable-background:new 0 0 300.8 112;" xml:space="preserve">
<style type="text/css">
	.st0{fill-rule:evenodd;clip-rule:evenodd;fill:#00ACD7;}
</style>
<symbol  id="SDuYckrs_ITOw6lwCee3Fj.sym" viewBox="-128 -47.8 256 95.6">
	<g id="juhn0hond1z_1_" transform="translate(0 0)">
		<g>
			<g id="juhn0hobd1v_1_" transform="translate(-1.4210854715202004e-14 2.1316282072803006e-14)">
				<path class="st0" d="M-108.7-18.9c-0.5,0-0.6-0.2-0.4-0.6l2.6-3.4c0.2-0.4,0.9-0.6,1.4-0.6h44.5c0.5,0,0.6,0.4,0.4,0.7l-2.1,3.2
					c-0.2,0.4-0.9,0.7-1.2,0.7L-108.7-18.9L-108.7-18.9z M-127.5-7.4c-0.5,0-0.6-0.2-0.4-0.6l2.6-3.4c0.2-0.4,0.9-0.6,1.4-0.6h56.8
					c0.5,0,0.7,0.4,0.6,0.7l-1,3c-0.1,0.5-0.6,0.7-1.1,0.7L-127.5-7.4z M-97.3,4.1c-0.5,0-0.6-0.4-0.4-0.7l1.7-3.1
					c0.2-0.4,0.7-0.7,1.2-0.7h24.9c0.5,0,0.7,0.4,0.7,0.9l-0.2,3c0,0.5-0.5,0.9-0.9,0.9L-97.3,4.1L-97.3,4.1z M32-21.1l-20.9,5.5
					c-1.9,0.5-2,0.6-3.6-1.2c-1.9-2.1-3.2-3.5-5.9-4.7c-7.9-3.9-15.5-2.7-22.6,1.9c-8.5,5.5-12.8,13.6-12.7,23.7
					c0.1,10,7,18.2,16.8,19.6c8.5,1.1,15.6-1.9,21.2-8.2c1.1-1.4,2.1-2.9,3.4-4.6h-24.1c-2.6,0-3.2-1.6-2.4-3.7
					c1.6-3.9,4.6-10.3,6.4-13.6c0.4-0.7,1.2-2,3.1-2h45.4c-0.2,3.4-0.2,6.7-0.7,10.1c-1.4,9-4.7,17.2-10.2,24.4
					c-9,11.8-20.7,19.2-35.5,21.2c-12.2,1.6-23.6-0.7-33.5-8.2c-9.2-7-14.5-16.2-15.8-27.7c-1.6-13.6,2.4-25.8,10.6-36.5
					c8.8-11.6,20.6-18.9,34.9-21.6c11.7-2.1,22.9-0.7,33,6.1c6.6,4.4,11.3,10.3,14.5,17.6C34-22.1,33.5-21.5,32-21.1L32-21.1z"/>
			</g>
			<g id="juhn0hohd1w_1_" transform="translate(156.79490458969477 1.1510887786565789)">
				<path class="st0" d="M-83.5,46.7c-11.3-0.2-21.7-3.5-30.4-11c-7.4-6.4-12-14.5-13.5-24.1c-2.2-14.1,1.6-26.6,10.1-37.6
					c9.1-12,20.1-18.2,34.9-20.8c12.7-2.2,24.7-1,35.5,6.4c9.8,6.7,16,15.8,17.6,27.8c2.1,16.8-2.7,30.5-14.3,42.3
					c-8.2,8.3-18.3,13.6-29.9,16C-76.9,46.2-80.3,46.3-83.5,46.7L-83.5,46.7z M-53.8-3.7C-54-5.3-54-6.6-54.2-7.8
					c-2.2-12.3-13.6-19.3-25.4-16.6c-11.6,2.6-19.1,10-21.8,21.7C-103.7,7-99,16.9-90,20.9c6.9,3,13.7,2.6,20.3-0.7
					C-59.8,15-54.5,7-53.8-3.7L-53.8-3.7z"/>
			</g>
		</g>
	</g>
</symbol>
<g>
	<title>golang-official</title>
	
		<use xlink:href="#SDuYckrs_ITOw6lwCee3Fj.sym"  width="256" height="95.6" x="-128" y="-47.8" transform="matrix(1.1719 0 0 1.1719 150.5814 56.1392)" style="overflow:visible;"/>
</g>
</svg>
