<svg version="1.1" id="Calque_1" xmlns="http://www.w3.org/2000/svg" xmlns:xlink="http://www.w3.org/1999/xlink" x="0px" y="0px"
	 viewBox="14.8 130.7 565.1 579.6" enable-background="new 14.8 130.7 565.1 579.6" xml:space="preserve">
<path fill="#C1272D" d="M441,449.4c2.5,2.5,3,6.8-0.3,9.1c-7.7,5.2-17.3,4.3-26.2,3.3c-15.2-1.6-33.2-2.2-41.1-16.8l-0.6-0.4
	c-10-5.4,6.8-9.2,11.5-9.8c10.7-1.3,21.9,1.3,32.3,3.7C425.8,440.6,434.1,442.8,441,449.4L441,449.4z M579.1,675.1
	c-7,5.1-3.9,13.4-9.1,19.5c-4.9,5.7-16.8,5.5-23.5,5.7c-26.9,0.3-53.6-1.9-80.5,0.3c-6.7,0.6-12.8,1.5-19.3,3.1
	c-1.9,0.4-5.1,1.6-7.1,0.6c-5.5-2.8-10.4-11.9-17.4-8.9c-6,2.4-10.3,11.2-17.6,5.8c-12.9-9.5-24-0.9-37.5,1.8
	c-14,2.8-27.5-5.1-41.5-1c-10.4,3-20.2,6.3-31,2.7c-10.9-3.6-13.7-12.1-4.3-19.8c14.7-12.1,32.7-13.8,51.2-12.5
	c27.7,2.2,55.1,0.3,82.7-1c0.7,0,1.3,0.4,1.5,1c11.8,4.8,19.6-4.9,26.2-12.9c0.9-1,2.5-0.6,3.1,0.4c9.8,14.7,22-1.9,34.4-0.7
	c3.3,0.3,6.5,1.2,8.3,4.3c0.9,1.3,1,3.3,1.2,4.8c0.6,7.4,10.1,6,9.8-1.8c0-1.2,1.3-2.4,2.5-1.9c9.7,3.9,22.6,9.2,31-1.2
	c6.8-8.6,7.9-21.3,8.3-32c1.5-28.6-0.6-57.9-2.5-86.3c-1.8-27.7-4.8-56-1.5-83.6c3.3-27.4,3.3-54.3,2.5-82
	c-0.3-14.4-0.7-28.9-0.1-43.3c0.6-13.2,3-27.4,1.3-40.6c-1.3-11.9-8.3-22-10-33.8c-1.5-10.7,0-21.7,2.5-32.1
	c1.5-6.5,4.6-14.1,4.5-21c-0.1-5.8-0.6-11.6-0.4-17.4c0.1-2.8-0.4-7.3,1.6-9.7c3.4-4,5.1-9.8-2.7-10.7c-18.6-2.1-37.8-14-55.7-2.7
	c0.1,3.9,0.6,8.5-0.4,12.4c0.7,1.2,1.6,2.4,2.7,3.4c4.5,1.9,9.1,2.7,13.8,2.7c5.7,0.1,12.1-1.5,17.6-0.9c4.9,0.6,8.8,4.8,7.1,10.1
	c-1,3.9-4.6,7.3-6.7,10.7c-3.6,6-3.1,14.4-3.1,21.1c-0.3,17.1,0,34.4,0.6,51.5c0.4,14.3,1.9,28.6,3,42.9c0.3,0.3,1.2,0.7,1.2,1.2
	c0.6,15.9,6,31.8,6.3,47.9c0.1,0.3-4.2,19.8-4.2,19.8c-0.1,20.8-1.9,59.4-1.9,59.4c-0.3,35.6-6.4,70.5-0.1,106
	c2.5,14.3-2.8,27.8-3.4,42c-0.7,15.5,1.5,31.1-0.7,46.6c0.4,0.9,0.1,2.1-1.2,2.2c-32.4,6.1-65.3,7.3-98.2,5.4
	c-8.2-0.4-18.2-1.2-25.9,1.9c-3.3,1.3-7.4,3.6-11.2,3c-4.8-0.7-7-4.3-11.6-5.2c-5.5-1-11.2-2.2-16.7-3c-14.6-1.9-28.6-2.8-42.4,3.1
	c-7.6,3.3-15.5,2.1-23.1-1.2c-8.9-3.7-15.8-8.2-25.6-3.3c-4,1.9-7.6,4-12.1,5.1c-3.7,0.9-7-0.1-10.4-1.3c-7.6-2.8-13.5-3.7-21.6-2.2
	c0.9,1,0.3,3.4-1.3,3.4c-48.1-2.5-96.3,3.3-144.4,3.6c-2.1,0.6-3.9,3.1-5.4,3.1h-1.5c-1,0-1.5-4-1.2-4.8c-6.5-7-4.9-30.4-4.6-37.4
	c2.1-44.8-3.7-89.4-5.1-134.1c-0.6-22.3-0.6-44.5,3-66.7c4.2-24.9,4.2-48.7,3.6-73.8c-1-49.3,3.7-98.5,2.2-147.8
	c0-0.9,0.9-1.2,1.5-0.9c0.1-0.1,0.3-0.3,0.6-0.3c13.2-1.2,27.7-4.9,40.8-1.2c0.3,0.1,0.4,0.3,0.6,0.4l2.1,0.3h14.7
	c0.6,0,1,0.3,1.2,0.6c25.9,0.3,51.9-2.1,77.8-3.3c9.1-0.4,18.5,0,27.2-2.8c4.6-1.5,9.8-3.7,14.9-3.4c11.8,0.7,24.1,4.6,35.6,7
	c8.2,1.8,13.8-12.4,21.1-7.7c11.2,7,24,4.5,36.6,4.8c6.7,0.1,13.2-1.2,19.9-1.2c3.6,0,6.7,0.9,10.1,1.8c3.4-0.6,6.4-0.1,10,1
	c20.1,0.4,40.2-2.2,60.4-1.9c12.2,0.1,25.3,1,36.9-3.4c3-1.2,4.8-2.8,5.7-4.9l-1.3-3c-0.9-1.8-1.8-3.6-3.1-5.1
	c-12.8-4.3-28-3-41.4-3.6c-18.8-0.7-36.9,1.6-55.5,3.1c-17.3,1.5-35.1,2.4-52.5,1.2c-10.1-0.7-29.5-5.4-38.1,1.6
	c-0.9,0.6-1.6,0.6-2.5,0c-16.7-13.7-38.4,6.7-57.4,1c-11.3-3.4-22.2-5.5-34.1-4.3c-11.8,1.2-22.8,2.8-34.7,2.7
	c-25.6-0.1-51.3,1.5-76.9,0.6c-5.5-0.1-11-0.3-16.5-0.9c-4.5-0.6-10.6-2.7-15-1c-7,2.7-8.5,5.1-7.9,7c1.9,1.3-4.8,10.4-4.9,14.9
	c-0.1,4-0.4,7.9-0.4,11.8c-0.3,17.4-1.5,33.5-5.4,50.4c-2.1,9.1-6.4,21.7-3.1,30.8c2.1,5.8,6.5,9.8,9.1,15.3
	c4.5,9.5,4.8,21.4,4.3,31.7c-1.5,33.8-1.5,67.7-2.7,101.5c-1.2,33.9-3.3,67.9-2.1,101.8c1,31.4,6.1,63.5,1.9,94.8
	c-1.3,10.4-13.7,28.9-1.8,36c6.7,4,15,5.1,22.6,5.5c19.2,1,38.5-0.9,57.6-3c7-0.7,14.1-2.2,21.1-2.4c5.5-0.1,10.4,0.4,15.6,2.4
	c4.5,1.6,11.3,4.8,16.8,4.8c0.3,0.3,8.5-0.3,9.1-2.7c7.1-3,13.2-5.5,22.5-3.6c8.6,1.8,16.8,2.8,25.7,1c4.8-0.9,11.9-1.3,16.7-0.1
	c0.4,0.1,1.6,1.5,2.1,1.3c1.9-0.7-1.2,2.4-3,3.1c-10.7,4.3-7.3,18-8.6,27.1c-0.1,0.7-1,1.2-1.8,1.2c-4.3,0-10.1,0-12.4-4.5
	c-4.9-9.4-17-15.5-17,3.6c0,1-0.9,1.6-1.6,1.6c-0.9,0-1.6-0.6-1.6-1.6s-12.5-7.7-14-8.6c-6.1-3.4-13.4-7.3-20.5-4.9
	c-4.5,1.5-8.3,4-12.4,6c-7.6,9.4-15.5,19.3-26.9,13.2c-2.2-1.2-11.8-9.4-13.4-7.4c-2.7,3-5.5,5.5-9.2,7c-10.1,4-21,3.3-31.7,3.3
	c-0.7,0-1.5-0.6-1.6-1.3c-0.6-4.3-3-12.8-8.8-7.6l-3.9,3.6c-1.8,1.5-3.6,3.4-5.8,4.3c-7.1,2.8-28.7-0.9-31.7-6
	c-2.1-3.7-3.1-7.6-3.9-11.8c-1.8-10.4-0.6-21.7-1-32.4c-0.9-26.8-2.8-53-5.2-79.6c-1.2-13.7-2.2-27.5-1.2-41.2
	c0.6-8.8,0.9-21,5.2-28.9c3.7-6.7,1-11.5-3.7-16.5c-1.2-1.3-1.6-4-1.8-5.7c-0.7-10,0.9-20.2,1.5-30.2c0.4-7.3,1.5-14.6,1.8-22
	c0.1-5.7-1.2-11-1.6-16.5c-0.1-2.7-0.4-5.8,1.2-8.2c3.4-4.8,2.7-7.3,0.9-12.6c-3.7-10.6,0-23.1,0.7-33.8c0.7-12.8,1.3-25.6,0-38.4
	c-1.5-14.1-4.2-28-3.3-42.3c0.7-12.8,1.8-24.7,2.4-37.7c1-23.1,1.2-46.7,0.6-69.8c0,1.3,0,5.5-0.1,5.5c0,0-2.1-29.6,10.6-36.8
	c19-9.4,42.1-7.4,62.7-8.5c26.9-1.2,53.6,1.5,80.5,1.5c15.5,0,31-0.4,46.1-3.7c10.7-2.4,21.3-3.6,32.3-2.8c13.1,0.9,25.9,4.2,39,5.4
	c12.9,1.2,25.7,0.6,38.7-0.4c28.1-1.9,56.4-1.2,84.7,0l43.9,1.9c6.7,0.3,14.7,1.9,21.3,0.1l12.5-4.3c9.2-2.4,15.6-0.1,24.6,1.9
	c11,2.7,22.2,5.1,33.2,7.9c3.7-0.9,7.3-1,10.3,1.8c6.1,5.7,0.1,12.6,4.8,19c5.5,7.7,10.4,12.4,11.5,22.3c1,10.6,1.8,21.6-1.6,31.7
	c-2.2,6.8-5.4,14.3-2.5,21.3c1.8,4.5,4.8,8.9,5.8,13.5c2.2,10.1,2.2,20.4,1.6,30.7c-0.6,11.9-1,23.8-2.5,35.7
	c-0.9,7.4-3.9,14.9-4.2,22.5c-0.1,6.3,1.8,11.3,3,17.3c3.9,19.5-12.9,31.5-16.1,49.4c-1.6,9.5,9.4,5.5,14,11c3,3.6,1.5,9.8,1,14
	c-1,10.4,1.9,20.7,1.5,31c-0.7,12.8-4.5,23.7-1.3,36.6c1.8,7.3,3.1,14.6,1.5,21.9c-1.6,7.1-10.1,25.7,1,29c0.4,0.1,0.7,0.6,0.7,1
	c0,3.3-0.6,5.7-2.1,8.8c-5.1,11.2,2.7,9.1,4.2,16.4c1.3,6.7-2.7,9.2-3.6,15.5c-1.6,10.1,3.6,18.2,3.4,28c-0.1,9.2-5.4,14.4-3.6,22.8
	c0.6,0,1,0.4,1.2,1.2c0.9,4.6,1.3,9.5-0.3,14.1c-2.2,6.5-4.9,8,2.4,12.1C580.4,672.9,580.1,674.4,579.1,675.1L579.1,675.1z
	 M455.4,361.3c-4.6-27.7-7.1-56.4-16.4-83c-3.9-11.2-6-23.2-18.9-25.3c-16.8-2.8-11.2,11.3-9.1,24.7c3.4,21,4.8,42,10.1,62.5
	c3.7,14.1,10.9,31.1-8,19.9c-31.8-18.8-42.7-60.7-55.5-92c-5.8-14-22.3-48.1-33.5-56.4c-5.4-4-32.3-10-37.4-6.5
	c-11.2,7.6,23.1,60.7,27.8,70.2c10.4,21.1,21.6,42.3,35,61.6c9.5,13.7,24.9,26,3.3,34.2c-22.3,8.5-33-3.9-48.4-15.5
	c-12.1-9.2-27.4-10.3-42.6-12.2c-41.4-5.2-81.1-0.3-114.4,27.2c-16.2,13.4-26.2,32-34.7,50.9c-2.2,4.8-16.1,46.6-14.1,46.9
	c-8.3-1.3-3.6-21-14.3-9.5c-9.5,10.3,2.7,39.6,7,49.7c9.7,22.8,19.8,45.1,27.4,68.6c7.7,23.7,9.2,23.1,31.3,25
	c27.7,2.5,54.8-6,82-9.4c0,0-48.4-29.9,47.2,2.8c21.1,7.3,43.8,5.4,65.9,6.3c15.9-3.7,16.2-31,24.6-43.8
	c3.1-4.8,18.3-28.9,23.2-30.8c6.8-2.7,16.7,4.5,23.4,5.5c39.9,6.3,52.1-26.5,45.8-58.5c-5.5-28.1-2.2-58.9,1.8-80.8
	C465.2,386.1,456.7,368.9,455.4,361.3L455.4,361.3z M277.7,701c-4.3-4-10.9-5.1-15-9.2c-2.4-2.4-3-5.2-2.5-7.9l-0.3-0.3
	c-3-5.5,4-10.4,9.1-8.3c2.5,1,6.5,2.8,6.8,6c0.4,3.9-2.4,6.7-3.1,10.3c2.7,1.6,5.7,5.5,7.1,7.7C281,700.7,278.9,702.1,277.7,701
	L277.7,701z"/>
</svg>
