<svg version="1.1" id="Calque_1" xmlns="http://www.w3.org/2000/svg" xmlns:xlink="http://www.w3.org/1999/xlink" x="0px" y="0px"
	 viewBox="0.3 23.2 595 795.6" enable-background="new 0.3 23.2 595 795.6" xml:space="preserve">
<g transform="matrix( 1, 0, 0, 1, 0,0) ">
	<g>
		<g id="a">
			<path fill="#F0DB4F" d="M243.1,110.3V23.2h-57.8c-29.6,0-52.8,12.8-69.5,38.3c-18.1,27.8-27.1,67.4-27.1,118.7v59.4
				c0,46.6-5.1,80.3-15.3,101c-11.5,21-31.4,31.6-59.7,31.6H0.3v97.7h13.4c28.3,0,48.2,10.5,59.7,31.6
				c10.2,18.5,15.3,51.1,15.3,97.7v62.7c0,51.1,9,89.5,27.1,115.3c16.8,27.8,39.9,41.7,69.5,41.7h57.8v-90.9l-48.3-3.4
				c-7.6-2.2-14-6.9-19.3-13.9c-5.2-7-9-17.5-11.4-31.6c-2.6-13.8-3.9-31.1-3.9-52.2v-45.5c0-39.6-5.8-72.1-17.3-97.7
				c-12.8-25.5-29.5-45.3-49.9-59.4v-10.5c20.5-11.5,37.1-30,49.9-55.6c11.5-28.1,17.3-60.8,17.3-98.1v-48.8
				c0-20.8,1.3-38.2,3.9-52.2c2.4-11.5,6.2-22,11.4-31.6c5.2-4.5,11.6-9.1,19.3-13.9L243.1,110.3 M595.3,372.1h-15.3
				c-27.2,0-46.6-10.5-58.1-31.6c-11.5-20.8-17.3-54.4-17.3-101v-59.4c0-51.4-8.3-90.9-24.8-118.7c-16.8-25.5-39.9-38.3-69.5-38.3
				h-59.7v87.1l50.3,3.4c6.3,4.8,12.1,9.4,17.3,13.9c5,9.5,8.8,20.1,11.4,31.6c2.6,14,3.9,31.4,3.9,52.2v48.8
				c0,37.3,6.4,70,19.3,98.1c11.5,25.5,27.6,44.1,48.3,55.6v10.5c-20.7,14-36.8,33.8-48.3,59.4c-12.8,25.5-19.3,58.1-19.3,97.7v45.5
				c0,21-1.3,38.4-3.9,52.2c-2.6,14-6.4,24.6-11.4,31.6c-5.2,7-11,11.6-17.3,13.9l-50.3,3.4v90.9h59.7c29.6,0,52.8-13.9,69.5-41.7
				c16.5-25.8,24.8-64.3,24.8-115.3V599c0-46.6,5.8-79.1,17.3-97.7c11.5-21,30.9-31.6,58.1-31.6h15.3V372.1z"/>
		</g>
	</g>
</g>
</svg>
