<svg version="1.1" id="Calque_1" xmlns:svg="http://www.w3.org/2000/svg"
	 xmlns="http://www.w3.org/2000/svg" xmlns:xlink="http://www.w3.org/1999/xlink" x="0px" y="0px" viewBox="0 0 192 96"
	 enable-background="new 0 0 192 96" xml:space="preserve">
<g transform="translate(-44.63166,-445.54704)">
	<g transform="matrix(2,0,0,2,-140.15749,-493.22304)">
		<path fill="#666797" d="M100,479.5h14.2c4.2,0,7.2,1.2,9.1,3.6c1.9,2.4,2.5,5.6,1.9,9.7c-0.2,1.9-0.8,3.7-1.6,5.5
			c-0.8,1.8-1.9,3.4-3.4,4.9c-1.8,1.8-3.7,3-5.7,3.5c-2,0.5-4.1,0.7-6.3,0.7h-6.4l-2,10.1h-7.4L100,479.5L100,479.5 M106.2,485.5
			l-3.2,15.9c0.2,0,0.4,0.1,0.6,0.1c0.2,0,0.5,0,0.7,0c3.4,0,6.2-0.3,8.5-1c2.3-0.7,3.8-3.3,4.6-7.7c0.6-3.7,0-5.8-1.9-6.4
			c-1.9-0.6-4.2-0.8-7-0.8c-0.4,0-0.8,0.1-1.2,0.1C106.9,485.6,106.5,485.6,106.2,485.5L106.2,485.5"/>
		<path fill="#666797" d="M133.5,469.4h7.3l-2.1,10.1h6.6c3.6,0.1,6.3,0.8,8.1,2.2c1.8,1.4,2.3,4.1,1.6,8.1l-3.6,17.6H144l3.4-16.9
			c0.4-1.8,0.2-3-0.3-3.8c-0.6-0.7-1.8-1.1-3.7-1.1l-5.9-0.1l-4.3,21.8h-7.3L133.5,469.4L133.5,469.4"/>
		<path fill="#666797" d="M162.8,479.5H177c4.2,0,7.2,1.2,9.1,3.6c1.9,2.4,2.5,5.6,1.9,9.7c-0.2,1.9-0.8,3.7-1.6,5.5
			c-0.8,1.8-1.9,3.4-3.4,4.9c-1.8,1.8-3.7,3-5.7,3.5c-2,0.5-4.1,0.7-6.3,0.7h-6.4l-2,10.1h-7.4L162.8,479.5L162.8,479.5 M169,485.5
			l-3.2,15.9c0.2,0,0.4,0.1,0.6,0.1c0.2,0,0.5,0,0.7,0c3.4,0,6.2-0.3,8.5-1c2.3-0.7,3.8-3.3,4.6-7.7c0.6-3.7,0-5.8-1.9-6.4
			c-1.9-0.6-4.2-0.8-7-0.8c-0.4,0-0.8,0.1-1.2,0.1C169.7,485.6,169.3,485.6,169,485.5L169,485.5"/>
	</g>
</g>
</svg>
