<svg version="1.1" id="Calque_1" xmlns="http://www.w3.org/2000/svg" xmlns:xlink="http://www.w3.org/1999/xlink" x="0px" y="0px"
	 viewBox="0 0 422.1 199.7" enable-background="new 0 0 422.1 199.7" xml:space="preserve">
<path fill="#20426E" d="M0,109.2c0-6.3,0-12.2,0-17.5c4.4-2.1,8.9-3.3,12.2-6c5.4-4.4,6.2-11.1,6.2-17.8c0.1-11.5-0.1-23,0.3-34.5
	C19.5,12.7,29.3,2.6,50.1,0.8c3.6-0.3,7.3-0.7,10.9-0.8C71.2,0,81.3,0,92.3,0c0,2.1,0,4,0,5.9c0,40.1,0,80.3,0,120.4
	c0,10.2,3.2,14,13.1,16.4c0.8,0.2,1.6,0.3,3.2,0.6c-1.1,6.6-2.2,13-3.3,19.9c-9.1-0.4-17.6-1-25.3-5.5C69.5,151.4,68,141,67.9,130.3
	C67.7,95.7,67.8,61,67.8,26.4c0-2,0-4,0-7.3c-6.4,0.7-12.6,0.7-18.4,2.3c-5.8,1.5-7.9,6.9-8.1,12.5c-0.3,10.3-0.1,20.7-0.3,31
	c-0.1,5-0.3,10-1,14.9c-1.2,8.3-5.4,14.9-13.2,19.9c14.1,9.1,14.2,22.9,14.3,36.7c0.1,8.8-0.1,17.7,0.1,26.5
	c0.3,11.9,4.9,16.5,16.7,17.1c1.3,0.1,2.6,0.2,4.2,0.4c0,6.3,0,12.4,0,19c-11.1-0.4-22-0.6-31.6-7c-8.4-5.6-11.2-14.3-11.6-23.7
	c-0.5-11.6-0.3-23.3-0.5-35c0-2.3-0.1-4.7-0.4-7C16.7,115.7,11.6,110.7,0,109.2z"/>
<path fill="#20426E" d="M195.3,138.1c1.1,6,2.2,11.5,2.9,17.1c0.1,1.1-1.3,3.1-2.4,3.5c-19.7,6.1-39.4,8.2-59-0.1
	c-10.6-4.5-18.3-12.3-22.6-22.9c-7.6-18.9-7.9-38.1,0.8-56.7c11.5-24.7,41.5-35,66.1-23.1c13.8,6.7,20.7,18.5,23.1,33
	c1.4,8.3,1.3,16.8,1.9,26c-24.4,0-47.8,0-71.1,0c-1.8,12.7,8.2,24.6,21.9,27.1C169.7,144.4,182.2,142.1,195.3,138.1z M180.9,96.8
	c0.3-15.6-8.6-25.3-22.4-25.3c-13.2,0.1-24,11.4-23.7,25.3C150,96.8,165.3,96.8,180.9,96.8z"/>
<path fill="#20426E" d="M359.9,199.7c0-6.8,0-12.7,0-19.1c3.1-0.4,6.2-0.7,9.2-1.4c8-1.8,11.4-5.7,11.6-13.9
	c0.3-10.5-0.1-21,0.3-31.5c0.2-6.1,0.3-12.6,2.2-18.2c2.1-5.8,6.4-10.9,9.7-16.3c0.4,0.2,0.8,0.5,1.2,0.7c-0.1-0.3,0-0.8-0.2-0.9
	C383,91.5,381.2,80,381,67.9c-0.2-9.7,0-19.3-0.1-29c-0.1-14.5-4.1-18.6-18.5-19.4c-0.7,0-1.3-0.2-2.3-0.3c0-6.3,0-12.5,0-19.1
	c10.4,0.2,20.4,0.6,29.6,5.7c10,5.6,13.1,15.2,13.6,25.7c0.5,11.8,0.2,23.6,0.5,35.5c0.1,3.5,0.3,7,1.2,10.4
	c2.3,8.6,8.4,12.8,17.2,13.2c0,6.4,0,12.4,0,18.3c-14,3.3-18.3,8.8-18.4,23.4c-0.1,11.8,0.1,23.7-0.4,35.5
	c-0.7,18.4-10.6,28.7-29,30.8C369.8,199,365.1,199.3,359.9,199.7z"/>
<path fill="#20426E" d="M279.2,75.6c-10.7-3.7-21.2-6-32.2-3.9c-4.9,0.9-9.3,3-10.4,8.7c-0.9,4.5,1.5,8.8,6.5,11.8
	c1.7,1,3.5,1.9,5.3,2.7c3.4,1.4,6.8,2.6,10.2,4c4.4,1.9,8.9,3.7,13.2,5.9c15.9,8.4,18.9,19.5,16,35.6c-2.5,14.1-13.9,19.7-26.7,22
	c-15.6,2.7-31.1,2.1-46.4-2.8c-3.7-1.2-4.7-2.8-3.8-6.5c1.2-4.8,2.1-9.7,3.3-15.1c4,1.2,7.7,2.3,11.5,3.3c9.6,2.6,19.3,3.6,29.1,1.7
	c4.5-0.9,8.2-2.7,9.3-7.7c1.1-5.1-1-9.1-5.2-11.5c-5.5-3.1-11.4-5.4-17.1-8.1c-5.6-2.6-11.3-4.9-16.6-8c-17.9-10.2-17.6-41,2.3-51.1
	c8.8-4.4,18-6.1,27.6-5.4c8.2,0.6,16.4,2.4,24.6,3.8c2.8,0.5,3.9,1.7,3,4.8C281.4,64.9,280.4,70.2,279.2,75.6z"/>
<path fill="#20426E" d="M364.6,55.4c-1.7,7.4-3.1,13.5-4.4,19.4c-7-1.3-13.7-3-20.6-3.6c-4.7-0.4-9.6,0.3-14.3,1.2
	c-4.2,0.8-7.2,3.5-7.9,8c-0.7,4.8,1.3,8.6,5.4,10.9c3.7,2.1,7.7,3.8,11.7,5.6c5.6,2.5,11.5,4.5,17,7.2c14.5,7.3,19.7,17.4,17.8,33.9
	c-1.3,11.6-9.7,20.2-24,23.5c-18.2,4.1-36.2,3.1-54.3-3.8c1.4-6.7,2.7-13.1,4-19.4c7.7,1.7,14.8,4,22.2,4.8
	c6.4,0.7,12.9,0.2,19.3-0.5c4.1-0.4,7.5-2.7,8.4-7.3c0.9-4.6-0.3-8.6-4.2-10.9c-5.1-3.1-10.6-5.4-16-8c-6.3-3-12.8-5.6-18.8-9
	c-17.5-10-17.2-40.4,2-50.5c9.5-5,19.6-6.5,30-5.7C346.8,52,355.6,54,364.6,55.4z"/>
</svg>
