<!DOCTYPE svg PUBLIC "-//W3C//DTD SVG 1.1//EN" "http://www.w3.org/Graphics/SVG/1.1/DTD/svg11.dtd">
<svg version="1.1" id="Calque_1" xmlns="http://www.w3.org/2000/svg" xmlns:xlink="http://www.w3.org/1999/xlink" x="0px" y="0px"
	 viewBox="0 0 222.3 138" enable-background="new 0 0 222.3 138" xml:space="preserve">
<path fill="#A96454" d="M65.2,4.6c-4.5,0-35.4,7.1-45.1,18.4S0,46.4,0,46.4s17.2,14.1,20.1,20.9s5.4,13.3,6.8,16
	c1.4,2.7,7.2,2.7,7.2,2.7s1.2-31.4,5.2-47.2C43.7,21.8,51.8,12.3,65.2,4.6z"/>
<path fill="#A96454" d="M131.5,124.6c0-26.6-18.2-32.5-18.2-32.5s0-3.9,0-13.7c5.8-1.6,7.8-7.5,7.8-7.5s-3.7,3.2-9.7,3.2
	s-9.7-3.2-9.7-3.2s2,5.9,7.8,7.5c0,9.7,0,13.7,0,13.7S91.1,98,91.1,124.6c0-20.9,15.9-28.5,20.2-28.5S131.5,103.7,131.5,124.6z"/>
<path fill="#A96454" d="M157.1,4.6c4.5,0,35.4,7.1,45.1,18.4s20.1,23.4,20.1,23.4s-17.2,14.1-20.1,20.9s-5.4,13.3-6.8,16
	c-1.4,2.7-7.2,2.7-7.2,2.7s-1.2-31.4-5.2-47.2C178.7,21.8,170.5,12.3,157.1,4.6z"/>
<path fill="#A96454" d="M179.7,40.1c-3.6-17.2-8-21.9-20-30.8c-11.9-8.8-33-9.3-48.6-9.3S74.4,0.5,62.6,9.3
	c-12,8.9-16.4,13.5-20,30.8c-3.6,17.2-5.4,26.7-5.4,36.7c0,10,2,14.5,4.5,18.3c2.5,3.7,7.2,4.1,8.6,12.6c1.4,8.6,5.3,13.6,8.1,15.3
	c2.8,1.7,19.7,15,52.8,15s50-13.3,52.8-15c2.8-1.8,6.8-6.8,8.1-15.3c1.4-8.6,6-8.9,8.6-12.6c2.5-3.7,4.5-8.2,4.5-18.3
	C185.1,66.8,183.3,57.3,179.7,40.1C176.1,22.9,183.3,57.3,179.7,40.1z M49.7,54.7c0-8.4,6.8-15.2,15.2-15.2s15.2,6.8,15.2,15.2
	c0,2.1-0.4,4.2-1.2,6l-10.2,8.7c-1.2,0.3-2.4,0.5-3.7,0.5C56.5,69.9,49.7,63.1,49.7,54.7z M150.6,125.2c-8.6,7-30.9,8.9-39.4,9
	c-8.5-0.1-30.8-2-39.4-9c-8.8-7.1-8.9-22.1-7.2-32.9c1.7-10.8,16.1-29.3,32.1-31.1c0.7-6.2,8.8-8.4,14.5-8.4s13.8,2.2,14.5,8.4
	c16,1.8,30.4,20.3,32.1,31.1C159.5,103.2,159.4,118.1,150.6,125.2z M157.4,69.9c-1.3,0-2.5-0.2-3.7-0.5l-10.2-8.7
	c-0.8-1.8-1.2-3.9-1.2-6c0-8.4,6.8-15.2,15.2-15.2s15.2,6.8,15.2,15.2S165.8,69.9,157.4,69.9z"/>
</svg>
