<svg version="1.1" id="Calque_1" xmlns="http://www.w3.org/2000/svg" xmlns:xlink="http://www.w3.org/1999/xlink" x="0px" y="0px"
	 viewBox="38.8 33.4 138.5 141.4" enable-background="new 38.8 33.4 138.5 141.4" xml:space="preserve">
<g>
	<path fill="#B3D107" d="M170.8,33.4c1.6,0,3,0.4,4,1.2c1,0.8,1.7,1.9,2.1,3.3c0.4,1.4,0.4,2.9,0.2,4.7c-0.3,1.8-0.9,3.5-1.9,5.2
		c-0.2,0.2-0.5,0.2-0.8,0c-0.3-0.2-0.5-0.5-0.7-0.8c0.2-1.3-0.2-2.4-1.4-3.3c-1.1-0.9-2.9-1.3-5.3-1.3c-4.5,0-9,1.7-13.5,5
		c-4.5,3.3-8.9,7.7-13.2,13.2c-4.3,5.5-8.3,11.8-12,18.9c-3.7,7.1-6.9,14.4-9.7,22c-2.7,7.5-4.9,15-6.5,22.5
		c-1.6,7.4-2.4,14.2-2.4,20.3c0,3.3,0.9,4.9,2.8,4.9c1.3,0,2.6-0.5,3.9-1.6c1.3-1.1,2.7-2.7,4.3-4.9c0.3-0.2,0.6-0.2,0.9,0.1
		c0.3,0.3,0.4,0.6,0.2,1.1c-2.2,3.3-4.8,6-7.7,8.2c-2.9,2.2-5.6,3.3-8,3.3c-2.1,0-3.5-0.6-4.3-1.8c-0.8-1.2-1.2-2.7-1.2-4.6
		c0-5.1,1.1-11.6,3.3-19.3c2.2-7.7,5.1-15.8,8.8-24.4c3.7-8.6,7.9-17.1,12.7-25.7c4.8-8.5,9.8-16.2,15-23
		c5.2-6.8,10.4-12.4,15.7-16.6C161.3,35.6,166.2,33.4,170.8,33.4z"/>
</g>
<g>
	<path fill="#B3D107" d="M45.3,174.9c-1.6,0-3-0.4-4-1.2c-1-0.8-1.7-1.9-2.1-3.3c-0.4-1.4-0.4-2.9-0.2-4.7c0.3-1.8,0.9-3.5,1.9-5.2
		c0.2-0.2,0.5-0.2,0.8,0c0.3,0.2,0.5,0.5,0.7,0.8c-0.2,1.3,0.2,2.4,1.4,3.3c1.1,0.9,2.9,1.3,5.3,1.3c4.5,0,9-1.7,13.5-5
		c4.5-3.3,8.9-7.7,13.2-13.2c4.3-5.5,8.3-11.7,12-18.9c3.7-7.1,6.9-14.4,9.7-22c2.7-7.5,4.9-15,6.5-22.5c1.6-7.4,2.4-14.2,2.4-20.3
		c0-3.3-0.9-4.9-2.8-4.9c-1.3,0-2.6,0.5-3.9,1.6c-1.3,1.1-2.7,2.7-4.3,4.9c-0.3,0.2-0.6,0.2-0.9-0.1c-0.3-0.3-0.4-0.6-0.2-1.1
		c2.2-3.3,4.8-6,7.7-8.2c2.9-2.2,5.6-3.3,8-3.3c2.1,0,3.5,0.6,4.3,1.8s1.2,2.7,1.2,4.6c0,5.1-1.1,11.6-3.3,19.3
		c-2.2,7.7-5.1,15.8-8.8,24.4c-3.7,8.6-7.9,17.1-12.7,25.7c-4.8,8.5-9.8,16.2-15,23c-5.2,6.8-10.4,12.4-15.7,16.6
		C54.8,172.7,49.9,174.9,45.3,174.9z"/>
</g>
</svg>
