<svg version="1.1" id="Calque_1" xmlns:sketch="http://www.bohemiancoding.com/sketch/ns"
	 xmlns="http://www.w3.org/2000/svg" xmlns:xlink="http://www.w3.org/1999/xlink" x="0px" y="0px" viewBox="11.9 0 89.5 113.4"
	 enable-background="new 11.9 0 89.5 113.4" xml:space="preserve">
<title>document_file</title>
<description>Created with Sketch (http://www.bohemiancoding.com/sketch)</description>
<path fill="#CCCCCC" d="M100.2,0H13.2c-0.7,0-1.2,0.6-1.2,1.3v110.9c0,0.7,0.5,1.3,1.2,1.3h87.1c0.7,0,1.2-0.6,1.2-1.3V1.3
	C101.5,0.6,100.9,0,100.2,0z M65.6,94.5H23.9v-6h41.8V94.5z M89.5,76.6H23.9v-6h65.6V76.6z M89.5,58.7H23.9v-6h65.6V58.7z
	 M89.5,40.8H23.9v-6h65.6V40.8z M89.5,22.9H23.9v-6h65.6V22.9z"/>
</svg>
