<svg version="1.1" id="Calque_1" xmlns="http://www.w3.org/2000/svg" xmlns:xlink="http://www.w3.org/1999/xlink" x="0px" y="0px"
	 viewBox="5.7 5.7 102.1 102.1" enable-background="new 5.7 5.7 102.1 102.1" xml:space="preserve">
<g>
	<path fill="#E8D36B" d="M58,84.2c-3.6,0-6.6,2.9-6.6,6.6c0,3.6,2.9,6.6,6.6,6.6c3.6,0,6.6-2.9,6.6-6.6C64.6,87.2,61.7,84.2,58,84.2
		z"/>
	<path fill="#E8D36B" d="M90.7,5.7h-68c-9.4,0-17,7.6-17,17v68c0,9.4,7.6,17,17,17h68c9.4,0,17-7.6,17-17v-68
		C107.7,13.3,100.1,5.7,90.7,5.7z M51,12.5h12.5v5.4H51V12.5z M51,35h12.5v5.4H51V35z M51,24h12.5v5.4H51V24z M58,101.6
		c-5.8,0-10.5-4.2-11.3-9.8l3.1-38.5h4.6v-7.9h6.8v7.9h5l3.1,38.9C68.6,97.8,63.8,101.6,58,101.6z"/>
</g>
</svg>
