<svg version="1" xmlns="http://www.w3.org/2000/svg" width="346.667" height="346.667" viewBox="0 0 260.000000 260.000000"><path d="M119.8 1.5c-.2.2-2.2.5-4.5.8C94.6 5.2 76 20.1 65.7 42c-5.4 11.7-5.5 12-7.2 19.5-.2.5-.7 2.8-1.3 5-2 7.5-2.4 10-2.8 19-.3 7.8 0 9.7 2 14 3.7 8 12.2 15.8 22.1 20.4 5.8 2.7 18.8 6.8 24.3 7.6 2.1.3 4.9.7 6.2 1 1.4.3 5.2.7 8.4 1 3.3.4 6.3.9 6.6 1.1.3.3.5 1.8.6 3.2.7 19.8 2.5 43.8 3.9 52.7.2 1.1.4 2.4.4 2.9.2 1.5 1.1 0 1.6-2.5.3-1.3.7-5.3 1-8.9.3-3.6.7-8.4 1-10.7.3-3.5 1.4-21.3 1.9-33 .1-1.8.4-3.4.7-3.7.3-.4 3-.8 6-1.1 3-.3 6.5-.7 7.9-1 1.3-.3 4.2-.7 6.5-1 13.6-2 29.9-9.2 38.3-17 11.7-10.8 13.2-21 7-46.5-1.1-4.7-2.3-9-2.6-9.5-.4-.6-.7-1.5-.8-2.1-.4-2.4-7.5-16.7-10.7-21.6-4.3-6.4-12.5-14.7-18.7-18.8-5.1-3.4-17.5-8.5-23.5-9.5-3.7-.7-24.2-1.5-24.7-1zm20.5 10.9c17.8 2.4 33.2 14 42.3 31.6 1.5 3 2.9 5.9 3.1 6.5.1.5 1.4 4.2 2.7 8.2 1.4 3.9 2.8 8.7 3.2 10.5 2.6 14.4 2.9 17.7 2.2 21.8-2.2 12.5-15.8 21.4-41 26.6-9.2 1.9-30 2.5-39.3 1.1-25.2-3.6-41.6-11.4-47.2-22.2-2.2-4.1-2.1-17.1.1-23.6.3-.8.7-3 1-4.9.9-5.6 6.1-19.5 10.2-26.8 8.9-15.9 24.6-26.9 41.3-28.9 2.6-.3 4.7-.6 4.8-.7.5-.4 11.7.1 16.6.8z"/><path d="M121.7 45.6c-.1.1-2.7.4-5.8.7-3.1.4-6.9 1.1-8.5 1.7-1.6.6-3.1 1.1-3.4 1.1-1.1-.1-4.8 1.2-10 3.7-14.3 6.9-22.4 23-18.7 37.4 1.4 5.5 8.9 13.1 16 16.2 21.7 9.6 55 9.4 75.2-.5 12.2-5.9 17.1-13.4 16.2-24.8-1-12.2-7.1-21.5-18-27.5-8-4.4-11.7-5.5-23.2-7.2-3.8-.6-19.3-1.2-19.8-.8zm-15.3 26.8c8.1 4.7 15 14.8 12.7 18.4-1.4 2.1-5 3-10.6 2.8-13.7-.7-23.8-6.7-23-13.7.6-4.4 3.1-7.8 6.8-9.5 4.2-1.8 8.6-1.2 14.1 2zm58.3-2.3c4.2 1.4 7.6 6.2 7.6 10.7 0 6.9-9.7 12.1-23.7 12.7-5.5.2-7.1 0-8.6-1.5-3.6-3.6-.2-10.6 8.2-17.2 7.6-5.9 10.5-6.7 16.5-4.7z"/><path d="M51.8 112.3c-16.1 8.8-27.3 20.4-29.8 30.6-1 4.4-.9 5.5.8 9.4 1.9 4.3 2.7 4.8 14.4 10.7 6.7 3.5 13.3 6.8 14.5 7.4 1.8.9 2.1 1.7 1.7 5.6-1.1 10.6-1.4 14-2 22.5-1.2 16.6-1.2 18 .2 22.6 3.3 10.9 16 19.3 29.4 19.3 3.8-.1 11.4-1.1 15.7-2.3 6.9-1.9 9.1-6.2 6.7-13.6-.7-2.2-2.5-8.1-4-13-2.8-9.2-4.1-11.1-12.4-17.8l-3.5-2.9 4 2.8c6.9 4.7 15.6 12.3 27.6 24.1 9 8.8 12.2 11.3 14.3 11.3 2.1 0 5.1-2.4 14-11.3 10.8-10.9 20-18.7 34.1-29 3.7-2.7 6.8-4.7 7-4.5.2.2-2.8 2.6-6.6 5.3-10.1 7.3-18.9 14.2-21.1 16.8-3.7 4.2-9.7 11.2-18.2 21.5-11.3 13.5-11.4 15.8-.6 23 12.4 8.3 24 10.7 33.8 7 7.4-2.8 13.1-8.7 15.8-16.3 1.2-3.3 2.5-6.9 3-8 .4-1.1.8-2.3.9-2.8.2-.4.3-.8.5-1 .1-.1.3-.9.5-1.7.2-.8 1.4-4.9 2.8-9s4.8-15.4 7.6-25c2.9-9.6 5.6-18.4 6-19.5.4-1.1.7-2.8.6-3.7-.2-1.2 2.6-3.2 10.8-7.3 12.1-6 15.1-8.6 16.6-14 1.1-4.1.6-6.5-2.8-12.6-6-10.7-17-19.9-32.3-27.1l-3.8-1.7-4.2 3.9-4.3 3.9 3 1.1c9.1 3.4 22.8 12.3 27.8 18.1 3.1 3.6 6.7 10.1 6.7 12.1 0 .8-4.8 3.8-10.7 6.8-31.7 16-58 34.3-77.9 54l-9 9-9.3-9c-20.4-19.9-45.1-37.2-76.2-53.2-6.5-3.3-12-6.6-12.3-7.3-.7-1.8 3-8.4 7.2-12.9 5.6-5.9 13-11 21.9-15.2l8.1-3.8-4.2-3.8c-2.2-2-4.3-3.7-4.6-3.7-.3-.1-4 1.8-8.2 4.2zM208 170.4c0 .2-2.4 1.8-5.3 3.4-5.5 3.1-6.3 4.6-9.3 16.4-.1.5-.2.9-.4 1-.1.2-.3 1-.5 1.8-.2 1.3-10.8 34.5-11.9 37.5-.2.5-.7 2-1.1 3.3-1.6 4.9-5.1 10.7-7.7 12.6-1.8 1.3-4.9 2.1-8.9 2.4-5.5.4-6.8.1-13.5-3.3-4.1-2.1-7.4-4.2-7.4-4.8 0-.5 11.5-14.7 25.6-31.6 23.6-28.2 26.1-30.9 32.7-34.9 7.3-4.3 7.7-4.5 7.7-3.8zm-148.5 5.4c-.5.5-4.5-2.2-4.5-3.1 0-.4 1.1 0 2.4 1 1.3 1 2.3 1.9 2.1 2.1zm16.5 9.8c6.1 4 6.6 4.6 7.8 9.6 1.3 5.8 7.8 27 9.2 30.5 1.3 3.1.3 3.5-9.5 3.9-7.5.3-8.8.1-13.6-2.4-8.1-4.3-9.1-6.9-8.4-22.3.3-6.9.7-13.6 1-14.8 1-5.5.8-11-.6-12.7-1.4-1.8 1.9.2 14.1 8.2zm115-5.2c0 .2-1.2 1.1-2.7 2l-2.8 1.7 2.4-2c2.3-2.1 3.1-2.5 3.1-1.7z"/></svg>