<svg version="1.1" id="Calque_1" xmlns="http://www.w3.org/2000/svg" xmlns:xlink="http://www.w3.org/1999/xlink" x="0px" y="0px"
	 viewBox="0 0 256 206" enable-background="new 0 0 256 206" xml:space="preserve">
<g>
	<path fill="#3C4D6D" d="M101.6,9.1c0.2,1.4-0.5,2.6-2.8,3.7c-3-1.6-9.5-2.6-14.9-2.1c-5.8,0.5-10.7,2.3-10,6.3
		c0.9,4,6.5,6.3,16.5,5.4c24.5-2.1,24.2-18.6,60.1-21.9c27.9-2.6,43.5,6.1,45.6,16.5c1.6,8.2-5.1,16.1-25.4,17.7
		c-17.9,1.6-28.4-3.3-29.3-8.2c-0.5-2.6,0.9-6.3,9.5-7.2c0.9,4,5.8,8.2,17.5,7c8.4-0.7,15.4-3.7,14.4-8.4c-0.9-4.9-9.8-7.7-23.8-6.5
		c-28.4,2.6-35.4,18.2-59.6,20.3c-17.2,1.6-31.2-4.7-33.1-14C65.8,14.2,65.8,6,83.9,4.4C93.2,3.7,100.7,5.3,101.6,9.1L101.6,9.1z
		 M10.8,106.4c-7.9,10-11.4,21.7-10.7,33.1s6.3,20.7,15.1,27.9c9.3,7.2,19.3,9.3,30.7,7.2c4.4-0.7,9.3-3,13.7-4.4
		c-9.3,0-17.2-3-25.1-9.3c-8.6-6.3-14.4-15.1-15.8-25.8c-2.1-10,0-19.3,5.6-27.5c6.3-7.9,14.4-12.3,25.1-13.7
		c10.7-0.7,20,2.1,29.3,8.6c-2.1-3-5.1-5.1-7.9-7.9c-9.3-6.3-19.3-9.3-31.7-6.3C28,90.6,18.7,96.4,10.8,106.4L10.8,106.4z
		 M135.6,52.6c-30,0-56.8-3-76.1-7.2c-20.7-5.1-31.7-10.7-31.7-17.9c0-3,1.4-5.6,5.6-8.6c-13,5.1-20,9.3-20,15.8
		c0.7,7.2,12.3,14.4,36.1,20c22.4,5.6,51,8.6,85.5,8.6c35.2,0,63.1-3,85.5-8.6c23.8-5.6,35.2-13,35.2-20c0-5.1-5.1-10-14.4-13.7
		c2.1,1.4,3.7,3.7,3.7,6.3c0,7.2-10.7,13-32.4,17.9C192.4,49.6,166.8,52.6,135.6,52.6L135.6,52.6z M221.3,72.6
		c-22.4,5.1-51,8.6-85.5,8.6c-35.2,0-63.8-3.7-86.2-8.6c-20-5.1-30.7-10.7-34.5-16.5C18.9,81.3,27.6,105,39,126
		c8.6,13,17.2,24.5,25.8,36.8c3.7,7.2,6.3,14.4,7.9,21.7c5.6,7.9,13.7,13,23.8,15.8c12.3,4.4,25.1,6.3,38.2,5.6h1.4
		c13,0.7,26.8-1.4,39.4-5.6c9.3-3,17.2-7.9,23.1-15.8h0.7c1.4-7.2,3.7-14.4,7.2-21.7c8.6-12.3,17.2-23.8,25.8-36.8
		c11.4-20.7,19.3-44.5,23.8-69.9C251.3,62.6,240.6,68.2,221.3,72.6L221.3,72.6z"/>
</g>
</svg>
