<svg version="1.1" id="Layer_1" xmlns="http://www.w3.org/2000/svg" xmlns:xlink="http://www.w3.org/1999/xlink" x="0px" y="0px"
	 viewBox="2.6 2.6 91.9 91.9" enable-background="new 2.6 2.6 91.9 91.9" xml:space="preserve">
<g>
	<path fill="#F05133" d="M92.7,44.4L52.6,4.3c-2.3-2.3-6.1-2.3-8.4,0l-8.3,8.3l10.6,10.6c2.5-0.8,5.3-0.3,7.2,1.7
		c2,2,2.5,4.8,1.7,7.3l10.2,10.2c2.5-0.8,5.3-0.3,7.3,1.7c2.8,2.8,2.8,7.2,0,10c-2.8,2.8-7.2,2.8-10,0c-2.1-2.1-2.6-5.1-1.5-7.7
		l-9.5-9.5v25c0.7,0.3,1.3,0.8,1.9,1.3c2.8,2.8,2.8,7.2,0,10c-2.8,2.7-7.2,2.7-10,0c-2.8-2.8-2.8-7.2,0-10c0.7-0.7,1.5-1.2,2.3-1.5
		V36.4c-0.8-0.3-1.6-0.9-2.3-1.5c-2.1-2.1-2.6-5.1-1.5-7.7L31.8,16.7L4.3,44.2c-2.3,2.3-2.3,6.1,0,8.4l40.1,40.1
		c2.3,2.3,6.1,2.3,8.4,0l39.9-39.9C95,50.5,95,46.7,92.7,44.4z"/>
</g>
</svg>
