<svg version="1.1" id="Calque_1" xmlns="http://www.w3.org/2000/svg" xmlns:xlink="http://www.w3.org/1999/xlink" x="0px" y="0px"
	 viewBox="0 258.3 595.3 448.4" enable-background="new 0 258.3 595.3 448.4" xml:space="preserve">
<g id="Layer_1">
	<g>
		<path fill="#F0DB4F" d="M130.5,265.4h97.9v274.4c0,123.7-59.3,166.8-153.9,166.8c-23.1,0-52.8-3.8-72.2-10.3l10.9-79.2
			c13.5,4.5,30.9,7.7,50.2,7.7c41.3,0,67-18.7,67-85.7V265.4H130.5z"/>
		<path fill="#F0DB4F" d="M313.3,599.1c25.8,13.5,67,27.1,108.8,27.1c45.1,0,68.9-18.7,68.9-47.7c0-26.4-20.6-42.6-72.8-60.6
			c-72.2-25.8-119.8-65.7-119.8-129.5c0-74.1,62.4-130.1,164.3-130.1c49.6,0,85,9.7,110.8,21.9l-22,78.7
			c-16.7-8.4-48.4-20.6-90.2-20.6c-42.6,0-63.1,20-63.1,41.9c0,27.7,23.8,39.9,80.6,61.9C555.5,470.4,591,510.2,591,572.1
			c0,72.8-55.3,134.6-174.5,134.6c-49.6,0-98.6-13.5-123-27.1L313.3,599.1z"/>
	</g>
</g>
</svg>
