<svg version="1.1" id="Calque_1" xmlns="http://www.w3.org/2000/svg" xmlns:xlink="http://www.w3.org/1999/xlink" x="0px" y="0px"
	 viewBox="0 0 4.3 8.3" enable-background="new 0 0 4.3 8.3" xml:space="preserve">
<g>
	<path fill="#A0A09F" d="M1.1,5.6l0-0.3c0-0.6,0.2-1.2,0.7-1.9C2.2,3,2.5,2.6,2.5,2.2c0-0.4-0.3-0.7-0.9-0.7c-0.4,0-0.9,0.1-1.2,0.4
		L0,0.5C0.4,0.2,1.2,0,2,0c1.6,0,2.3,0.9,2.3,1.9c0,0.9-0.6,1.5-1,2c-0.4,0.5-0.6,1-0.6,1.5v0.2H1.1z M0.8,7.3
		c0-0.6,0.4-1.1,1.1-1.1c0.6,0,1.1,0.5,1.1,1.1c0,0.6-0.4,1.1-1.1,1.1C1.2,8.3,0.8,7.9,0.8,7.3z"/>
</g>
</svg>
