<svg version="1.1" id="Capa_1" xmlns="http://www.w3.org/2000/svg" xmlns:xlink="http://www.w3.org/1999/xlink" x="0px" y="0px"
	 viewBox="373.1 216 149.4 176.3" enable-background="new 373.1 216 149.4 176.3" xml:space="preserve">
<g>
	<path fill="#E48E00" d="M447.8,392.3c41.9,0,74.7-15,74.7-34.1v-21.5c0-3.1-0.9-6.2-2.7-9.2l-0.1-0.1c1.7-2.9,2.7-6,2.7-9.2v-21.5
		c0-3.1-0.9-6.2-2.7-9.2l-0.2-0.4c1.8-3,2.9-6.2,2.9-9.5V256c0-2.9-0.8-5.9-2.4-8.8l-0.2-0.3c0.5-1.3,0.8-2.6,0.8-4.1
		c0-17.4-37.6-26.8-72.9-26.8c-35.3,0-72.9,9.4-72.9,26.8c0,1.4,0.3,2.8,0.8,4.1l-0.2,0.3c-1.6,2.9-2.4,5.9-2.4,8.8v21.5
		c0,3.3,1,6.5,2.9,9.5l-0.2,0.4c-1.8,3.1-2.6,6.2-2.6,9.2v21.5c0,3.2,1,6.3,2.7,9.2l-0.1,0.1c-1.8,3-2.6,6.2-2.6,9.2v21.5
		C373.1,377.3,405.9,392.3,447.8,392.3z M381.1,259.6c12,10.2,39.8,15.4,66.7,15.4c26.9,0,54.7-5.3,66.7-15.4v17.9
		c0,12.3-27.4,26.1-66.7,26.1c-39.3,0-66.7-13.8-66.7-26.1V259.6z M381.1,297.9c12.3,11.2,37.5,18.4,66.7,18.4
		c29.2,0,54.5-7.2,66.7-18.4v20.2c0,12.3-27.4,26.1-66.7,26.1c-39.3,0-66.7-13.8-66.7-26.1V297.9z M381.1,338
		c12.3,11.2,37.5,18.4,66.7,18.4c29.2,0,54.5-7.2,66.7-18.4v20.2c0,12.3-27.4,26.1-66.7,26.1c-39.3,0-66.7-13.7-66.7-26.1V338z"/>
</g>
</svg>
