<svg version="1.1" id="Calque_1" xmlns="http://www.w3.org/2000/svg" xmlns:xlink="http://www.w3.org/1999/xlink" x="0px" y="0px"
	 viewBox="189.2 189.2 221.6 221.6" enable-background="new 189.2 189.2 221.6 221.6" xml:space="preserve">
<title>SVG Simple Logo Tiny</title>
<desc>
	Designed for the SVG Logo Contest in 2006 by Harvey Rayner. It is available under the Creative Commons license for those who have an SVG product or who are using SVG on their site.
	</desc>
<path fill="#7F7F7F" d="M189.2,189.2v221.6h221.6V189.2H189.2z M231.7,288.9L231.7,288.9c2.2,2.2,5.3,3.6,8.7,3.6v0
	c8.2,0,15.7,3.3,21,8.7l0,0c5.4,5.4,8.7,12.8,8.7,21.1c0,16.4-13.3,29.8-29.8,29.8c-16.4,0-29.8-13.3-29.8-29.8h17.4
	c0,6.8,5.5,12.3,12.3,12.3c6.8,0,12.3-5.5,12.3-12.3c0-3.4-1.4-6.5-3.6-8.7h0c-2.2-2.2-5.3-3.6-8.7-3.6v0c-8.2,0-15.7-3.3-21.1-8.7
	s-8.7-12.8-8.7-21.1c0-16.4,13.3-29.8,29.8-29.8c16.4,0,29.8,13.3,29.8,29.8h-17.4c0-6.8-5.5-12.3-12.3-12.3
	c-6.8,0-12.3,5.5-12.3,12.3C228.1,283.6,229.5,286.6,231.7,288.9z M308.7,352h-17.4l-21.1-101.7h17.4l12.3,59.5l12.3-59.5h17.4
	L308.7,352z M359.5,352c-16.4,0-29.8-13.3-29.8-29.8v0v-42.1h0c0-16.4,13.3-29.8,29.8-29.8s29.8,13.3,29.8,29.8h-17.4
	c0-6.8-5.5-12.3-12.3-12.3c-6.8,0-12.3,5.5-12.3,12.3v42.1c0,6.8,5.5,12.3,12.3,12.3c6.8,0,12.3-5.5,12.3-12.3v0v-12.3h-12.3v-17.4
	h0h29.8v29.8h0C389.3,338.7,376,352,359.5,352z"/>
</svg>
