<svg version="1.1" id="Calque_1" xmlns:sketch="http://www.bohemiancoding.com/sketch/ns"
	 xmlns="http://www.w3.org/2000/svg" xmlns:xlink="http://www.w3.org/1999/xlink" x="0px" y="0px" viewBox="5 10 23 13"
	 enable-background="new 5 10 23 13" xml:space="preserve">
<title></title>
<desc></desc>
<path fill="#157EFB" d="M25,10H8c-1.7,0-3,1.3-3,3v7c0,1.7,1.3,3,3,3h17c1.7,0,3-1.3,3-3v-7C28,11.3,26.7,10,25,10z M13,14l-2,3v3
	h-1v-3l-2-3v-1h1v1l1.5,2.2L12,14v-1h1V14z M19,20h-1v-5l-1,2h-0.5H16l-1-2v5h-1v-7h0.5H15l1.5,3l1.5-3h0.5H19V20z M25,20h-5v-7h1v6
	h4V20z"/>
</svg>
