<?xml version="1.0" encoding="UTF-8"?>
<svg width="162px" height="93px" viewBox="0 0 162 93" version="1.1" xmlns="http://www.w3.org/2000/svg" xmlns:xlink="http://www.w3.org/1999/xlink">
    <!-- Generator: Sketch 46.2 (44496) - http://www.bohemiancoding.com/sketch -->
    <title>Background</title>
    <desc>Created with Sketch.</desc>
    <defs></defs>
    <g id="Page-1" stroke="none" stroke-width="1" fill="none" fill-rule="evenodd">
        <g id="01.2---Styles.css-ouvert" transform="translate(-8.000000, -2.000000)">
            <g id="logo/nom-du-projet" transform="translate(-25.000000, -18.000000)">
                <g id="avatar">
                    <g id="Background">
                        <path d="M140.705183,51.7045455 L122.987999,51.7045455 C120.333614,51.7045455 118.181818,53.8540828 118.181818,56.5056818 C118.181818,59.1572808 120.333614,61.3068182 122.987999,61.3068182 L140.705183,61.3068182 C143.359568,61.3068182 145.511364,59.1572808 145.511364,56.5056818 C145.511364,53.8540828 143.359568,51.7045455 140.705183,51.7045455" id="Fill-1" fill="#1E2429" opacity="0"></path>
                        <path d="M121.818182,87.8977273 L108.636364,87.8977273 C107.381364,87.8977273 106.363636,88.8900114 106.363636,90.1136364 C106.363636,91.3372614 107.381364,92.3295455 108.636364,92.3295455 L121.818182,92.3295455 C123.073182,92.3295455 124.090909,91.3372614 124.090909,90.1136364 C124.090909,88.8900114 123.073182,87.8977273 121.818182,87.8977273" id="Fill-3" fill="#1E2429" opacity="0"></path>
                        <path d="M59.0144984,43.5795455 L50.3036834,43.5795455 C49.0378644,43.5795455 48.0113636,44.571608 48.0113636,45.7954545 C48.0113636,47.0193011 49.0378644,48.0113636 50.3036834,48.0113636 L59.0144984,48.0113636 C60.2803174,48.0113636 61.3068182,47.0193011 61.3068182,45.7954545 C61.3068182,44.571608 60.2803174,43.5795455 59.0144984,43.5795455" id="Fill-7" fill="#1E2429" opacity="0"></path>
                        <path d="M50.1508621,65.7386364 L48.0877743,65.7386364 C46.8219553,65.7386364 45.7954545,66.7306989 45.7954545,67.9545455 C45.7954545,69.178392 46.8219553,70.1704545 48.0877743,70.1704545 L50.1508621,70.1704545 C51.416681,70.1704545 52.4431818,69.178392 52.4431818,67.9545455 C52.4431818,66.7306989 51.416681,65.7386364 50.1508621,65.7386364" id="Fill-9" fill="#1E2429" opacity="0"></path>
                        <path d="M124.014498,28.8068182 L118.283699,28.8068182 L115.303683,28.8068182 C114.037864,28.8068182 113.011364,29.7988807 113.011364,31.0227273 C113.011364,32.2465739 114.037864,33.2386364 115.303683,33.2386364 L124.014498,33.2386364 C125.280317,33.2386364 126.306818,32.2465739 126.306818,31.0227273 C126.306818,29.7988807 125.280317,28.8068182 124.014498,28.8068182" id="Fill-13" fill="#1E2429" opacity="0"></path>
                        <path d="M68.7962474,60.8143939 L67.3075229,60.8143939 C66.2956483,60.8143939 65.4752467,60.0059564 65.4752467,59.0088384 C65.4752467,58.0117203 66.2956483,57.2032828 67.3075229,57.2032828 L67.8801092,57.2032828 C68.3860465,57.2032828 68.7962474,56.7990641 68.7962474,56.3005051 C68.7962474,55.801946 68.3860465,55.3977273 67.8801092,55.3977273 L64.2155567,55.3977273 C63.7096195,55.3977273 63.2994186,55.801946 63.2994186,56.3005051 C63.2994186,56.7990641 62.8892178,57.2032828 62.3832805,57.2032828 L57.2300035,57.2032828 C56.218129,57.2032828 55.3977273,58.0117203 55.3977273,59.0088384 C55.3977273,60.0059564 56.218129,60.8143939 57.2300035,60.8143939 L60.5510042,60.8143939 C61.3097956,60.8143939 61.9252114,61.4206092 61.9252114,62.1685606 C61.9252114,62.9162863 62.5406272,63.5227273 63.2994186,63.5227273 L68.7962474,63.5227273 C69.5550388,63.5227273 70.1704545,62.9162863 70.1704545,62.1685606 C70.1704545,61.4206092 69.5550388,60.8143939 68.7962474,60.8143939" id="Fill-15" fill="#FFFFFF"></path>
                        <path d="M104.492424,56.1931818 C103.846388,56.1931818 103.322917,55.6843182 103.322917,55.0568182 C103.322917,54.4293182 102.799445,53.9204545 102.153409,53.9204545 L97.9431818,53.9204545 C97.2971458,53.9204545 96.7736742,54.4293182 96.7736742,55.0568182 C96.7736742,55.6843182 96.2502027,56.1931818 95.6041667,56.1931818 L94.2007576,56.1931818 C93.1673807,56.1931818 92.3295455,57.0072727 92.3295455,58.0113636 C92.3295455,59.0154545 93.1673807,59.8295455 94.2007576,59.8295455 L104.492424,59.8295455 C105.525801,59.8295455 106.363636,59.0154545 106.363636,58.0113636 C106.363636,57.0072727 105.525801,56.1931818 104.492424,56.1931818" id="Fill-17" fill="#FFFFFF"></path>
                        <path d="M125.681818,44.5643939 L125.795455,44.5643939 C124.791364,44.5643939 123.977273,43.7559564 123.977273,42.7588384 C123.977273,41.7617203 123.163182,40.9532828 122.159091,40.9532828 L118.636364,40.9532828 C118.134318,40.9532828 117.727273,40.5490641 117.727273,40.0505051 C117.727273,39.551946 117.320227,39.1477273 116.818182,39.1477273 L114.772727,39.1477273 C114.270682,39.1477273 113.863636,39.551946 113.863636,40.0505051 C113.863636,40.5490641 113.456591,40.9532828 112.954545,40.9532828 L112.613636,40.9532828 C111.609545,40.9532828 110.795455,41.7617203 110.795455,42.7588384 C110.795455,43.7559564 111.609545,44.5643939 112.613636,44.5643939 L114.090909,44.5643939 C114.843864,44.5643939 115.454545,45.1706092 115.454545,45.9185606 C115.454545,46.6662863 116.065227,47.2727273 116.818182,47.2727273 L125.681818,47.2727273 C126.434773,47.2727273 127.045455,46.6662863 127.045455,45.9185606 C127.045455,45.1706092 126.434773,44.5643939 125.681818,44.5643939" id="Fill-19" fill="#FFFFFF"></path>
                        <path d="M129.815341,31.8536932 L129.446023,31.8536932 L129.446023,31.2997159 C129.446023,31.1468182 129.36348,31.0227273 129.261364,31.0227273 C129.159247,31.0227273 129.076705,31.1468182 129.076705,31.2997159 L129.076705,31.8536932 L128.707386,31.8536932 C128.60527,31.8536932 128.522727,31.9777841 128.522727,32.1306818 C128.522727,32.2835795 128.60527,32.4076705 128.707386,32.4076705 L129.076705,32.4076705 L129.076705,32.9616477 C129.076705,33.1145455 129.159247,33.2386364 129.261364,33.2386364 C129.36348,33.2386364 129.446023,33.1145455 129.446023,32.9616477 L129.446023,32.4076705 L129.815341,32.4076705 C129.917457,32.4076705 130,32.2835795 130,32.1306818 C130,31.9777841 129.917457,31.8536932 129.815341,31.8536932" id="Fill-21" fill="#FFFFFF"></path>
                        <path d="M75.15625,22.9900568 L74.7869318,22.9900568 L74.7869318,22.4360795 C74.7869318,22.2831818 74.7043892,22.1590909 74.6022727,22.1590909 C74.5001563,22.1590909 74.4176136,22.2831818 74.4176136,22.4360795 L74.4176136,22.9900568 L74.0482955,22.9900568 C73.946179,22.9900568 73.8636364,23.1141477 73.8636364,23.2670455 C73.8636364,23.4199432 73.946179,23.5440341 74.0482955,23.5440341 L74.4176136,23.5440341 L74.4176136,24.0980114 C74.4176136,24.2509091 74.5001563,24.375 74.6022727,24.375 C74.7043892,24.375 74.7869318,24.2509091 74.7869318,24.0980114 L74.7869318,23.5440341 L75.15625,23.5440341 C75.2583665,23.5440341 75.3409091,23.4199432 75.3409091,23.2670455 C75.3409091,23.1141477 75.2583665,22.9900568 75.15625,22.9900568" id="Fill-25" fill="#FFFFFF"></path>
                        <path d="M61.1221591,47.3650568 L60.7528409,47.3650568 L60.7528409,46.8110795 C60.7528409,46.6581818 60.6702983,46.5340909 60.5681818,46.5340909 C60.4660653,46.5340909 60.3835227,46.6581818 60.3835227,46.8110795 L60.3835227,47.3650568 L60.0142045,47.3650568 C59.9120881,47.3650568 59.8295455,47.4891477 59.8295455,47.6420455 C59.8295455,47.7949432 59.9120881,47.9190341 60.0142045,47.9190341 L60.3835227,47.9190341 L60.3835227,48.4730114 C60.3835227,48.6259091 60.4660653,48.75 60.5681818,48.75 C60.6702983,48.75 60.7528409,48.6259091 60.7528409,48.4730114 L60.7528409,47.9190341 L61.1221591,47.9190341 C61.2242756,47.9190341 61.3068182,47.7949432 61.3068182,47.6420455 C61.3068182,47.4891477 61.2242756,47.3650568 61.1221591,47.3650568" id="Fill-27" fill="#FFFFFF"></path>
                        <path d="M46.3494318,39.2400568 L45.9801136,39.2400568 L45.9801136,38.6860795 C45.9801136,38.5331818 45.897571,38.4090909 45.7954545,38.4090909 C45.6933381,38.4090909 45.6107955,38.5331818 45.6107955,38.6860795 L45.6107955,39.2400568 L45.2414773,39.2400568 C45.1393608,39.2400568 45.0568182,39.3641477 45.0568182,39.5170455 C45.0568182,39.6699432 45.1393608,39.7940341 45.2414773,39.7940341 L45.6107955,39.7940341 L45.6107955,40.3480114 C45.6107955,40.5009091 45.6933381,40.625 45.7954545,40.625 C45.897571,40.625 45.9801136,40.5009091 45.9801136,40.3480114 L45.9801136,39.7940341 L46.3494318,39.7940341 C46.4515483,39.7940341 46.5340909,39.6699432 46.5340909,39.5170455 C46.5340909,39.3641477 46.4515483,39.2400568 46.3494318,39.2400568" id="Fill-29" fill="#FFFFFF"></path>
                        <path d="M72.2017045,61.3991477 L71.8323864,61.3991477 L71.8323864,60.8451705 C71.8323864,60.6922727 71.7498438,60.5681818 71.6477273,60.5681818 C71.5456108,60.5681818 71.4630682,60.6922727 71.4630682,60.8451705 L71.4630682,61.3991477 L71.09375,61.3991477 C70.9916335,61.3991477 70.9090909,61.5232386 70.9090909,61.6761364 C70.9090909,61.8290341 70.9916335,61.953125 71.09375,61.953125 L71.4630682,61.953125 L71.4630682,62.5071023 C71.4630682,62.66 71.5456108,62.7840909 71.6477273,62.7840909 C71.7498438,62.7840909 71.8323864,62.66 71.8323864,62.5071023 L71.8323864,61.953125 L72.2017045,61.953125 C72.303821,61.953125 72.3863636,61.8290341 72.3863636,61.6761364 C72.3863636,61.5232386 72.303821,61.3991477 72.2017045,61.3991477" id="Fill-31" fill="#FFFFFF"></path>
                        <path d="M194.815341,20.7741477 L194.446023,20.7741477 L194.446023,20.2201705 C194.446023,20.0672727 194.36348,19.9431818 194.261364,19.9431818 C194.159247,19.9431818 194.076705,20.0672727 194.076705,20.2201705 L194.076705,20.7741477 L193.707386,20.7741477 C193.60527,20.7741477 193.522727,20.8982386 193.522727,21.0511364 C193.522727,21.2040341 193.60527,21.328125 193.707386,21.328125 L194.076705,21.328125 L194.076705,21.8821023 C194.076705,22.035 194.159247,22.1590909 194.261364,22.1590909 C194.36348,22.1590909 194.446023,22.035 194.446023,21.8821023 L194.446023,21.328125 L194.815341,21.328125 C194.917457,21.328125 195,21.2040341 195,21.0511364 C195,20.8982386 194.917457,20.7741477 194.815341,20.7741477" id="Fill-33" fill="#FFFFFF"></path>
                        <path d="M100.269886,42.9332386 L99.9005682,42.9332386 L99.9005682,42.3792614 C99.9005682,42.2263636 99.8180256,42.1022727 99.7159091,42.1022727 C99.6137926,42.1022727 99.53125,42.2263636 99.53125,42.3792614 L99.53125,42.9332386 L99.1619318,42.9332386 C99.0598153,42.9332386 98.9772727,43.0573295 98.9772727,43.2102273 C98.9772727,43.363125 99.0598153,43.4872159 99.1619318,43.4872159 L99.53125,43.4872159 L99.53125,44.0411932 C99.53125,44.1940909 99.6137926,44.3181818 99.7159091,44.3181818 C99.8180256,44.3181818 99.9005682,44.1940909 99.9005682,44.0411932 L99.9005682,43.4872159 L100.269886,43.4872159 C100.372003,43.4872159 100.454545,43.363125 100.454545,43.2102273 C100.454545,43.0573295 100.372003,42.9332386 100.269886,42.9332386" id="Fill-35" fill="#FFFFFF"></path>
                        <path d="M90.6676136,39.2400568 L90.2982955,39.2400568 L90.2982955,38.6860795 C90.2982955,38.5331818 90.2157528,38.4090909 90.1136364,38.4090909 C90.0115199,38.4090909 89.9289773,38.5331818 89.9289773,38.6860795 L89.9289773,39.2400568 L89.5596591,39.2400568 C89.4575426,39.2400568 89.375,39.3641477 89.375,39.5170455 C89.375,39.6699432 89.4575426,39.7940341 89.5596591,39.7940341 L89.9289773,39.7940341 L89.9289773,40.3480114 C89.9289773,40.5009091 90.0115199,40.625 90.1136364,40.625 C90.2157528,40.625 90.2982955,40.5009091 90.2982955,40.3480114 L90.2982955,39.7940341 L90.6676136,39.7940341 C90.7697301,39.7940341 90.8522727,39.6699432 90.8522727,39.5170455 C90.8522727,39.3641477 90.7697301,39.2400568 90.6676136,39.2400568" id="Fill-37" fill="#FFFFFF"></path>
                        <path d="M107.65625,35.546875 L107.286932,35.546875 L107.286932,34.9928977 C107.286932,34.84 107.204389,34.7159091 107.102273,34.7159091 C107.000156,34.7159091 106.917614,34.84 106.917614,34.9928977 L106.917614,35.546875 L106.548295,35.546875 C106.446179,35.546875 106.363636,35.6709659 106.363636,35.8238636 C106.363636,35.9767614 106.446179,36.1008523 106.548295,36.1008523 L106.917614,36.1008523 L106.917614,36.6548295 C106.917614,36.8077273 107.000156,36.9318182 107.102273,36.9318182 C107.204389,36.9318182 107.286932,36.8077273 107.286932,36.6548295 L107.286932,36.1008523 L107.65625,36.1008523 C107.758366,36.1008523 107.840909,35.9767614 107.840909,35.8238636 C107.840909,35.6709659 107.758366,35.546875 107.65625,35.546875" id="Fill-39" fill="#FFFFFF"></path>
                        <path d="M76.6335227,25.2059659 L76.2642045,25.2059659 L76.2642045,24.6519886 C76.2642045,24.4990909 76.1816619,24.375 76.0795455,24.375 C75.977429,24.375 75.8948864,24.4990909 75.8948864,24.6519886 L75.8948864,25.2059659 L75.5255682,25.2059659 C75.4234517,25.2059659 75.3409091,25.3300568 75.3409091,25.4829545 C75.3409091,25.6358523 75.4234517,25.7599432 75.5255682,25.7599432 L75.8948864,25.7599432 L75.8948864,26.3139205 C75.8948864,26.4668182 75.977429,26.5909091 76.0795455,26.5909091 C76.1816619,26.5909091 76.2642045,26.4668182 76.2642045,26.3139205 L76.2642045,25.7599432 L76.6335227,25.7599432 C76.7356392,25.7599432 76.8181818,25.6358523 76.8181818,25.4829545 C76.8181818,25.3300568 76.7356392,25.2059659 76.6335227,25.2059659" id="Fill-43" fill="#FFFFFF"></path>
                        <path d="M81.8039773,42.9332386 L81.4346591,42.9332386 L81.4346591,42.3792614 C81.4346591,42.2263636 81.3521165,42.1022727 81.25,42.1022727 C81.1478835,42.1022727 81.0653409,42.2263636 81.0653409,42.3792614 L81.0653409,42.9332386 L80.6960227,42.9332386 C80.5939063,42.9332386 80.5113636,43.0573295 80.5113636,43.2102273 C80.5113636,43.363125 80.5939063,43.4872159 80.6960227,43.4872159 L81.0653409,43.4872159 L81.0653409,44.0411932 C81.0653409,44.1940909 81.1478835,44.3181818 81.25,44.3181818 C81.3521165,44.3181818 81.4346591,44.1940909 81.4346591,44.0411932 L81.4346591,43.4872159 L81.8039773,43.4872159 C81.9060937,43.4872159 81.9886364,43.363125 81.9886364,43.2102273 C81.9886364,43.0573295 81.9060937,42.9332386 81.8039773,42.9332386" id="Fill-45" fill="#FFFFFF"></path>
                        <path d="M125.383523,51.796875 L125.014205,51.796875 L125.014205,51.2428977 C125.014205,51.09 124.931662,50.9659091 124.829545,50.9659091 C124.727429,50.9659091 124.644886,51.09 124.644886,51.2428977 L124.644886,51.796875 L124.275568,51.796875 C124.173452,51.796875 124.090909,51.9209659 124.090909,52.0738636 C124.090909,52.2267614 124.173452,52.3508523 124.275568,52.3508523 L124.644886,52.3508523 L124.644886,52.9048295 C124.644886,53.0577273 124.727429,53.1818182 124.829545,53.1818182 C124.931662,53.1818182 125.014205,53.0577273 125.014205,52.9048295 L125.014205,52.3508523 L125.383523,52.3508523 C125.485639,52.3508523 125.568182,52.2267614 125.568182,52.0738636 C125.568182,51.9209659 125.485639,51.796875 125.383523,51.796875" id="Fill-47" fill="#FFFFFF"></path>
                        <path d="M115.78125,43.671875 L115.411932,43.671875 L115.411932,43.1178977 C115.411932,42.965 115.329389,42.8409091 115.227273,42.8409091 C115.125156,42.8409091 115.042614,42.965 115.042614,43.1178977 L115.042614,43.671875 L114.673295,43.671875 C114.571179,43.671875 114.488636,43.7959659 114.488636,43.9488636 C114.488636,44.1017614 114.571179,44.2258523 114.673295,44.2258523 L115.042614,44.2258523 L115.042614,44.7798295 C115.042614,44.9327273 115.125156,45.0568182 115.227273,45.0568182 C115.329389,45.0568182 115.411932,44.9327273 115.411932,44.7798295 L115.411932,44.2258523 L115.78125,44.2258523 C115.883366,44.2258523 115.965909,44.1017614 115.965909,43.9488636 C115.965909,43.7959659 115.883366,43.671875 115.78125,43.671875" id="Fill-49" fill="#FFFFFF"></path>
                        <path d="M104.701705,79.1264205 L104.332386,79.1264205 L104.332386,78.5724432 C104.332386,78.4195455 104.249844,78.2954545 104.147727,78.2954545 C104.045611,78.2954545 103.963068,78.4195455 103.963068,78.5724432 L103.963068,79.1264205 L103.59375,79.1264205 C103.491634,79.1264205 103.409091,79.2505114 103.409091,79.4034091 C103.409091,79.5563068 103.491634,79.6803977 103.59375,79.6803977 L103.963068,79.6803977 L103.963068,80.234375 C103.963068,80.3872727 104.045611,80.5113636 104.147727,80.5113636 C104.249844,80.5113636 104.332386,80.3872727 104.332386,80.234375 L104.332386,79.6803977 L104.701705,79.6803977 C104.803821,79.6803977 104.886364,79.5563068 104.886364,79.4034091 C104.886364,79.2505114 104.803821,79.1264205 104.701705,79.1264205" id="Fill-21-Copy" fill="#FFFFFF"></path>
                        <path d="M80.3267045,92.421875 L79.9573864,92.421875 L79.9573864,91.8678977 C79.9573864,91.715 79.8748437,91.5909091 79.7727273,91.5909091 C79.6706108,91.5909091 79.5880682,91.715 79.5880682,91.8678977 L79.5880682,92.421875 L79.21875,92.421875 C79.1166335,92.421875 79.0340909,92.5459659 79.0340909,92.6988636 C79.0340909,92.8517614 79.1166335,92.9758523 79.21875,92.9758523 L79.5880682,92.9758523 L79.5880682,93.5298295 C79.5880682,93.6827273 79.6706108,93.8068182 79.7727273,93.8068182 C79.8748437,93.8068182 79.9573864,93.6827273 79.9573864,93.5298295 L79.9573864,92.9758523 L80.3267045,92.9758523 C80.428821,92.9758523 80.5113636,92.8517614 80.5113636,92.6988636 C80.5113636,92.5459659 80.428821,92.421875 80.3267045,92.421875" id="Fill-23-Copy" fill="#FFFFFF"></path>
                        <path d="M118.735795,111.62642 L118.366477,111.62642 L118.366477,111.072443 C118.366477,110.919545 118.283935,110.795455 118.181818,110.795455 C118.079702,110.795455 117.997159,110.919545 117.997159,111.072443 L117.997159,111.62642 L117.627841,111.62642 C117.525724,111.62642 117.443182,111.750511 117.443182,111.903409 C117.443182,112.056307 117.525724,112.180398 117.627841,112.180398 L117.997159,112.180398 L117.997159,112.734375 C117.997159,112.887273 118.079702,113.011364 118.181818,113.011364 C118.283935,113.011364 118.366477,112.887273 118.366477,112.734375 L118.366477,112.180398 L118.735795,112.180398 C118.837912,112.180398 118.920455,112.056307 118.920455,111.903409 C118.920455,111.750511 118.837912,111.62642 118.735795,111.62642" id="Fill-27-Copy" fill="#FFFFFF"></path>
                        <path d="M128.338068,71.7400568 L127.96875,71.7400568 L127.96875,71.1860795 C127.96875,71.0331818 127.886207,70.9090909 127.784091,70.9090909 C127.681974,70.9090909 127.599432,71.0331818 127.599432,71.1860795 L127.599432,71.7400568 L127.230114,71.7400568 C127.127997,71.7400568 127.045455,71.8641477 127.045455,72.0170455 C127.045455,72.1699432 127.127997,72.2940341 127.230114,72.2940341 L127.599432,72.2940341 L127.599432,72.8480114 C127.599432,73.0009091 127.681974,73.125 127.784091,73.125 C127.886207,73.125 127.96875,73.0009091 127.96875,72.8480114 L127.96875,72.2940341 L128.338068,72.2940341 C128.440185,72.2940341 128.522727,72.1699432 128.522727,72.0170455 C128.522727,71.8641477 128.440185,71.7400568 128.338068,71.7400568" id="Fill-29-Copy" fill="#FFFFFF"></path>
                        <path d="M107.65625,60.6605114 L107.286932,60.6605114 L107.286932,60.1065341 C107.286932,59.9536364 107.204389,59.8295455 107.102273,59.8295455 C107.000156,59.8295455 106.917614,59.9536364 106.917614,60.1065341 L106.917614,60.6605114 L106.548295,60.6605114 C106.446179,60.6605114 106.363636,60.7846023 106.363636,60.9375 C106.363636,61.0903977 106.446179,61.2144886 106.548295,61.2144886 L106.917614,61.2144886 L106.917614,61.7684659 C106.917614,61.9213636 107.000156,62.0454545 107.102273,62.0454545 C107.204389,62.0454545 107.286932,61.9213636 107.286932,61.7684659 L107.286932,61.2144886 L107.65625,61.2144886 C107.758366,61.2144886 107.840909,61.0903977 107.840909,60.9375 C107.840909,60.7846023 107.758366,60.6605114 107.65625,60.6605114" id="Fill-31-Copy" fill="#FFFFFF"></path>
                        <path d="M114.303977,62.8764205 L113.934659,62.8764205 L113.934659,62.3224432 C113.934659,62.1695455 113.852116,62.0454545 113.75,62.0454545 C113.647884,62.0454545 113.565341,62.1695455 113.565341,62.3224432 L113.565341,62.8764205 L113.196023,62.8764205 C113.093906,62.8764205 113.011364,63.0005114 113.011364,63.1534091 C113.011364,63.3063068 113.093906,63.4303977 113.196023,63.4303977 L113.565341,63.4303977 L113.565341,63.984375 C113.565341,64.1372727 113.647884,64.2613636 113.75,64.2613636 C113.852116,64.2613636 113.934659,64.1372727 113.934659,63.984375 L113.934659,63.4303977 L114.303977,63.4303977 C114.406094,63.4303977 114.488636,63.3063068 114.488636,63.1534091 C114.488636,63.0005114 114.406094,62.8764205 114.303977,62.8764205" id="Fill-33-Copy" fill="#FFFFFF"></path>
                        <path d="M68.5085227,74.6946023 L68.1392045,74.6946023 L68.1392045,74.140625 C68.1392045,73.9877273 68.0566619,73.8636364 67.9545455,73.8636364 C67.852429,73.8636364 67.7698864,73.9877273 67.7698864,74.140625 L67.7698864,74.6946023 L67.4005682,74.6946023 C67.2984517,74.6946023 67.2159091,74.8186932 67.2159091,74.9715909 C67.2159091,75.1244886 67.2984517,75.2485795 67.4005682,75.2485795 L67.7698864,75.2485795 L67.7698864,75.8025568 C67.7698864,75.9554545 67.852429,76.0795455 67.9545455,76.0795455 C68.0566619,76.0795455 68.1392045,75.9554545 68.1392045,75.8025568 L68.1392045,75.2485795 L68.5085227,75.2485795 C68.6106392,75.2485795 68.6931818,75.1244886 68.6931818,74.9715909 C68.6931818,74.8186932 68.6106392,74.6946023 68.5085227,74.6946023" id="Fill-35-Copy" fill="#FFFFFF"></path>
                        <path d="M132.769886,93.1605114 L132.400568,93.1605114 L132.400568,92.6065341 C132.400568,92.4536364 132.318026,92.3295455 132.215909,92.3295455 C132.113793,92.3295455 132.03125,92.4536364 132.03125,92.6065341 L132.03125,93.1605114 L131.661932,93.1605114 C131.559815,93.1605114 131.477273,93.2846023 131.477273,93.4375 C131.477273,93.5903977 131.559815,93.7144886 131.661932,93.7144886 L132.03125,93.7144886 L132.03125,94.2684659 C132.03125,94.4213636 132.113793,94.5454545 132.215909,94.5454545 C132.318026,94.5454545 132.400568,94.4213636 132.400568,94.2684659 L132.400568,93.7144886 L132.769886,93.7144886 C132.872003,93.7144886 132.954545,93.5903977 132.954545,93.4375 C132.954545,93.2846023 132.872003,93.1605114 132.769886,93.1605114" id="Fill-37-Copy" fill="#FFFFFF"></path>
                        <path d="M65.5539773,93.1605114 L65.1846591,93.1605114 L65.1846591,92.6065341 C65.1846591,92.4536364 65.1021165,92.3295455 65,92.3295455 C64.8978835,92.3295455 64.8153409,92.4536364 64.8153409,92.6065341 L64.8153409,93.1605114 L64.4460227,93.1605114 C64.3439063,93.1605114 64.2613636,93.2846023 64.2613636,93.4375 C64.2613636,93.5903977 64.3439063,93.7144886 64.4460227,93.7144886 L64.8153409,93.7144886 L64.8153409,94.2684659 C64.8153409,94.4213636 64.8978835,94.5454545 65,94.5454545 C65.1021165,94.5454545 65.1846591,94.4213636 65.1846591,94.2684659 L65.1846591,93.7144886 L65.5539773,93.7144886 C65.6560937,93.7144886 65.7386364,93.5903977 65.7386364,93.4375 C65.7386364,93.2846023 65.6560937,93.1605114 65.5539773,93.1605114" id="Fill-39-Copy" fill="#FFFFFF"></path>
                        <path d="M84.0198864,90.9446023 L83.6505682,90.9446023 L83.6505682,90.390625 C83.6505682,90.2377273 83.5680256,90.1136364 83.4659091,90.1136364 C83.3637926,90.1136364 83.28125,90.2377273 83.28125,90.390625 L83.28125,90.9446023 L82.9119318,90.9446023 C82.8098153,90.9446023 82.7272727,91.0686932 82.7272727,91.2215909 C82.7272727,91.3744886 82.8098153,91.4985795 82.9119318,91.4985795 L83.28125,91.4985795 L83.28125,92.0525568 C83.28125,92.2054545 83.3637926,92.3295455 83.4659091,92.3295455 C83.5680256,92.3295455 83.6505682,92.2054545 83.6505682,92.0525568 L83.6505682,91.4985795 L84.0198864,91.4985795 C84.1220028,91.4985795 84.2045455,91.3744886 84.2045455,91.2215909 C84.2045455,91.0686932 84.1220028,90.9446023 84.0198864,90.9446023" id="Fill-41-Copy" fill="#FFFFFF"></path>
                        <path d="M112.826705,95.3764205 L112.457386,95.3764205 L112.457386,94.8224432 C112.457386,94.6695455 112.374844,94.5454545 112.272727,94.5454545 C112.170611,94.5454545 112.088068,94.6695455 112.088068,94.8224432 L112.088068,95.3764205 L111.71875,95.3764205 C111.616634,95.3764205 111.534091,95.5005114 111.534091,95.6534091 C111.534091,95.8063068 111.616634,95.9303977 111.71875,95.9303977 L112.088068,95.9303977 L112.088068,96.484375 C112.088068,96.6372727 112.170611,96.7613636 112.272727,96.7613636 C112.374844,96.7613636 112.457386,96.6372727 112.457386,96.484375 L112.457386,95.9303977 L112.826705,95.9303977 C112.928821,95.9303977 113.011364,95.8063068 113.011364,95.6534091 C113.011364,95.5005114 112.928821,95.3764205 112.826705,95.3764205" id="Fill-43-Copy" fill="#FFFFFF"></path>
                        <path d="M151.235795,87.2514205 L150.866477,87.2514205 L150.866477,86.6974432 C150.866477,86.5445455 150.783935,86.4204545 150.681818,86.4204545 C150.579702,86.4204545 150.497159,86.5445455 150.497159,86.6974432 L150.497159,87.2514205 L150.127841,87.2514205 C150.025724,87.2514205 149.943182,87.3755114 149.943182,87.5284091 C149.943182,87.6813068 150.025724,87.8053977 150.127841,87.8053977 L150.497159,87.8053977 L150.497159,88.359375 C150.497159,88.5122727 150.579702,88.6363636 150.681818,88.6363636 C150.783935,88.6363636 150.866477,88.5122727 150.866477,88.359375 L150.866477,87.8053977 L151.235795,87.8053977 C151.337912,87.8053977 151.420455,87.6813068 151.420455,87.5284091 C151.420455,87.3755114 151.337912,87.2514205 151.235795,87.2514205" id="Fill-45-Copy" fill="#FFFFFF"></path>
                        <path d="M34.53125,89.4673295 L34.1619318,89.4673295 L34.1619318,88.9133523 C34.1619318,88.7604545 34.0793892,88.6363636 33.9772727,88.6363636 C33.8751562,88.6363636 33.7926136,88.7604545 33.7926136,88.9133523 L33.7926136,89.4673295 L33.4232955,89.4673295 C33.321179,89.4673295 33.2386364,89.5914205 33.2386364,89.7443182 C33.2386364,89.8972159 33.321179,90.0213068 33.4232955,90.0213068 L33.7926136,90.0213068 L33.7926136,90.5752841 C33.7926136,90.7281818 33.8751562,90.8522727 33.9772727,90.8522727 C34.0793892,90.8522727 34.1619318,90.7281818 34.1619318,90.5752841 L34.1619318,90.0213068 L34.53125,90.0213068 C34.6333665,90.0213068 34.7159091,89.8972159 34.7159091,89.7443182 C34.7159091,89.5914205 34.6333665,89.4673295 34.53125,89.4673295" id="Fill-47-Copy" fill="#FFFFFF"></path>
                        <path d="M56.6903409,74.6946023 L56.3210227,74.6946023 L56.3210227,74.140625 C56.3210227,73.9877273 56.2384801,73.8636364 56.1363636,73.8636364 C56.0342472,73.8636364 55.9517045,73.9877273 55.9517045,74.140625 L55.9517045,74.6946023 L55.5823864,74.6946023 C55.4802699,74.6946023 55.3977273,74.8186932 55.3977273,74.9715909 C55.3977273,75.1244886 55.4802699,75.2485795 55.5823864,75.2485795 L55.9517045,75.2485795 L55.9517045,75.8025568 C55.9517045,75.9554545 56.0342472,76.0795455 56.1363636,76.0795455 C56.2384801,76.0795455 56.3210227,75.9554545 56.3210227,75.8025568 L56.3210227,75.2485795 L56.6903409,75.2485795 C56.7924574,75.2485795 56.875,75.1244886 56.875,74.9715909 C56.875,74.8186932 56.7924574,74.6946023 56.6903409,74.6946023" id="Fill-49-Copy" fill="#FFFFFF"></path>
                        <path d="M160.099432,57.7059659 L159.730114,57.7059659 L159.730114,57.1519886 C159.730114,56.9990909 159.647571,56.875 159.545455,56.875 C159.443338,56.875 159.360795,56.9990909 159.360795,57.1519886 L159.360795,57.7059659 L158.991477,57.7059659 C158.889361,57.7059659 158.806818,57.8300568 158.806818,57.9829545 C158.806818,58.1358523 158.889361,58.2599432 158.991477,58.2599432 L159.360795,58.2599432 L159.360795,58.8139205 C159.360795,58.9668182 159.443338,59.0909091 159.545455,59.0909091 C159.647571,59.0909091 159.730114,58.9668182 159.730114,58.8139205 L159.730114,58.2599432 L160.099432,58.2599432 C160.201548,58.2599432 160.284091,58.1358523 160.284091,57.9829545 C160.284091,57.8300568 160.201548,57.7059659 160.099432,57.7059659" id="Fill-51-Copy" fill="#FFFFFF"></path>
                    </g>
                </g>
            </g>
        </g>
    </g>
</svg>